999
dxfrw 0.6.3
  0
SECTION
  2
HEADER
  9
$ACADVER
  1
AC1021
  9
$DWGCODEPAGE
  3
ANSI_1252
  9
$INSBASE
 10
0
 20
0
 30
0
  9
$EXTMIN
 10
-332.4939053007002
 20
-159.8882966288503
 30
0
  9
$EXTMAX
 10
388.4417884649126
 20
551.390670458095
 30
0
  9
$LIMMIN
 10
0
 20
0
  9
$LIMMAX
 10
12
 20
9
  9
$ORTHOMODE
 70
    0
  9
$REGENMODE
 70
    1
  9
$FILLMODE
 70
    1
  9
$QTEXTMODE
 70
    0
  9
$MIRRTEXT
 70
    1
  9
$LTSCALE
 40
1
  9
$ATTMODE
 70
    1
  9
$TEXTSIZE
 40
0.2
  9
$TRACEWID
 40
0.05
  9
$TEXTSTYLE
  7
STANDARD
  9
$CLAYER
  8
0
  9
$CELTYPE
  6
BYLAYER
  9
$CECOLOR
 62
  255
  9
$CELTSCALE
 40
1
  9
$DISPSILH
 70
    0
  9
$DIMSCALE
 40
1
  9
$DIMASZ
 40
0.18
  9
$DIMEXO
 40
0.0625
  9
$DIMDLI
 40
0.38
  9
$DIMRND
 40
0
  9
$DIMDLE
 40
0
  9
$DIMEXE
 40
0.18
  9
$DIMTP
 40
0
  9
$DIMTM
 40
0
  9
$DIMTXT
 40
0.18
  9
$DIMCEN
 40
0.09
  9
$DIMTSZ
 40
0
  9
$DIMTOL
 70
    0
  9
$DIMLIM
 70
    0
  9
$DIMTIH
 70
    1
  9
$DIMTOH
 70
    1
  9
$DIMSE1
 70
    0
  9
$DIMSE2
 70
    0
  9
$DIMTAD
 70
    0
  9
$DIMZIN
 70
    0
  9
$DIMBLK
  1

  9
$DIMASO
 70
    1
  9
$DIMSHO
 70
    1
  9
$DIMPOST
  1

  9
$DIMAPOST
  1

  9
$DIMALT
 70
    0
  9
$DIMALTD
 70
    2
  9
$DIMALTF
 40
25.4
  9
$DIMLFAC
 40
1
  9
$DIMTOFL
 70
    0
  9
$DIMTVP
 40
0
  9
$DIMTIX
 70
    0
  9
$DIMSOXD
 70
    0
  9
$DIMSAH
 70
    0
  9
$DIMBLK1
  1

  9
$DIMBLK2
  1

  9
$DIMSTYLE
  2
STANDARD
  9
$DIMCLRD
 70
   18
  9
$DIMCLRE
 70
   18
  9
$DIMCLRT
 70
   18
  9
$DIMTFAC
 40
1
  9
$DIMGAP
 40
0.09
  9
$DIMJUST
 70
    0
  9
$DIMSD1
 70
    0
  9
$DIMSD2
 70
    0
  9
$DIMTOLJ
 70
    1
  9
$DIMTZIN
 70
    0
  9
$DIMALTZ
 70
    0
  9
$DIMALTTZ
 70
    0
  9
$DIMUPT
 70
    0
  9
$DIMDEC
 70
    4
  9
$DIMTDEC
 70
    4
  9
$DIMALTU
 70
    2
  9
$DIMALTTD
 70
    2
  9
$DIMTXSTY
  7
STANDARD
  9
$DIMAUNIT
 70
    0
  9
$DIMADEC
 70
    0
  9
$DIMALTRND
 40
0
  9
$DIMAZIN
 70
    0
  9
$DIMDSEP
 70
   44
  9
$DIMATFIT
 70
    3
  9
$DIMFRAC
 70
    0
  9
$DIMLDRBLK
  1
STANDARD
  9
$DIMLUNIT
 70
    2
  9
$DIMLWD
 70
   -2
  9
$DIMLWE
 70
   -2
  9
$DIMTMOVE
 70
    0
  9
$DIMFXL
 40
1
  9
$DIMFXLON
 70
    0
  9
$DIMJOGANG
 40
0.7854
  9
$DIMTFILL
 70
    0
  9
$DIMTFILLCLR
 70
    0
  9
$DIMARCSYM
 70
    0
  9
$DIMLTYPE
  6

  9
$DIMLTEX1
  6

  9
$DIMLTEX2
  6

  9
$LUNITS
 70
    2
  9
$LUPREC
 70
    4
  9
$SKETCHINC
 40
0.1
  9
$FILLETRAD
 40
20
  9
$AUNITS
 70
    0
  9
$AUPREC
 70
    0
  9
$MENU
  1
.
  9
$ELEVATION
 40
0
  9
$PELEVATION
 40
0
  9
$THICKNESS
 40
0
  9
$LIMCHECK
 70
    0
  9
$CHAMFERA
 40
0.5
  9
$CHAMFERB
 40
0.5
  9
$CHAMFERC
 40
1
  9
$CHAMFERD
 40
0
  9
$SKPOLY
 70
    0
  9
$USRTIMER
 70
    1
  9
$ANGBASE
 50
0
  9
$ANGDIR
 70
    0
  9
$PDMODE
 70
    0
  9
$PDSIZE
 40
0
  9
$PLINEWID
 40
0
  9
$SPLFRAME
 70
    0
  9
$SPLINETYPE
 70
    6
  9
$SPLINESEGS
 70
    8
  9
$HANDSEED
  5
20000
  9
$SURFTAB1
 70
    6
  9
$SURFTAB2
 70
    6
  9
$SURFTYPE
 70
    6
  9
$SURFU
 70
    6
  9
$SURFV
 70
    6
  9
$UCSBASE
  2

  9
$UCSNAME
  2

  9
$UCSORG
 10
0
 20
0
 30
0
  9
$UCSXDIR
 10
1
 20
0
 30
0
  9
$UCSYDIR
 10
0
 20
1
 30
0
  9
$UCSORTHOREF
  2

  9
$UCSORTHOVIEW
 70
    0
  9
$UCSORGTOP
 10
0
 20
0
 30
0
  9
$UCSORGBOTTOM
 10
0
 20
0
 30
0
  9
$UCSORGLEFT
 10
0
 20
0
 30
0
  9
$UCSORGRIGHT
 10
0
 20
0
 30
0
  9
$UCSORGFRONT
 10
0
 20
0
 30
0
  9
$UCSORGBACK
 10
0
 20
0
 30
0
  9
$PUCSBASE
  2

  9
$PUCSNAME
  2

  9
$PUCSORG
 10
0
 20
0
 30
0
  9
$PUCSXDIR
 10
1
 20
0
 30
0
  9
$PUCSYDIR
 10
0
 20
1
 30
0
  9
$PUCSORTHOREF
  2

  9
$PUCSORTHOVIEW
 70
    0
  9
$PUCSORGTOP
 10
0
 20
0
 30
0
  9
$PUCSORGBOTTOM
 10
0
 20
0
 30
0
  9
$PUCSORGLEFT
 10
0
 20
0
 30
0
  9
$PUCSORGRIGHT
 10
0
 20
0
 30
0
  9
$PUCSORGFRONT
 10
0
 20
0
 30
0
  9
$PUCSORGBACK
 10
0
 20
0
 30
0
  9
$USERI1
 70
    0
  9
$USERI2
 70
    0
  9
$USERI3
 70
    0
  9
$USERI4
 70
    0
  9
$USERI5
 70
    0
  9
$USERR1
 40
0
  9
$USERR2
 40
0
  9
$USERR3
 40
0
  9
$USERR4
 40
0
  9
$USERR5
 40
0
  9
$WORLDVIEW
 70
    1
  9
$SHADEDGE
 70
    3
  9
$SHADEDIF
 70
   70
  9
$TILEMODE
 70
    1
  9
$MAXACTVP
 70
   64
  9
$PINSBASE
 10
0
 20
0
 30
0
  9
$PLIMCHECK
 70
    0
  9
$PEXTMIN
 10
1e+20
 20
1e+20
 30
1e+20
  9
$PEXTMAX
 10
-1e+20
 20
-1e+20
 30
-1e+20
  9
$GRIDMODE
 70
    0
  9
$SNAPSTYLE
 70
    0
  9
$PLIMMIN
 10
0
 20
0
  9
$PLIMMAX
 10
420
 20
297
  9
$UNITMODE
 70
    0
  9
$VISRETAIN
 70
    1
  9
$PLINEGEN
 70
    0
  9
$PSLTSCALE
 70
    1
  9
$TREEDEPTH
 70
 3020
  9
$CMLSTYLE
  2
STANDARD
  9
$CMLJUST
 70
    0
  9
$CMLSCALE
 40
1
  9
$PROXYGRAPHICS
 70
    1
  9
$MEASUREMENT
 70
    1
  9
$CELWEIGHT
370
   -1
  9
$ENDCAPS
280
    0
  9
$JOINSTYLE
280
    0
  9
$LWDISPLAY
290
    0
  9
$INSUNITS
 70
    4
  9
$HYPERLINKBASE
  1

  9
$STYLESHEET
  1

  9
$XEDIT
290
    1
  9
$CEPSNTYPE
380
    0
  9
$PSTYLEMODE
290
    1
  9
$EXTNAMES
290
    1
  9
$PSVPSCALE
 40
1
  9
$OLESTARTUP
290
    0
  9
$SORTENTS
280
  127
  9
$INDEXCTL
280
    0
  9
$HIDETEXT
280
    1
  9
$XCLIPFRAME
290
    0
  9
$HALOGAP
280
    0
  9
$OBSCOLOR
 70
  257
  9
$OBSLTYPE
280
    0
  9
$INTERSECTIONDISPLAY
280
    0
  9
$INTERSECTIONCOLOR
 70
  257
  9
$DIMASSOC
280
    1
  9
$PROJECTNAME
  1

  9
$CAMERADISPLAY
290
    0
  9
$LENSLENGTH
 40
50
  9
$CAMERAHEIGHT
 40
0
  9
$STEPSPERSEC
 40
2
  9
$STEPSIZE
 40
50
  9
$3DDWFPREC
 40
2
  9
$PSOLWIDTH
 40
5
  9
$PSOLHEIGHT
 40
80
  9
$LOFTANG1
 40
1.570796326794897
  9
$LOFTANG2
 40
1.570796326794897
  9
$LOFTMAG1
 40
0
  9
$LOFTMAG2
 40
0
  9
$LOFTPARAM
 70
    7
  9
$LOFTNORMALS
280
    1
  9
$LATITUDE
 40
1
  9
$LONGITUDE
 40
1
  9
$NORTHDIRECTION
 40
0
  9
$TIMEZONE
 70
-8000
  9
$LIGHTGLYPHDISPLAY
280
    1
  9
$TILEMODELIGHTSYNCH
280
    1
  9
$SOLIDHIST
280
    1
  9
$SHOWHIST
280
    1
  9
$DWFFRAME
280
    2
  9
$DGNFRAME
280
    0
  9
$REALWORLDSCALE
290
    1
  9
$INTERFERECOLOR
 62
    1
  9
$CSHADOW
280
    0
  9
$SHADOWPLANELOCATION
 40
0
  0
ENDSEC
  0
SECTION
  2
CLASSES
  0
ENDSEC
  0
SECTION
  2
TABLES
  0
TABLE
  2
VPORT
  5
8
330
0
100
AcDbSymbolTable
 70
    1
  0
VPORT
  5
31
330
2
100
AcDbSymbolTableRecord
100
AcDbViewportTableRecord
  2
*ACTIVE
 70
    0
 10
0
 20
0
 11
1
 21
1
 12
131.6650537203882
 22
243.0739453299475
 13
0
 23
0
 14
10
 24
10
 15
10
 25
10
 16
0
 26
0
 36
1
 17
0
 27
0
 37
0
 40
559.4891672680689
 41
0.7328339575530587
 42
50
 43
0
 44
0
 50
0
 51
0
 71
    0
 72
  100
 73
    1
 74
    3
 75
    0
 76
    0
 77
    0
 78
    0
281
    0
 65
    1
110
0
120
0
130
0
111
1
121
0
131
0
112
0
122
1
132
0
 79
    0
146
0
348
10020
 60
    7
 61
    5
292
1
282
    1
141
0
142
0
 63
  250
421
3358443
  0
ENDTAB
  0
TABLE
  2
LTYPE
  5
5
330
0
100
AcDbSymbolTable
 70
    4
  0
LTYPE
  5
14
330
5
100
AcDbSymbolTableRecord
100
AcDbLinetypeTableRecord
  2
ByBlock
 70
    0
  3

 72
   65
 73
    0
 40
0
  0
LTYPE
  5
15
330
5
100
AcDbSymbolTableRecord
100
AcDbLinetypeTableRecord
  2
ByLayer
 70
    0
  3

 72
   65
 73
    0
 40
0
  0
LTYPE
  5
16
330
5
100
AcDbSymbolTableRecord
100
AcDbLinetypeTableRecord
  2
Continuous
 70
    0
  3
Solid line
 72
   65
 73
    0
 40
0
  0
LTYPE
  5
32
330
5
100
AcDbSymbolTableRecord
100
AcDbLinetypeTableRecord
  2
DOT
 70
    0
  3
Dot . . . . . . . . . . . . . . . . . . . . . .
 72
   65
 73
    2
 40
6.35
 49
0
 74
    0
 49
-6.35
 74
    0
  0
LTYPE
  5
33
330
5
100
AcDbSymbolTableRecord
100
AcDbLinetypeTableRecord
  2
DOTTINY
 70
    0
  3
Dot (.15x) .....................................
 72
   65
 73
    2
 40
0.9525
 49
0
 74
    0
 49
-0.9525
 74
    0
  0
LTYPE
  5
34
330
5
100
AcDbSymbolTableRecord
100
AcDbLinetypeTableRecord
  2
DOT2
 70
    0
  3
Dot (.5x) .....................................
 72
   65
 73
    2
 40
3.175
 49
0
 74
    0
 49
-3.175
 74
    0
  0
LTYPE
  5
35
330
5
100
AcDbSymbolTableRecord
100
AcDbLinetypeTableRecord
  2
DOTX2
 70
    0
  3
Dot (2x) .  .  .  .  .  .  .  .  .  .  .  .  .
 72
   65
 73
    2
 40
12.7
 49
0
 74
    0
 49
-12.7
 74
    0
  0
LTYPE
  5
36
330
5
100
AcDbSymbolTableRecord
100
AcDbLinetypeTableRecord
  2
DASHED
 70
    0
  3
Dashed _ _ _ _ _ _ _ _ _ _ _ _ _ _ _ _ _
 72
   65
 73
    2
 40
19.05
 49
12.7
 74
    0
 49
-6.35
 74
    0
  0
LTYPE
  5
37
330
5
100
AcDbSymbolTableRecord
100
AcDbLinetypeTableRecord
  2
DASHEDTINY
 70
    0
  3
Dashed (.15x) _ _ _ _ _ _ _ _ _ _ _ _ _ _ _ _ _
 72
   65
 73
    2
 40
2.8575
 49
1.905
 74
    0
 49
-0.9525
 74
    0
  0
LTYPE
  5
38
330
5
100
AcDbSymbolTableRecord
100
AcDbLinetypeTableRecord
  2
DASHED2
 70
    0
  3
Dashed (.5x) _ _ _ _ _ _ _ _ _ _ _ _ _ _ _ _ _
 72
   65
 73
    2
 40
9.524999999999999
 49
6.35
 74
    0
 49
-3.175
 74
    0
  0
LTYPE
  5
39
330
5
100
AcDbSymbolTableRecord
100
AcDbLinetypeTableRecord
  2
DASHEDX2
 70
    0
  3
Dashed (2x) ____  ____  ____  ____  ____  ___
 72
   65
 73
    2
 40
38.09999999999999
 49
25.4
 74
    0
 49
-12.7
 74
    0
  0
LTYPE
  5
3A
330
5
100
AcDbSymbolTableRecord
100
AcDbLinetypeTableRecord
  2
DASHDOT
 70
    0
  3
Dash dot __ . __ . __ . __ . __ . __ . __ . __
 72
   65
 73
    4
 40
25.4
 49
12.7
 74
    0
 49
-6.35
 74
    0
 49
0
 74
    0
 49
-6.35
 74
    0
  0
LTYPE
  5
3B
330
5
100
AcDbSymbolTableRecord
100
AcDbLinetypeTableRecord
  2
DASHDOTTINY
 70
    0
  3
Dash dot (.15x) _._._._._._._._._._._._._._._.
 72
   65
 73
    4
 40
3.81
 49
1.905
 74
    0
 49
-0.9525
 74
    0
 49
0
 74
    0
 49
-0.9525
 74
    0
  0
LTYPE
  5
3C
330
5
100
AcDbSymbolTableRecord
100
AcDbLinetypeTableRecord
  2
DASHDOT2
 70
    0
  3
Dash dot (.5x) _._._._._._._._._._._._._._._.
 72
   65
 73
    4
 40
12.7
 49
6.35
 74
    0
 49
-3.175
 74
    0
 49
0
 74
    0
 49
-3.175
 74
    0
  0
LTYPE
  5
3D
330
5
100
AcDbSymbolTableRecord
100
AcDbLinetypeTableRecord
  2
DASHDOTX2
 70
    0
  3
Dash dot (2x) ____  .  ____  .  ____  .  ___
 72
   65
 73
    4
 40
50.8
 49
25.4
 74
    0
 49
-12.7
 74
    0
 49
0
 74
    0
 49
-12.7
 74
    0
  0
LTYPE
  5
3E
330
5
100
AcDbSymbolTableRecord
100
AcDbLinetypeTableRecord
  2
DIVIDE
 70
    0
  3
Divide ____ . . ____ . . ____ . . ____ . . ____
 72
   65
 73
    6
 40
31.75
 49
12.7
 74
    0
 49
-6.35
 74
    0
 49
0
 74
    0
 49
-6.35
 74
    0
 49
0
 74
    0
 49
-6.35
 74
    0
  0
LTYPE
  5
3F
330
5
100
AcDbSymbolTableRecord
100
AcDbLinetypeTableRecord
  2
DIVIDETINY
 70
    0
  3
Divide (.15x) __..__..__..__..__..__..__..__.._
 72
   65
 73
    6
 40
4.7625
 49
1.905
 74
    0
 49
-0.9525
 74
    0
 49
0
 74
    0
 49
-0.9525
 74
    0
 49
0
 74
    0
 49
-0.9525
 74
    0
  0
LTYPE
  5
40
330
5
100
AcDbSymbolTableRecord
100
AcDbLinetypeTableRecord
  2
DIVIDE2
 70
    0
  3
Divide (.5x) __..__..__..__..__..__..__..__.._
 72
   65
 73
    6
 40
15.875
 49
6.35
 74
    0
 49
-3.175
 74
    0
 49
0
 74
    0
 49
-3.175
 74
    0
 49
0
 74
    0
 49
-3.175
 74
    0
  0
LTYPE
  5
41
330
5
100
AcDbSymbolTableRecord
100
AcDbLinetypeTableRecord
  2
DIVIDEX2
 70
    0
  3
Divide (2x) ________  .  .  ________  .  .  _
 72
   65
 73
    6
 40
63.5
 49
25.4
 74
    0
 49
-12.7
 74
    0
 49
0
 74
    0
 49
-12.7
 74
    0
 49
0
 74
    0
 49
-12.7
 74
    0
  0
LTYPE
  5
42
330
5
100
AcDbSymbolTableRecord
100
AcDbLinetypeTableRecord
  2
BORDER
 70
    0
  3
Border __ __ . __ __ . __ __ . __ __ . __ __ .
 72
   65
 73
    6
 40
44.45
 49
12.7
 74
    0
 49
-6.35
 74
    0
 49
12.7
 74
    0
 49
-6.35
 74
    0
 49
0
 74
    0
 49
-6.35
 74
    0
  0
LTYPE
  5
43
330
5
100
AcDbSymbolTableRecord
100
AcDbLinetypeTableRecord
  2
BORDERTINY
 70
    0
  3
Border (.15x) __.__.__.__.__.__.__.__.__.__.__.
 72
   65
 73
    6
 40
6.6675
 49
1.905
 74
    0
 49
-0.9525
 74
    0
 49
1.905
 74
    0
 49
-0.9525
 74
    0
 49
0
 74
    0
 49
-0.9525
 74
    0
  0
LTYPE
  5
44
330
5
100
AcDbSymbolTableRecord
100
AcDbLinetypeTableRecord
  2
BORDER2
 70
    0
  3
Border (.5x) __.__.__.__.__.__.__.__.__.__.__.
 72
   65
 73
    6
 40
22.225
 49
6.35
 74
    0
 49
-3.175
 74
    0
 49
6.35
 74
    0
 49
-3.175
 74
    0
 49
0
 74
    0
 49
-3.175
 74
    0
  0
LTYPE
  5
45
330
5
100
AcDbSymbolTableRecord
100
AcDbLinetypeTableRecord
  2
BORDERX2
 70
    0
  3
Border (2x) ____  ____  .  ____  ____  .  ___
 72
   65
 73
    6
 40
88.89999999999999
 49
25.4
 74
    0
 49
-12.7
 74
    0
 49
25.4
 74
    0
 49
-12.7
 74
    0
 49
0
 74
    0
 49
-12.7
 74
    0
  0
LTYPE
  5
46
330
5
100
AcDbSymbolTableRecord
100
AcDbLinetypeTableRecord
  2
CENTER
 70
    0
  3
Center ____ _ ____ _ ____ _ ____ _ ____ _ ____
 72
   65
 73
    4
 40
50.8
 49
31.75
 74
    0
 49
-6.35
 74
    0
 49
6.35
 74
    0
 49
-6.35
 74
    0
  0
LTYPE
  5
47
330
5
100
AcDbSymbolTableRecord
100
AcDbLinetypeTableRecord
  2
CENTERTINY
 70
    0
  3
Center (.15x) ___ _ ___ _ ___ _ ___ _ ___ _ ___
 72
   65
 73
    4
 40
7.619999999999999
 49
4.7625
 74
    0
 49
-0.9525
 74
    0
 49
0.9525
 74
    0
 49
-0.9525
 74
    0
  0
LTYPE
  5
48
330
5
100
AcDbSymbolTableRecord
100
AcDbLinetypeTableRecord
  2
CENTER2
 70
    0
  3
Center (.5x) ___ _ ___ _ ___ _ ___ _ ___ _ ___
 72
   65
 73
    4
 40
28.575
 49
19.05
 74
    0
 49
-3.175
 74
    0
 49
3.175
 74
    0
 49
-3.175
 74
    0
  0
LTYPE
  5
49
330
5
100
AcDbSymbolTableRecord
100
AcDbLinetypeTableRecord
  2
CENTERX2
 70
    0
  3
Center (2x) ________  __  ________  __  _____
 72
   65
 73
    4
 40
101.6
 49
63.5
 74
    0
 49
-12.7
 74
    0
 49
12.7
 74
    0
 49
-12.7
 74
    0
  0
ENDTAB
  0
TABLE
  2
LAYER
  5
2
330
0
100
AcDbSymbolTable
 70
    1
  0
LAYER
  5
10
330
2
100
AcDbSymbolTableRecord
100
AcDbLayerTableRecord
  2
0
 70
    0
 62
    7
  6
CONTINUOUS
370
   -3
390
F
  0
LAYER
  5
4A
330
2
100
AcDbSymbolTableRecord
100
AcDbLayerTableRecord
  2
BLACK
 70
    0
 62
    7
  6
CONTINUOUS
370
   -3
390
F
  0
LAYER
  5
4B
330
2
100
AcDbSymbolTableRecord
100
AcDbLayerTableRecord
  2
BLUE
 70
    0
 62
    2
  6
CONTINUOUS
370
   -3
390
F
  0
LAYER
  5
4C
330
2
100
AcDbSymbolTableRecord
100
AcDbLayerTableRecord
  2
BROWN
 70
    0
 62
    7
  6
CONTINUOUS
370
   -3
390
F
  0
LAYER
  5
4D
330
2
100
AcDbSymbolTableRecord
100
AcDbLayerTableRecord
  2
CYAN
 70
    0
 62
    4
  6
CONTINUOUS
370
   -3
390
F
  0
LAYER
  5
4E
330
2
100
AcDbSymbolTableRecord
100
AcDbLayerTableRecord
  2
DARKBLUE
 70
    0
 62
   18
  6
CONTINUOUS
370
   -3
390
F
  0
LAYER
  5
4F
330
2
100
AcDbSymbolTableRecord
100
AcDbLayerTableRecord
  2
DARKBROWN
 70
    0
 62
   23
  6
CONTINUOUS
370
   -3
390
F
  0
LAYER
  5
50
330
2
100
AcDbSymbolTableRecord
100
AcDbLayerTableRecord
  2
DARKCYAN
 70
    0
 62
   20
  6
CONTINUOUS
370
   -3
390
F
  0
LAYER
  5
51
330
2
100
AcDbSymbolTableRecord
100
AcDbLayerTableRecord
  2
DARKDARKGRAY
 70
    0
 62
   17
  6
CONTINUOUS
370
   -3
390
F
  0
LAYER
  5
52
330
2
100
AcDbSymbolTableRecord
100
AcDbLayerTableRecord
  2
DARKGRAY
 70
    0
 62
    9
  6
CONTINUOUS
370
   -3
390
F
  0
LAYER
  5
53
330
2
100
AcDbSymbolTableRecord
100
AcDbLayerTableRecord
  2
DARKGREEN
 70
    0
 62
   19
  6
CONTINUOUS
370
   -3
390
F
  0
LAYER
  5
54
330
2
100
AcDbSymbolTableRecord
100
AcDbLayerTableRecord
  2
DARKMAGENTA
 70
    0
 62
   22
  6
CONTINUOUS
370
   -3
390
F
  0
LAYER
  5
55
330
2
100
AcDbSymbolTableRecord
100
AcDbLayerTableRecord
  2
DARKRED
 70
    0
 62
   21
  6
CONTINUOUS
370
   -3
390
F
  0
LAYER
  5
56
330
2
100
AcDbSymbolTableRecord
100
AcDbLayerTableRecord
  2
DEFPOINTS
 70
    0
 62
    7
  6
CONTINUOUS
370
   -3
390
F
  0
LAYER
  5
57
330
2
100
AcDbSymbolTableRecord
100
AcDbLayerTableRecord
  2
GRAY
 70
    0
 62
    8
  6
CONTINUOUS
370
   -3
390
F
  0
LAYER
  5
58
330
2
100
AcDbSymbolTableRecord
100
AcDbLayerTableRecord
  2
GREEN
 70
    0
 62
    3
  6
CONTINUOUS
370
   -3
390
F
  0
LAYER
  5
59
330
2
100
AcDbSymbolTableRecord
100
AcDbLayerTableRecord
  2
LIGHTBLUE
 70
    0
 62
    1
  6
CONTINUOUS
370
   -3
390
F
  0
LAYER
  5
5A
330
2
100
AcDbSymbolTableRecord
100
AcDbLayerTableRecord
  2
LIGHTCYAN
 70
    0
 62
   12
  6
CONTINUOUS
370
   -3
390
F
  0
LAYER
  5
5B
330
2
100
AcDbSymbolTableRecord
100
AcDbLayerTableRecord
  2
LIGHTGREEN
 70
    0
 62
   11
  6
CONTINUOUS
370
   -3
390
F
  0
LAYER
  5
5C
330
2
100
AcDbSymbolTableRecord
100
AcDbLayerTableRecord
  2
LIGHTMAGENTA
 70
    0
 62
   14
  6
CONTINUOUS
370
   -3
390
F
  0
LAYER
  5
5D
330
2
100
AcDbSymbolTableRecord
100
AcDbLayerTableRecord
  2
LIGHTRED
 70
    0
 62
   13
  6
CONTINUOUS
370
   -3
390
F
  0
LAYER
  5
5E
330
2
100
AcDbSymbolTableRecord
100
AcDbLayerTableRecord
  2
LIGHTYELLOW
 70
    0
 62
   24
  6
CONTINUOUS
370
   -3
390
F
  0
LAYER
  5
5F
330
2
100
AcDbSymbolTableRecord
100
AcDbLayerTableRecord
  2
MAGENTA
 70
    0
 62
    6
  6
CONTINUOUS
370
   -3
390
F
  0
LAYER
  5
60
330
2
100
AcDbSymbolTableRecord
100
AcDbLayerTableRecord
  2
RED
 70
    0
 62
    5
  6
CONTINUOUS
370
   -3
390
F
  0
LAYER
  5
61
330
2
100
AcDbSymbolTableRecord
100
AcDbLayerTableRecord
  2
WHITE
 70
    0
 62
   16
  6
CONTINUOUS
370
   -3
390
F
  0
LAYER
  5
62
330
2
100
AcDbSymbolTableRecord
100
AcDbLayerTableRecord
  2
YELLOW
 70
    0
 62
   15
  6
CONTINUOUS
370
   -3
390
F
  0
ENDTAB
  0
TABLE
  2
STYLE
  5
3
330
0
100
AcDbSymbolTable
 70
    3
  0
STYLE
  5
63
330
2
100
AcDbSymbolTableRecord
100
AcDbTextStyleTableRecord
  2
Standard
 70
    0
 40
0
 41
1
 50
0
 71
    0
 42
1
  3
txt
  4

  0
ENDTAB
  0
TABLE
  2
VIEW
  5
6
330
0
100
AcDbSymbolTable
 70
    0
  0
ENDTAB
  0
TABLE
  2
UCS
  5
7
330
0
100
AcDbSymbolTable
 70
    0
  0
ENDTAB
  0
TABLE
  2
APPID
  5
9
330
0
100
AcDbSymbolTable
 70
    1
  0
APPID
  5
12
330
9
100
AcDbSymbolTableRecord
100
AcDbRegAppTableRecord
  2
ACAD
 70
    0
  0
APPID
  5
64
330
9
100
AcDbSymbolTableRecord
100
AcDbRegAppTableRecord
  2
LibreCad
 70
    0
  0
ENDTAB
  0
TABLE
  2
DIMSTYLE
  5
A
330
0
100
AcDbSymbolTable
 70
    1
100
AcDbDimStyleTable
 71
    1
  0
DIMSTYLE
105
65
330
A
100
AcDbSymbolTableRecord
100
AcDbDimStyleTableRecord
  2
Standard
 70
    0
 40
1
 41
0.18
 42
0.0625
 43
0.38
 44
0.18
 45
0
 46
0
 47
0
 48
0
 49
1
140
0.18
141
0.09
142
0
143
25.4
144
1
145
0
146
1
147
0.09
148
0
 71
    0
 72
    0
 73
    1
 74
    1
 75
    0
 76
    0
 77
    0
 78
    0
 79
    0
170
    0
171
    2
172
    0
173
    0
174
    0
175
    0
176
   18
177
   18
178
   18
179
    0
271
    4
272
    4
273
    2
274
    2
275
    0
276
    0
277
    2
278
    0
279
    0
280
    0
281
    0
282
    0
283
    1
284
    0
285
    0
286
    0
288
    0
289
    3
340
STANDARD
341

371
   -2
372
   -2
  0
ENDTAB
  0
TABLE
  2
BLOCK_RECORD
  5
1
330
0
100
AcDbSymbolTable
 70
    2
  0
BLOCK_RECORD
  5
1F
330
1
100
AcDbSymbolTableRecord
100
AcDbBlockTableRecord
  2
*Model_Space
 70
    0
280
    1
281
    0
  0
BLOCK_RECORD
  5
1E
330
1
100
AcDbSymbolTableRecord
100
AcDbBlockTableRecord
  2
*Paper_Space
 70
    0
280
    1
281
    0
  0
ENDTAB
  0
ENDSEC
  0
SECTION
  2
BLOCKS
  0
BLOCK
  5
20
330
1F
100
AcDbEntity
  8
0
100
AcDbBlockBegin
  2
*Model_Space
 70
    0
 10
0
 20
0
 30
0
  3
*Model_Space
  1

  0
ENDBLK
  5
21
330
1F
100
AcDbEntity
  8
0
100
AcDbBlockEnd
  0
BLOCK
  5
1C
330
1B
100
AcDbEntity
  8
0
100
AcDbBlockBegin
  2
*Paper_Space
 70
    0
 10
0
 20
0
 30
0
  3
*Paper_Space
  1

  0
ENDBLK
  5
1D
330
1F
100
AcDbEntity
  8
0
100
AcDbBlockEnd
  0
ENDSEC
  0
SECTION
  2
ENTITIES
  0
CIRCLE
  5
66
100
AcDbEntity
  8
0
  6
ByLayer
 62
  255
370
   -1
100
AcDbCircle
 10
-6.657911539413227
 20
23.19464502128096
 40
1.5
  0
CIRCLE
  5
67
100
AcDbEntity
  8
0
  6
ByLayer
 62
  255
370
   -1
100
AcDbCircle
 10
-92.29525155318089
 20
8.857237571324646
 40
1.5
  0
CIRCLE
  5
68
100
AcDbEntity
  8
0
  6
ByLayer
 62
  255
370
   -1
100
AcDbCircle
 10
-110.4336236752636
 20
101.2235210508919
 40
1.5
  0
CIRCLE
  5
69
100
AcDbEntity
  8
0
  6
ByLayer
 62
  255
370
   -1
100
AcDbCircle
 10
-4.574916677127618
 20
115.4059322889223
 40
1.5
  0
LWPOLYLINE
  5
6A
100
AcDbEntity
  8
0
  6
ByLayer
 62
  255
370
   -1
100
AcDbPolyline
 90
    8
 70
    0
 43
0
 10
-115.3664001910185
 20
130.8004989722943
 10
-115.4669841105581
 20
102.5504513061002
 42
0.0436609429085129
 10
-115.1755064589459
 20
99.07642793703013
 10
-99.86397681245495
 20
10.39521422350532
 42
0.414213562373095
 10
-88.30837197996595
 20
2.242423477058054
 10
-8.192121542909614
 20
16.07514285881363
 42
0.3639702342661989
 10
0.106408029343676
 20
25.89373600676765
 10
0.4784585927807257
 20
130.3880348910766
  0
CIRCLE
  5
6B
100
AcDbEntity
  8
0
  6
ByLayer
 62
  255
370
   -1
100
AcDbCircle
 10
-5.89441899970155
 20
237.629524257986
 40
1.5
  0
CIRCLE
  5
6C
100
AcDbEntity
  8
0
  6
ByLayer
 62
  255
370
   -1
100
AcDbCircle
 10
-91.42749277725704
 20
252.5763816930111
 40
1.5
  0
CIRCLE
  5
6D
100
AcDbEntity
  8
0
  6
ByLayer
 62
  255
370
   -1
100
AcDbCircle
 10
-110.2231345357301
 20
160.341601279362
 40
1.5
  0
CIRCLE
  5
6E
100
AcDbEntity
  8
0
  6
ByLayer
 62
  255
370
   -1
100
AcDbCircle
 10
-4.468102752585182
 20
145.4057421347451
 40
1.5
  0
LWPOLYLINE
  5
6F
100
AcDbEntity
  8
0
  6
ByLayer
 62
  255
370
   -1
100
AcDbPolyline
 90
    8
 70
    0
 43
0
 10
-115.3664001910185
 20
130.8004989722943
 10
-115.2658162714788
 20
159.0505466384884
 42
-0.04366094290851245
 10
-114.949607895405
 20
162.5224063495272
 10
-99.0069778925631
 20
251.0923400426926
 42
-0.4142135623730953
 10
-87.39361096829225
 20
259.1626379728964
 10
-7.377892962022819
 20
244.7597708441371
 42
-0.3639702342661989
 10
0.8505091562177753
 20
234.8823337753856
 10
0.4784585927807257
 20
130.3880348910766
  0
CIRCLE
  5
70
100
AcDbEntity
  8
0
  6
ByLayer
 62
  255
370
   -1
100
AcDbCircle
 10
113.3413278438778
 20
22.76738932311125
 40
1.5
  0
CIRCLE
  5
71
100
AcDbEntity
  8
0
  6
ByLayer
 62
  255
370
   -1
100
AcDbCircle
 10
27.70398783011016
 20
8.429981873154901
 40
1.5
  0
CIRCLE
  5
72
100
AcDbEntity
  8
0
  6
ByLayer
 62
  255
370
   -1
100
AcDbCircle
 10
9.565615708027359
 20
100.7962653527222
 40
1.5
  0
CIRCLE
  5
73
100
AcDbEntity
  8
0
  6
ByLayer
 62
  255
370
   -1
100
AcDbCircle
 10
115.4243227061634
 20
114.9786765907526
 40
1.5
  0
LWPOLYLINE
  5
74
100
AcDbEntity
  8
0
  6
ByLayer
 62
  255
370
   -1
100
AcDbPolyline
 90
    8
 70
    0
 43
0
 10
4.632839192272527
 20
130.3732432741245
 10
4.532255272732908
 20
102.1231956079304
 42
0.04366094290851245
 10
4.82373292434518
 20
98.64917223886044
 10
20.13526257083606
 20
9.967958525335581
 42
0.414213562373095
 10
31.69086740332505
 20
1.815167778888338
 10
111.8071178403814
 20
15.6478871606439
 42
0.3639702342661989
 10
120.1056474126347
 20
25.46648030859794
 10
120.4776979760718
 20
129.9607791929069
  0
CIRCLE
  5
75
100
AcDbEntity
  8
0
  6
ByLayer
 62
  255
370
   -1
100
AcDbCircle
 10
114.1048203835895
 20
237.2022685598162
 40
1.5
  0
CIRCLE
  5
76
100
AcDbEntity
  8
0
  6
ByLayer
 62
  255
370
   -1
100
AcDbCircle
 10
28.57174660603402
 20
252.1491259948414
 40
1.5
  0
CIRCLE
  5
77
100
AcDbEntity
  8
0
  6
ByLayer
 62
  255
370
   -1
100
AcDbCircle
 10
9.776104847560902
 20
159.9143455811922
 40
1.5
  0
CIRCLE
  5
78
100
AcDbEntity
  8
0
  6
ByLayer
 62
  255
370
   -1
100
AcDbCircle
 10
115.5311366307058
 20
144.9784864365754
 40
1.5
  0
LWPOLYLINE
  5
79
100
AcDbEntity
  8
0
  6
ByLayer
 62
  255
370
   -1
100
AcDbPolyline
 90
    8
 70
    0
 43
0
 10
4.632839192272527
 20
130.3732432741245
 10
4.733423111812201
 20
158.6232909403187
 42
-0.0436609429085129
 10
5.049631487886131
 20
162.0951506513575
 10
20.99226149072789
 20
250.6650843445229
 42
-0.4142135623730953
 10
32.60562841499875
 20
258.7353822747267
 10
112.6213464212682
 20
244.3325151459674
 42
-0.3639702342661989
 10
120.8497485395088
 20
234.4550780772159
 10
120.4776979760718
 20
129.9607791929069
  0
LWPOLYLINE
  5
7A
100
AcDbEntity
  8
0
  6
ByLayer
 62
  256
370
   -1
100
AcDbPolyline
 90
   96
 70
    1
 43
0
 10
-88.04025979180244
 20
131.6880186075374
 10
-105.1723669568466
 20
134.7718060093385
 42
-0.4142135623730935
 10
-105.979396749867
 20
135.9331427017655
 10
-102.9589304324249
 20
152.7134669902052
 42
0.4142135623730938
 10
-103.7659602254452
 20
153.8748036826323
 10
-106.3986503997312
 20
154.3486891605888
 42
-0.4142135623730976
 10
-107.2056801927516
 20
155.5100258530159
 10
-103.8309069759028
 20
174.258716626903
 42
-0.4142135623730929
 10
-102.6695702834757
 20
175.0657464199233
 10
-99.7170205553044
 20
174.5342860708132
 42
0.4142135623730966
 10
-98.55568386287729
 20
175.3413158638336
 10
-95.53521754543516
 20
192.1216401522732
 42
-0.4142135623730974
 10
-94.37388085300807
 20
192.9286699452936
 10
-90.43714788211315
 20
192.2200561464802
 42
0.4142135623730958
 10
-89.27581118968607
 20
193.0270859395006
 10
-86.60965177165062
 20
207.8390437424928
 42
0.414213562373095
 10
-87.41668156467097
 20
209.0003804349199
 10
-90.36923129284213
 20
209.5318407840299
 42
-0.414213562373094
 10
-91.17626108586251
 20
210.693177476457
 10
-88.15579476842035
 20
227.4735017648967
 42
0.4142135623731003
 10
-88.96282456144075
 20
228.6348384573237
 10
-89.94700780416451
 20
228.8119919070271
 42
-0.4142135623730961
 10
-90.75403759718489
 20
229.9733285994542
 10
-87.37926438033601
 20
248.7220193733412
 42
-0.4142135623730953
 10
-86.21792768790893
 20
249.5290491663616
 10
-11.22316459236053
 20
236.0299562989661
 42
-0.4142135623730904
 10
-10.41613479934013
 20
234.868619606539
 10
-13.4366011167823
 20
218.0882953180993
 42
0.4142135623730992
 10
-12.62957132376189
 20
216.9269586256723
 10
-11.64538808103817
 20
216.7498051759686
 42
-0.4142135623730943
 10
-10.83835828801785
 20
215.5884684835415
 10
-13.85882460545992
 20
198.8081441951022
 42
0.4142135623730852
 10
-13.05179481243957
 20
197.6468075026751
 10
-10.0992450842684
 20
197.1153471535651
 42
-0.4142135623730943
 10
-9.292215291248027
 20
195.954010461138
 10
-12.66698850809689
 20
177.2053196872509
 42
-0.4142135623730958
 10
-13.82832520052398
 20
176.3982898942305
 10
-17.7650581714189
 20
177.1069036930439
 42
0.4142135623730953
 10
-18.92639486384599
 20
176.2998739000236
 10
-21.94686118128821
 20
159.5195496115839
 42
-0.4142135623730948
 10
-23.1081978737153
 20
158.7125198185635
 10
-26.06074760188646
 20
159.2439801676736
 42
0.4142135623730961
 10
-27.22208429431358
 20
158.4369503746532
 10
-30.24255061175571
 20
141.6566260862136
 42
-0.4142135623730971
 10
-31.4038873041828
 20
140.8495962931932
 10
-71.53395902624295
 20
148.0730282048474
 42
0.4142135623730971
 10
-72.69529571867007
 20
147.2659984118271
 10
-75.65328817029562
 20
130.8327502426941
 42
0.08748866352592301
 10
-75.6545247065187
 20
130.4854560886887
 10
-72.81362649153864
 20
114.0315610463497
 42
0.4142135623730976
 10
-71.65806600828974
 20
113.2162819717049
 10
-31.47757452173332
 20
120.1537691896224
 42
-0.4142135623730963
 10
-30.32201403848444
 20
119.3384901149776
 10
-27.42111503013396
 20
102.5370828839345
 42
0.4142135623730955
 10
-26.26555454688506
 20
101.7218038092897
 10
-23.30929521004464
 20
102.232225922196
 42
-0.4142135623730945
 10
-22.15373472679575
 20
101.4169468475513
 10
-19.25283571844516
 20
84.61553961650803
 42
0.414213562373094
 10
-18.09727523519626
 20
83.80026054186331
 10
-14.15559611940898
 20
84.48082335907166
 42
-0.4142135623730953
 10
-13.00003563616011
 20
83.66554428442691
 10
-9.758855219205376
 20
64.89329749549012
 42
-0.4142135623730932
 10
-10.57413429385011
 20
63.73773701224121
 10
-13.53039363069052
 20
63.22731489933495
 42
0.414213562373094
 10
-14.34567270533528
 20
62.07175441608605
 10
-11.44477369698477
 20
45.27034718504275
 42
-0.4142135623730981
 10
-12.26005277162953
 20
44.11478670179393
 10
-13.24547255057632
 20
43.94464599749168
 42
0.4142135623730919
 10
-14.06075162522102
 20
42.7890855142428
 10
-11.15985261687051
 20
25.98767828319973
 42
-0.4142135623730921
 10
-11.97513169151524
 20
24.83211779995085
 10
-87.06411884726263
 20
11.86739613213213
 42
-0.414213562373094
 10
-88.21967933051155
 20
12.68267520677688
 10
-91.46085974746624
 20
31.45492199571363
 42
-0.4142135623730955
 10
-90.6455806728215
 20
32.61048247896252
 10
-89.66016089387458
 20
32.78062318326459
 42
0.4142135623730896
 10
-88.8448818192299
 20
33.93618366651344
 10
-91.74578082758045
 20
50.73759089755674
 42
-0.4142135623730955
 10
-90.9305017529357
 20
51.89315138080563
 10
-87.97424241609529
 20
52.40357349371187
 42
0.4142135623730935
 10
-87.15896334145054
 20
53.55913397696078
 10
-89.71958094119695
 20
68.38970165011035
 42
0.4142135623730961
 10
-90.87514142444584
 20
69.20498072475509
 10
-94.81682054023305
 20
68.52441790754678
 42
-0.4142135623730971
 10
-95.97238102348194
 20
69.33969698219148
 10
-98.87328003183241
 20
86.14110421323467
 42
0.4142135623730966
 10
-100.0288405150814
 20
86.95638328787942
 10
-102.9850998519218
 20
86.44596117497316
 42
-0.4142135623730966
 10
-104.1406603351708
 20
87.26124024961788
 10
-107.3818407521255
 20
106.0334870385547
 42
-0.4142135623730935
 10
-106.5665616774807
 20
107.1890475218036
 10
-103.930563768798
 20
107.6441739058117
 42
0.414213562373094
 10
-103.1152846941532
 20
108.7997343890606
 10
-106.0161837025037
 20
125.6011416201038
 42
-0.4142135623730945
 10
-105.200904627859
 20
126.7567021033527
 10
-88.04727253720371
 20
129.7184155858669
 42
0.8390996311772783
  0
CIRCLE
  5
7B
100
AcDbEntity
  8
0
  6
ByLayer
 62
  255
370
   -1
100
AcDbCircle
 10
-86.56686868736892
 20
308.7126125513291
 40
1.5
  0
CIRCLE
  5
7C
100
AcDbEntity
  8
0
  6
ByLayer
 62
  255
370
   -1
100
AcDbCircle
 10
-26.76492100473249
 20
378.9336024369395
 40
1.5
  0
LWPOLYLINE
  5
7D
100
AcDbEntity
  8
0
  6
ByLayer
 62
  255
370
   -1
100
AcDbPolyline
 90
    8
 70
    1
 43
0
 10
-65.10827406200949
 20
270.8744857235775
 10
-90.15887120487648
 20
302.3771071026356
 42
-0.3639702342661989
 10
-89.82041788252423
 20
315.2284032946624
 10
-21.89368032506701
 20
391.9823960302482
 10
-14.40511778307289
 20
385.3550714528155
 10
-79.55136253622223
 20
311.7429037507473
 42
0.3639702342661888
 10
-79.72058919739841
 20
305.3172556547341
 10
-57.28125819766336
 20
277.0984573381717
  0
CIRCLE
  5
7E
100
AcDbEntity
  8
0
  6
ByLayer
 62
  255
370
   -1
100
AcDbCircle
 10
-107.1121404158955
 20
308.1041151360525
 40
1.5
  0
CIRCLE
  5
7F
100
AcDbEntity
  8
0
  6
ByLayer
 62
  255
370
   -1
100
AcDbCircle
 10
-47.31019273325896
 20
378.3251050216629
 40
1.5
  0
LWPOLYLINE
  5
80
100
AcDbEntity
  8
0
  6
ByLayer
 62
  255
370
   -1
100
AcDbPolyline
 90
    8
 70
    1
 43
0
 10
-85.65354579053601
 20
270.265988308301
 10
-110.704142933403
 20
301.7686096873591
 42
-0.3639702342661989
 10
-110.3656896110508
 20
314.6199058793858
 10
-42.43895205359355
 20
391.3738986149716
 10
-34.95038951159943
 20
384.7465740375389
 10
-100.0966342647487
 20
311.1344063354707
 42
0.3639702342661888
 10
-100.265860925925
 20
304.7087582394576
 10
-77.82652992618989
 20
276.4899599228951
  0
CIRCLE
  5
81
100
AcDbEntity
  8
0
  6
ByLayer
 62
  255
370
   -1
100
AcDbCircle
 10
-65.66726821126477
 20
310.0285975972619
 40
1.5
  0
CIRCLE
  5
82
100
AcDbEntity
  8
0
  6
ByLayer
 62
  255
370
   -1
100
AcDbCircle
 10
0.8250338157622679
 20
376.6567045658194
 40
1.5
  0
LWPOLYLINE
  5
83
100
AcDbEntity
  8
0
  6
ByLayer
 62
  255
370
   -1
100
AcDbPolyline
 90
   12
 70
    1
 43
0
 10
-33.31791587890407
 20
280.2836900254464
 10
-58.24654177577905
 20
306.3295681070192
 42
-0.4142135623731049
 10
-58.09159629447259
 20
313.3989380858662
 10
2.678225455276662
 20
371.5620050968822
 42
-0.04366094290851201
 10
5.39729517386025
 20
373.7438523545324
 10
28.16054497641637
 20
388.950551657825
 10
22.60565533816771
 20
397.2657907468037
 10
-0.8850836191816693
 20
381.5731015730266
 42
0.0436609429085129
 10
-3.604153337765219
 20
379.3912543153764
 10
-68.61817852208965
 20
317.1660412972496
 42
0.414213562373095
 10
-68.92806948470279
 20
303.0273013395557
 10
-40.54223133905769
 20
273.3692655279061
  0
CIRCLE
  5
84
100
AcDbEntity
  8
0
  6
ByLayer
 62
  255
370
   -1
100
AcDbCircle
 10
-45.74251914939697
 20
308.508301071596
 40
1.5
  0
CIRCLE
  5
85
100
AcDbEntity
  8
0
  6
ByLayer
 62
  255
370
   -1
100
AcDbCircle
 10
20.74978287763014
 20
375.1364080401536
 40
1.5
  0
LWPOLYLINE
  5
86
100
AcDbEntity
  8
0
  6
ByLayer
 62
  255
370
   -1
100
AcDbPolyline
 90
   12
 70
    1
 43
0
 10
-13.39316681703626
 20
278.7633934997806
 10
-38.32179271391117
 20
304.8092715813535
 42
-0.4142135623731049
 10
-38.16684723260467
 20
311.8786415602004
 10
22.60297451714456
 20
370.0417085712163
 42
-0.04366094290851201
 10
25.32204423572806
 20
372.2235558288665
 10
48.08529403828423
 20
387.4302551321592
 10
42.53040440003561
 20
395.7454942211379
 10
19.03966544268617
 20
380.0528050473607
 42
0.0436609429085129
 10
16.32059572410259
 20
377.8709577897106
 10
-48.69342946022183
 20
315.6457447715837
 42
0.414213562373095
 10
-49.00332042283492
 20
301.5070048138899
 10
-20.61748227718988
 20
271.8489690022402
  0
CIRCLE
  5
87
100
AcDbEntity
  8
0
  6
ByLayer
 62
  255
370
   -1
100
AcDbCircle
 10
80.16684814903816
 20
322.2574745999527
 40
1.5
  0
CIRCLE
  5
88
100
AcDbEntity
  8
0
  6
ByLayer
 62
  255
370
   -1
100
AcDbCircle
 10
11.19858305293182
 20
261.0150156618517
 40
1.5
  0
LWPOLYLINE
  5
89
100
AcDbEntity
  8
0
  6
ByLayer
 62
  255
370
   -1
100
AcDbPolyline
 90
    8
 70
    1
 43
0
 10
118.4409855802698
 20
301.5865885757951
 10
86.42665512097631
 20
325.979829775145
 42
0.3639702342661989
 10
73.58511634644661
 20
325.3754736145386
 10
-1.746598522548226
 20
255.8747555538559
 10
5.034292677521087
 20
248.5249586496672
 10
77.28240161074956
 20
315.1807550578341
 42
-0.3639702342661891
 10
83.7031709980143
 20
315.4829331381374
 10
112.3803380058093
 20
293.6324355110001
  0
CIRCLE
  5
8A
100
AcDbEntity
  8
0
  6
ByLayer
 62
  255
370
   -1
100
AcDbCircle
 10
79.46130519283491
 20
342.1300547854171
 40
1.5
  0
CIRCLE
  5
8B
100
AcDbEntity
  8
0
  6
ByLayer
 62
  255
370
   -1
100
AcDbCircle
 10
10.49304009672862
 20
280.887595847316
 40
1.5
  0
LWPOLYLINE
  5
8C
100
AcDbEntity
  8
0
  6
ByLayer
 62
  255
370
   -1
100
AcDbPolyline
 90
    8
 70
    1
 43
0
 10
117.7354426240665
 20
321.4591687612593
 10
85.72111216477305
 20
345.8524099606092
 42
0.3639702342661989
 10
72.87957339024346
 20
345.2480538000029
 10
-2.452141478751429
 20
275.7473357393202
 10
4.328749721317884
 20
268.3975388351315
 10
76.5768586545464
 20
335.0533352432984
 42
-0.3639702342661891
 10
82.99762804181104
 20
335.3555133236017
 10
111.674795049606
 20
313.5050156964643
  0
CIRCLE
  5
8D
100
AcDbEntity
  8
0
  6
ByLayer
 62
  255
370
   -1
100
AcDbCircle
 10
80.34508749924137
 20
369.519631273056
 40
1.5
  0
CIRCLE
  5
8E
100
AcDbEntity
  8
0
  6
ByLayer
 62
  255
370
   -1
100
AcDbCircle
 10
8.881476197139619
 20
308.2539546936772
 40
1.5
  0
LWPOLYLINE
  5
8F
100
AcDbEntity
  8
0
  6
ByLayer
 62
  255
370
   -1
100
AcDbPolyline
 90
   12
 70
    1
 43
0
 10
107.5596207300298
 20
335.0144243643971
 10
83.4726043820278
 20
361.8405272792369
 42
0.4142135623731044
 10
76.41174750741514
 20
362.2203959357963
 10
13.82151778778002
 20
306.0209587209316
 42
0.04366094290851245
 10
11.44037937602689
 20
303.4745931826974
 10
-5.44347868966382
 20
281.925937027569
 10
-13.31503611359374
 20
288.0934797896238
 10
4.108412025588148
 20
310.3308079836392
 42
-0.04366094290851245
 10
6.489550437341293
 20
312.8771735218735
 10
73.45112205494767
 20
373.0016155759949
 42
-0.414213562373095
 10
87.57283580417281
 20
372.2418782628763
 10
115.0003462612015
 20
341.6954125824504
  0
CIRCLE
  5
90
100
AcDbEntity
  8
0
  6
ByLayer
 62
  255
370
   -1
100
AcDbCircle
 10
74.39354400599066
 20
394.9460855280577
 40
1.5
  0
CIRCLE
  5
91
100
AcDbEntity
  8
0
  6
ByLayer
 62
  255
370
   -1
100
AcDbCircle
 10
5.505514582289493
 20
330.7980515037307
 40
1.5
  0
LWPOLYLINE
  5
92
100
AcDbEntity
  8
0
  6
ByLayer
 62
  255
370
   -1
100
AcDbPolyline
 90
   12
 70
    1
 43
0
 10
103.0017788162969
 20
361.5872932265154
 10
77.83369761877353
 20
387.401859714864
 42
0.4142135623731044
 10
70.7631982345122
 20
387.4915171582921
 10
10.53306895529018
 20
328.769756910217
 42
0.04366094290851245
 10
8.258481935310641
 20
326.1277782050087
 10
-7.726437614447242
 20
303.9041063152848
 10
-15.8445730652701
 20
309.74327379037
 10
0.6512074429869692
 20
332.6771905010087
 42
-0.04366094290851245
 10
2.925794462966579
 20
335.3191692062171
 10
67.36243470752387
 20
398.142094956398
 42
-0.414213562373095
 10
81.5034334760461
 20
397.9627800695417
 10
110.1619356439862
 20
368.5681351673485
  0
LWPOLYLINE
  5
93
100
AcDbEntity
  8
0
  6
ByLayer
 62
  256
370
   -1
100
AcDbPolyline
 90
    4
 70
    1
 43
0
 10
122.2508191567302
 20
402.9976752101256
 10
-117.3362133614847
 20
402.9976752101256
 10
-117.3362133614847
 20
-1.228651448811358
 10
122.2508191567302
 20
-1.228651448811358
  0
ENDSEC
  0
SECTION
  2
OBJECTS
  0
DICTIONARY
  5
C
330
0
100
AcDbDictionary
281
    1
  3
ACAD_GROUP
350
D
  0
DICTIONARY
  5
D
330
C
100
AcDbDictionary
281
    1
  0
ENDSEC
  0
EOF
