999
dxfrw 0.6.3
  0
SECTION
  2
HEADER
  9
$ACADVER
  1
AC1021
  9
$DWGCODEPAGE
  3
ANSI_1252
  9
$INSBASE
 10
0
 20
0
 30
0
  9
$EXTMIN
 10
-125
 20
0
 30
0
  9
$EXTMAX
 10
125
 20
115.8455930679138
 30
0
  9
$LIMMIN
 10
0
 20
0
  9
$LIMMAX
 10
12
 20
9
  9
$ORTHOMODE
 70
    0
  9
$REGENMODE
 70
    1
  9
$FILLMODE
 70
    1
  9
$QTEXTMODE
 70
    0
  9
$MIRRTEXT
 70
    1
  9
$LTSCALE
 40
1
  9
$ATTMODE
 70
    1
  9
$TEXTSIZE
 40
0.2
  9
$TRACEWID
 40
0.05
  9
$TEXTSTYLE
  7
STANDARD
  9
$CLAYER
  8
0
  9
$CELTYPE
  6
BYLAYER
  9
$CECOLOR
 62
  255
  9
$CELTSCALE
 40
1
  9
$DISPSILH
 70
    0
  9
$DIMSCALE
 40
1
  9
$DIMASZ
 40
0.18
  9
$DIMEXO
 40
0.0625
  9
$DIMDLI
 40
0.38
  9
$DIMRND
 40
0
  9
$DIMDLE
 40
0
  9
$DIMEXE
 40
0.18
  9
$DIMTP
 40
0
  9
$DIMTM
 40
0
  9
$DIMTXT
 40
0.18
  9
$DIMCEN
 40
0.09
  9
$DIMTSZ
 40
0
  9
$DIMTOL
 70
    0
  9
$DIMLIM
 70
    0
  9
$DIMTIH
 70
    1
  9
$DIMTOH
 70
    1
  9
$DIMSE1
 70
    0
  9
$DIMSE2
 70
    0
  9
$DIMTAD
 70
    0
  9
$DIMZIN
 70
    0
  9
$DIMBLK
  1

  9
$DIMASO
 70
    1
  9
$DIMSHO
 70
    1
  9
$DIMPOST
  1

  9
$DIMAPOST
  1

  9
$DIMALT
 70
    0
  9
$DIMALTD
 70
    2
  9
$DIMALTF
 40
25.4
  9
$DIMLFAC
 40
1
  9
$DIMTOFL
 70
    0
  9
$DIMTVP
 40
0
  9
$DIMTIX
 70
    0
  9
$DIMSOXD
 70
    0
  9
$DIMSAH
 70
    0
  9
$DIMBLK1
  1

  9
$DIMBLK2
  1

  9
$DIMSTYLE
  2
STANDARD
  9
$DIMCLRD
 70
   18
  9
$DIMCLRE
 70
   18
  9
$DIMCLRT
 70
   18
  9
$DIMTFAC
 40
1
  9
$DIMGAP
 40
0.09
  9
$DIMJUST
 70
    0
  9
$DIMSD1
 70
    0
  9
$DIMSD2
 70
    0
  9
$DIMTOLJ
 70
    1
  9
$DIMTZIN
 70
    0
  9
$DIMALTZ
 70
    0
  9
$DIMALTTZ
 70
    0
  9
$DIMUPT
 70
    0
  9
$DIMDEC
 70
    4
  9
$DIMTDEC
 70
    4
  9
$DIMALTU
 70
    2
  9
$DIMALTTD
 70
    2
  9
$DIMTXSTY
  7
standard
  9
$DIMAUNIT
 70
    0
  9
$DIMADEC
 70
    0
  9
$DIMALTRND
 40
0
  9
$DIMAZIN
 70
    0
  9
$DIMDSEP
 70
    0
  9
$DIMATFIT
 70
    3
  9
$DIMFRAC
 70
    0
  9
$DIMLDRBLK
  1
STANDARD
  9
$DIMLUNIT
 70
    2
  9
$DIMLWD
 70
   -2
  9
$DIMLWE
 70
   -2
  9
$DIMTMOVE
 70
    0
  9
$DIMFXL
 40
1
  9
$DIMFXLON
 70
    0
  9
$DIMJOGANG
 40
0.7854
  9
$DIMTFILL
 70
    0
  9
$DIMTFILLCLR
 70
    0
  9
$DIMARCSYM
 70
    0
  9
$DIMLTYPE
  6

  9
$DIMLTEX1
  6

  9
$DIMLTEX2
  6

  9
$LUNITS
 70
    2
  9
$LUPREC
 70
    4
  9
$SKETCHINC
 40
0.1
  9
$FILLETRAD
 40
20
  9
$AUNITS
 70
    0
  9
$AUPREC
 70
    0
  9
$MENU
  1
.
  9
$ELEVATION
 40
0
  9
$PELEVATION
 40
0
  9
$THICKNESS
 40
0
  9
$LIMCHECK
 70
    0
  9
$CHAMFERA
 40
0.5
  9
$CHAMFERB
 40
0.5
  9
$CHAMFERC
 40
1
  9
$CHAMFERD
 40
0
  9
$SKPOLY
 70
    0
  9
$USRTIMER
 70
    1
  9
$ANGBASE
 50
0
  9
$ANGDIR
 70
    0
  9
$PDMODE
 70
    0
  9
$PDSIZE
 40
0
  9
$PLINEWID
 40
0
  9
$SPLFRAME
 70
    0
  9
$SPLINETYPE
 70
    6
  9
$SPLINESEGS
 70
    8
  9
$HANDSEED
  5
20000
  9
$SURFTAB1
 70
    6
  9
$SURFTAB2
 70
    6
  9
$SURFTYPE
 70
    6
  9
$SURFU
 70
    6
  9
$SURFV
 70
    6
  9
$UCSBASE
  2

  9
$UCSNAME
  2

  9
$UCSORG
 10
0
 20
0
 30
0
  9
$UCSXDIR
 10
1
 20
0
 30
0
  9
$UCSYDIR
 10
0
 20
1
 30
0
  9
$UCSORTHOREF
  2

  9
$UCSORTHOVIEW
 70
    0
  9
$UCSORGTOP
 10
0
 20
0
 30
0
  9
$UCSORGBOTTOM
 10
0
 20
0
 30
0
  9
$UCSORGLEFT
 10
0
 20
0
 30
0
  9
$UCSORGRIGHT
 10
0
 20
0
 30
0
  9
$UCSORGFRONT
 10
0
 20
0
 30
0
  9
$UCSORGBACK
 10
0
 20
0
 30
0
  9
$PUCSBASE
  2

  9
$PUCSNAME
  2

  9
$PUCSORG
 10
0
 20
0
 30
0
  9
$PUCSXDIR
 10
1
 20
0
 30
0
  9
$PUCSYDIR
 10
0
 20
1
 30
0
  9
$PUCSORTHOREF
  2

  9
$PUCSORTHOVIEW
 70
    0
  9
$PUCSORGTOP
 10
0
 20
0
 30
0
  9
$PUCSORGBOTTOM
 10
0
 20
0
 30
0
  9
$PUCSORGLEFT
 10
0
 20
0
 30
0
  9
$PUCSORGRIGHT
 10
0
 20
0
 30
0
  9
$PUCSORGFRONT
 10
0
 20
0
 30
0
  9
$PUCSORGBACK
 10
0
 20
0
 30
0
  9
$USERI1
 70
    0
  9
$USERI2
 70
    0
  9
$USERI3
 70
    0
  9
$USERI4
 70
    0
  9
$USERI5
 70
    0
  9
$USERR1
 40
0
  9
$USERR2
 40
0
  9
$USERR3
 40
0
  9
$USERR4
 40
0
  9
$USERR5
 40
0
  9
$WORLDVIEW
 70
    1
  9
$SHADEDGE
 70
    3
  9
$SHADEDIF
 70
   70
  9
$TILEMODE
 70
    1
  9
$MAXACTVP
 70
   64
  9
$PINSBASE
 10
0
 20
0
 30
0
  9
$PLIMCHECK
 70
    0
  9
$PEXTMIN
 10
1e+20
 20
1e+20
 30
1e+20
  9
$PEXTMAX
 10
-1e+20
 20
-1e+20
 30
-1e+20
  9
$GRIDMODE
 70
    1
  9
$SNAPSTYLE
 70
    0
  9
$GRIDUNIT
 10
0.1
 20
0.1
  9
$PLIMMIN
 10
0
 20
0
  9
$PLIMMAX
 10
420
 20
297
  9
$UNITMODE
 70
    0
  9
$VISRETAIN
 70
    1
  9
$PLINEGEN
 70
    0
  9
$PSLTSCALE
 70
    1
  9
$TREEDEPTH
 70
 3020
  9
$CMLSTYLE
  2
STANDARD
  9
$CMLJUST
 70
    0
  9
$CMLSCALE
 40
1
  9
$PROXYGRAPHICS
 70
    1
  9
$MEASUREMENT
 70
    1
  9
$CELWEIGHT
370
   -1
  9
$ENDCAPS
280
    0
  9
$JOINSTYLE
280
    0
  9
$LWDISPLAY
290
    0
  9
$INSUNITS
 70
    4
  9
$HYPERLINKBASE
  1

  9
$STYLESHEET
  1

  9
$XEDIT
290
    1
  9
$CEPSNTYPE
380
    0
  9
$PSTYLEMODE
290
    1
  9
$EXTNAMES
290
    1
  9
$PSVPSCALE
 40
1
  9
$OLESTARTUP
290
    0
  9
$SORTENTS
280
  127
  9
$INDEXCTL
280
    0
  9
$HIDETEXT
280
    1
  9
$XCLIPFRAME
290
    0
  9
$HALOGAP
280
    0
  9
$OBSCOLOR
 70
  257
  9
$OBSLTYPE
280
    0
  9
$INTERSECTIONDISPLAY
280
    0
  9
$INTERSECTIONCOLOR
 70
  257
  9
$DIMASSOC
280
    1
  9
$PROJECTNAME
  1

  9
$CAMERADISPLAY
290
    0
  9
$LENSLENGTH
 40
50
  9
$CAMERAHEIGHT
 40
0
  9
$STEPSPERSEC
 40
2
  9
$STEPSIZE
 40
50
  9
$3DDWFPREC
 40
2
  9
$PSOLWIDTH
 40
5
  9
$PSOLHEIGHT
 40
80
  9
$LOFTANG1
 40
1.570796326794897
  9
$LOFTANG2
 40
1.570796326794897
  9
$LOFTMAG1
 40
0
  9
$LOFTMAG2
 40
0
  9
$LOFTPARAM
 70
    7
  9
$LOFTNORMALS
280
    1
  9
$LATITUDE
 40
1
  9
$LONGITUDE
 40
1
  9
$NORTHDIRECTION
 40
0
  9
$TIMEZONE
 70
-8000
  9
$LIGHTGLYPHDISPLAY
280
    1
  9
$TILEMODELIGHTSYNCH
280
    1
  9
$SOLIDHIST
280
    1
  9
$SHOWHIST
280
    1
  9
$DWFFRAME
280
    2
  9
$DGNFRAME
280
    0
  9
$REALWORLDSCALE
290
    1
  9
$INTERFERECOLOR
 62
    1
  9
$CSHADOW
280
    0
  9
$SHADOWPLANELOCATION
 40
0
  0
ENDSEC
  0
SECTION
  2
CLASSES
  0
ENDSEC
  0
SECTION
  2
TABLES
  0
TABLE
  2
VPORT
  5
8
330
0
100
AcDbSymbolTable
 70
    1
  0
VPORT
  5
31
330
2
100
AcDbSymbolTableRecord
100
AcDbViewportTableRecord
  2
*ACTIVE
 70
    0
 10
0
 20
0
 11
1
 21
1
 12
75.4083117004524
 22
132.7962547960173
 13
0
 23
0
 14
10
 24
10
 15
0.1
 25
0.1
 16
0
 26
0
 36
1
 17
0
 27
0
 37
0
 40
444.1327770004586
 41
0.7328339575530587
 42
50
 43
0
 44
0
 50
0
 51
0
 71
    0
 72
  100
 73
    1
 74
    3
 75
    0
 76
    1
 77
    0
 78
    0
281
    0
 65
    1
110
0
120
0
130
0
111
1
121
0
131
0
112
0
122
1
132
0
 79
    0
146
0
348
10020
 60
    3
 61
    5
292
1
282
    1
141
0
142
0
 63
  250
421
3358443
  0
ENDTAB
  0
TABLE
  2
LTYPE
  5
5
330
0
100
AcDbSymbolTable
 70
    4
  0
LTYPE
  5
14
330
5
100
AcDbSymbolTableRecord
100
AcDbLinetypeTableRecord
  2
ByBlock
 70
    0
  3

 72
   65
 73
    0
 40
0
  0
LTYPE
  5
15
330
5
100
AcDbSymbolTableRecord
100
AcDbLinetypeTableRecord
  2
ByLayer
 70
    0
  3

 72
   65
 73
    0
 40
0
  0
LTYPE
  5
16
330
5
100
AcDbSymbolTableRecord
100
AcDbLinetypeTableRecord
  2
Continuous
 70
    0
  3
Solid line
 72
   65
 73
    0
 40
0
  0
LTYPE
  5
32
330
5
100
AcDbSymbolTableRecord
100
AcDbLinetypeTableRecord
  2
DOT
 70
    0
  3
Dot . . . . . . . . . . . . . . . . . . . . . .
 72
   65
 73
    2
 40
6.35
 49
0
 74
    0
 49
-6.35
 74
    0
  0
LTYPE
  5
33
330
5
100
AcDbSymbolTableRecord
100
AcDbLinetypeTableRecord
  2
DOTTINY
 70
    0
  3
Dot (.15x) .....................................
 72
   65
 73
    2
 40
0.9525
 49
0
 74
    0
 49
-0.9525
 74
    0
  0
LTYPE
  5
34
330
5
100
AcDbSymbolTableRecord
100
AcDbLinetypeTableRecord
  2
DOT2
 70
    0
  3
Dot (.5x) .....................................
 72
   65
 73
    2
 40
3.175
 49
0
 74
    0
 49
-3.175
 74
    0
  0
LTYPE
  5
35
330
5
100
AcDbSymbolTableRecord
100
AcDbLinetypeTableRecord
  2
DOTX2
 70
    0
  3
Dot (2x) .  .  .  .  .  .  .  .  .  .  .  .  .
 72
   65
 73
    2
 40
12.7
 49
0
 74
    0
 49
-12.7
 74
    0
  0
LTYPE
  5
36
330
5
100
AcDbSymbolTableRecord
100
AcDbLinetypeTableRecord
  2
DASHED
 70
    0
  3
Dashed _ _ _ _ _ _ _ _ _ _ _ _ _ _ _ _ _
 72
   65
 73
    2
 40
19.05
 49
12.7
 74
    0
 49
-6.35
 74
    0
  0
LTYPE
  5
37
330
5
100
AcDbSymbolTableRecord
100
AcDbLinetypeTableRecord
  2
DASHEDTINY
 70
    0
  3
Dashed (.15x) _ _ _ _ _ _ _ _ _ _ _ _ _ _ _ _ _
 72
   65
 73
    2
 40
2.8575
 49
1.905
 74
    0
 49
-0.9525
 74
    0
  0
LTYPE
  5
38
330
5
100
AcDbSymbolTableRecord
100
AcDbLinetypeTableRecord
  2
DASHED2
 70
    0
  3
Dashed (.5x) _ _ _ _ _ _ _ _ _ _ _ _ _ _ _ _ _
 72
   65
 73
    2
 40
9.524999999999999
 49
6.35
 74
    0
 49
-3.175
 74
    0
  0
LTYPE
  5
39
330
5
100
AcDbSymbolTableRecord
100
AcDbLinetypeTableRecord
  2
DASHEDX2
 70
    0
  3
Dashed (2x) ____  ____  ____  ____  ____  ___
 72
   65
 73
    2
 40
38.09999999999999
 49
25.4
 74
    0
 49
-12.7
 74
    0
  0
LTYPE
  5
3A
330
5
100
AcDbSymbolTableRecord
100
AcDbLinetypeTableRecord
  2
DASHDOT
 70
    0
  3
Dash dot __ . __ . __ . __ . __ . __ . __ . __
 72
   65
 73
    4
 40
25.4
 49
12.7
 74
    0
 49
-6.35
 74
    0
 49
0
 74
    0
 49
-6.35
 74
    0
  0
LTYPE
  5
3B
330
5
100
AcDbSymbolTableRecord
100
AcDbLinetypeTableRecord
  2
DASHDOTTINY
 70
    0
  3
Dash dot (.15x) _._._._._._._._._._._._._._._.
 72
   65
 73
    4
 40
3.81
 49
1.905
 74
    0
 49
-0.9525
 74
    0
 49
0
 74
    0
 49
-0.9525
 74
    0
  0
LTYPE
  5
3C
330
5
100
AcDbSymbolTableRecord
100
AcDbLinetypeTableRecord
  2
DASHDOT2
 70
    0
  3
Dash dot (.5x) _._._._._._._._._._._._._._._.
 72
   65
 73
    4
 40
12.7
 49
6.35
 74
    0
 49
-3.175
 74
    0
 49
0
 74
    0
 49
-3.175
 74
    0
  0
LTYPE
  5
3D
330
5
100
AcDbSymbolTableRecord
100
AcDbLinetypeTableRecord
  2
DASHDOTX2
 70
    0
  3
Dash dot (2x) ____  .  ____  .  ____  .  ___
 72
   65
 73
    4
 40
50.8
 49
25.4
 74
    0
 49
-12.7
 74
    0
 49
0
 74
    0
 49
-12.7
 74
    0
  0
LTYPE
  5
3E
330
5
100
AcDbSymbolTableRecord
100
AcDbLinetypeTableRecord
  2
DIVIDE
 70
    0
  3
Divide ____ . . ____ . . ____ . . ____ . . ____
 72
   65
 73
    6
 40
31.75
 49
12.7
 74
    0
 49
-6.35
 74
    0
 49
0
 74
    0
 49
-6.35
 74
    0
 49
0
 74
    0
 49
-6.35
 74
    0
  0
LTYPE
  5
3F
330
5
100
AcDbSymbolTableRecord
100
AcDbLinetypeTableRecord
  2
DIVIDETINY
 70
    0
  3
Divide (.15x) __..__..__..__..__..__..__..__.._
 72
   65
 73
    6
 40
4.7625
 49
1.905
 74
    0
 49
-0.9525
 74
    0
 49
0
 74
    0
 49
-0.9525
 74
    0
 49
0
 74
    0
 49
-0.9525
 74
    0
  0
LTYPE
  5
40
330
5
100
AcDbSymbolTableRecord
100
AcDbLinetypeTableRecord
  2
DIVIDE2
 70
    0
  3
Divide (.5x) __..__..__..__..__..__..__..__.._
 72
   65
 73
    6
 40
15.875
 49
6.35
 74
    0
 49
-3.175
 74
    0
 49
0
 74
    0
 49
-3.175
 74
    0
 49
0
 74
    0
 49
-3.175
 74
    0
  0
LTYPE
  5
41
330
5
100
AcDbSymbolTableRecord
100
AcDbLinetypeTableRecord
  2
DIVIDEX2
 70
    0
  3
Divide (2x) ________  .  .  ________  .  .  _
 72
   65
 73
    6
 40
63.5
 49
25.4
 74
    0
 49
-12.7
 74
    0
 49
0
 74
    0
 49
-12.7
 74
    0
 49
0
 74
    0
 49
-12.7
 74
    0
  0
LTYPE
  5
42
330
5
100
AcDbSymbolTableRecord
100
AcDbLinetypeTableRecord
  2
BORDER
 70
    0
  3
Border __ __ . __ __ . __ __ . __ __ . __ __ .
 72
   65
 73
    6
 40
44.45
 49
12.7
 74
    0
 49
-6.35
 74
    0
 49
12.7
 74
    0
 49
-6.35
 74
    0
 49
0
 74
    0
 49
-6.35
 74
    0
  0
LTYPE
  5
43
330
5
100
AcDbSymbolTableRecord
100
AcDbLinetypeTableRecord
  2
BORDERTINY
 70
    0
  3
Border (.15x) __.__.__.__.__.__.__.__.__.__.__.
 72
   65
 73
    6
 40
6.6675
 49
1.905
 74
    0
 49
-0.9525
 74
    0
 49
1.905
 74
    0
 49
-0.9525
 74
    0
 49
0
 74
    0
 49
-0.9525
 74
    0
  0
LTYPE
  5
44
330
5
100
AcDbSymbolTableRecord
100
AcDbLinetypeTableRecord
  2
BORDER2
 70
    0
  3
Border (.5x) __.__.__.__.__.__.__.__.__.__.__.
 72
   65
 73
    6
 40
22.225
 49
6.35
 74
    0
 49
-3.175
 74
    0
 49
6.35
 74
    0
 49
-3.175
 74
    0
 49
0
 74
    0
 49
-3.175
 74
    0
  0
LTYPE
  5
45
330
5
100
AcDbSymbolTableRecord
100
AcDbLinetypeTableRecord
  2
BORDERX2
 70
    0
  3
Border (2x) ____  ____  .  ____  ____  .  ___
 72
   65
 73
    6
 40
88.89999999999999
 49
25.4
 74
    0
 49
-12.7
 74
    0
 49
25.4
 74
    0
 49
-12.7
 74
    0
 49
0
 74
    0
 49
-12.7
 74
    0
  0
LTYPE
  5
46
330
5
100
AcDbSymbolTableRecord
100
AcDbLinetypeTableRecord
  2
CENTER
 70
    0
  3
Center ____ _ ____ _ ____ _ ____ _ ____ _ ____
 72
   65
 73
    4
 40
50.8
 49
31.75
 74
    0
 49
-6.35
 74
    0
 49
6.35
 74
    0
 49
-6.35
 74
    0
  0
LTYPE
  5
47
330
5
100
AcDbSymbolTableRecord
100
AcDbLinetypeTableRecord
  2
CENTERTINY
 70
    0
  3
Center (.15x) ___ _ ___ _ ___ _ ___ _ ___ _ ___
 72
   65
 73
    4
 40
7.619999999999999
 49
4.7625
 74
    0
 49
-0.9525
 74
    0
 49
0.9525
 74
    0
 49
-0.9525
 74
    0
  0
LTYPE
  5
48
330
5
100
AcDbSymbolTableRecord
100
AcDbLinetypeTableRecord
  2
CENTER2
 70
    0
  3
Center (.5x) ___ _ ___ _ ___ _ ___ _ ___ _ ___
 72
   65
 73
    4
 40
28.575
 49
19.05
 74
    0
 49
-3.175
 74
    0
 49
3.175
 74
    0
 49
-3.175
 74
    0
  0
LTYPE
  5
49
330
5
100
AcDbSymbolTableRecord
100
AcDbLinetypeTableRecord
  2
CENTERX2
 70
    0
  3
Center (2x) ________  __  ________  __  _____
 72
   65
 73
    4
 40
101.6
 49
63.5
 74
    0
 49
-12.7
 74
    0
 49
12.7
 74
    0
 49
-12.7
 74
    0
  0
ENDTAB
  0
TABLE
  2
LAYER
  5
2
330
0
100
AcDbSymbolTable
 70
    1
  0
LAYER
  5
10
330
2
100
AcDbSymbolTableRecord
100
AcDbLayerTableRecord
  2
0
 70
    0
 62
    7
  6
CONTINUOUS
370
   -3
390
F
  0
LAYER
  5
4A
330
2
100
AcDbSymbolTableRecord
100
AcDbLayerTableRecord
  2
BLACK
 70
    0
 62
    7
  6
CONTINUOUS
370
   -3
390
F
  0
LAYER
  5
4B
330
2
100
AcDbSymbolTableRecord
100
AcDbLayerTableRecord
  2
BLUE
 70
    0
 62
    2
  6
CONTINUOUS
370
   -3
390
F
  0
LAYER
  5
4C
330
2
100
AcDbSymbolTableRecord
100
AcDbLayerTableRecord
  2
BROWN
 70
    0
 62
    7
  6
CONTINUOUS
370
   -3
390
F
  0
LAYER
  5
4D
330
2
100
AcDbSymbolTableRecord
100
AcDbLayerTableRecord
  2
CYAN
 70
    0
 62
    4
  6
CONTINUOUS
370
   -3
390
F
  0
LAYER
  5
4E
330
2
100
AcDbSymbolTableRecord
100
AcDbLayerTableRecord
  2
DARKBLUE
 70
    0
 62
   18
  6
CONTINUOUS
370
   -3
390
F
  0
LAYER
  5
4F
330
2
100
AcDbSymbolTableRecord
100
AcDbLayerTableRecord
  2
DARKBROWN
 70
    0
 62
   23
  6
CONTINUOUS
370
   -3
390
F
  0
LAYER
  5
50
330
2
100
AcDbSymbolTableRecord
100
AcDbLayerTableRecord
  2
DARKCYAN
 70
    0
 62
   20
  6
CONTINUOUS
370
   -3
390
F
  0
LAYER
  5
51
330
2
100
AcDbSymbolTableRecord
100
AcDbLayerTableRecord
  2
DARKDARKGRAY
 70
    0
 62
   17
  6
CONTINUOUS
370
   -3
390
F
  0
LAYER
  5
52
330
2
100
AcDbSymbolTableRecord
100
AcDbLayerTableRecord
  2
DARKGRAY
 70
    0
 62
    9
  6
CONTINUOUS
370
   -3
390
F
  0
LAYER
  5
53
330
2
100
AcDbSymbolTableRecord
100
AcDbLayerTableRecord
  2
DARKGREEN
 70
    0
 62
   19
  6
CONTINUOUS
370
   -3
390
F
  0
LAYER
  5
54
330
2
100
AcDbSymbolTableRecord
100
AcDbLayerTableRecord
  2
DARKMAGENTA
 70
    0
 62
   22
  6
CONTINUOUS
370
   -3
390
F
  0
LAYER
  5
55
330
2
100
AcDbSymbolTableRecord
100
AcDbLayerTableRecord
  2
DARKRED
 70
    0
 62
   21
  6
CONTINUOUS
370
   -3
390
F
  0
LAYER
  5
56
330
2
100
AcDbSymbolTableRecord
100
AcDbLayerTableRecord
  2
DEFPOINTS
 70
    0
 62
    7
  6
CONTINUOUS
370
   -3
390
F
  0
LAYER
  5
57
330
2
100
AcDbSymbolTableRecord
100
AcDbLayerTableRecord
  2
GRAY
 70
    0
 62
    8
  6
CONTINUOUS
370
   -3
390
F
  0
LAYER
  5
58
330
2
100
AcDbSymbolTableRecord
100
AcDbLayerTableRecord
  2
GREEN
 70
    0
 62
    3
  6
CONTINUOUS
370
   -3
390
F
  0
LAYER
  5
59
330
2
100
AcDbSymbolTableRecord
100
AcDbLayerTableRecord
  2
LIGHTBLUE
 70
    0
 62
    1
  6
CONTINUOUS
370
   -3
390
F
  0
LAYER
  5
5A
330
2
100
AcDbSymbolTableRecord
100
AcDbLayerTableRecord
  2
LIGHTCYAN
 70
    0
 62
   12
  6
CONTINUOUS
370
   -3
390
F
  0
LAYER
  5
5B
330
2
100
AcDbSymbolTableRecord
100
AcDbLayerTableRecord
  2
LIGHTGREEN
 70
    0
 62
   11
  6
CONTINUOUS
370
   -3
390
F
  0
LAYER
  5
5C
330
2
100
AcDbSymbolTableRecord
100
AcDbLayerTableRecord
  2
LIGHTMAGENTA
 70
    0
 62
   14
  6
CONTINUOUS
370
   -3
390
F
  0
LAYER
  5
5D
330
2
100
AcDbSymbolTableRecord
100
AcDbLayerTableRecord
  2
LIGHTRED
 70
    0
 62
   13
  6
CONTINUOUS
370
   -3
390
F
  0
LAYER
  5
5E
330
2
100
AcDbSymbolTableRecord
100
AcDbLayerTableRecord
  2
LIGHTYELLOW
 70
    0
 62
   24
  6
CONTINUOUS
370
   -3
390
F
  0
LAYER
  5
5F
330
2
100
AcDbSymbolTableRecord
100
AcDbLayerTableRecord
  2
MAGENTA
 70
    0
 62
    6
  6
CONTINUOUS
370
   -3
390
F
  0
LAYER
  5
60
330
2
100
AcDbSymbolTableRecord
100
AcDbLayerTableRecord
  2
RED
 70
    0
 62
    5
  6
CONTINUOUS
370
   -3
390
F
  0
LAYER
  5
61
330
2
100
AcDbSymbolTableRecord
100
AcDbLayerTableRecord
  2
WHITE
 70
    0
 62
   16
  6
CONTINUOUS
370
   -3
390
F
  0
LAYER
  5
62
330
2
100
AcDbSymbolTableRecord
100
AcDbLayerTableRecord
  2
YELLOW
 70
    0
 62
   15
  6
CONTINUOUS
370
   -3
390
F
  0
ENDTAB
  0
TABLE
  2
STYLE
  5
3
330
0
100
AcDbSymbolTable
 70
    3
  0
STYLE
  5
63
330
2
100
AcDbSymbolTableRecord
100
AcDbTextStyleTableRecord
  2
Standard
 70
    0
 40
0
 41
1
 50
0
 71
    0
 42
1
  3
txt
  4

  0
ENDTAB
  0
TABLE
  2
VIEW
  5
6
330
0
100
AcDbSymbolTable
 70
    0
  0
ENDTAB
  0
TABLE
  2
UCS
  5
7
330
0
100
AcDbSymbolTable
 70
    0
  0
ENDTAB
  0
TABLE
  2
APPID
  5
9
330
0
100
AcDbSymbolTable
 70
    1
  0
APPID
  5
12
330
9
100
AcDbSymbolTableRecord
100
AcDbRegAppTableRecord
  2
ACAD
 70
    0
  0
APPID
  5
64
330
9
100
AcDbSymbolTableRecord
100
AcDbRegAppTableRecord
  2
LibreCad
 70
    0
  0
ENDTAB
  0
TABLE
  2
DIMSTYLE
  5
A
330
0
100
AcDbSymbolTable
 70
    1
100
AcDbDimStyleTable
 71
    1
  0
DIMSTYLE
105
65
330
A
100
AcDbSymbolTableRecord
100
AcDbDimStyleTableRecord
  2
Standard
 70
    0
 40
1
 41
0.18
 42
0.0625
 43
0.38
 44
0.18
 45
0
 46
0
 47
0
 48
0
 49
1
140
0.18
141
0.09
142
0
143
25.4
144
1
145
0
146
1
147
0.09
148
0
 71
    0
 72
    0
 73
    1
 74
    1
 75
    0
 76
    0
 77
    0
 78
    0
 79
    0
170
    0
171
    2
172
    0
173
    0
174
    0
175
    0
176
   18
177
   18
178
   18
179
    0
271
    4
272
    4
273
    2
274
    2
275
    0
276
    0
277
    2
278
    0
279
    0
280
    0
281
    0
282
    0
283
    1
284
    0
285
    0
286
    0
288
    0
289
    3
340
standard
341

371
   -2
372
   -2
  0
ENDTAB
  0
TABLE
  2
BLOCK_RECORD
  5
1
330
0
100
AcDbSymbolTable
 70
    2
  0
BLOCK_RECORD
  5
1F
330
1
100
AcDbSymbolTableRecord
100
AcDbBlockTableRecord
  2
*Model_Space
 70
    0
280
    1
281
    0
  0
BLOCK_RECORD
  5
1E
330
1
100
AcDbSymbolTableRecord
100
AcDbBlockTableRecord
  2
*Paper_Space
 70
    0
280
    1
281
    0
  0
BLOCK_RECORD
  5
66
330
1
100
AcDbSymbolTableRecord
100
AcDbBlockTableRecord
  2
*D1
 70
    0
280
    1
281
    0
  0
ENDTAB
  0
ENDSEC
  0
SECTION
  2
BLOCKS
  0
BLOCK
  5
20
330
1F
100
AcDbEntity
  8
0
100
AcDbBlockBegin
  2
*Model_Space
 70
    0
 10
0
 20
0
 30
0
  3
*Model_Space
  1

  0
ENDBLK
  5
21
330
1F
100
AcDbEntity
  8
0
100
AcDbBlockEnd
  0
BLOCK
  5
1C
330
1B
100
AcDbEntity
  8
0
100
AcDbBlockBegin
  2
*Paper_Space
 70
    0
 10
0
 20
0
 30
0
  3
*Paper_Space
  1

  0
ENDBLK
  5
1D
330
1F
100
AcDbEntity
  8
0
100
AcDbBlockEnd
  0
BLOCK
  5
67
330
66
100
AcDbEntity
  8
0
100
AcDbBlockBegin
  2
*D1
 70
    1
 10
0
 20
0
  3
*D1
  1

  0
SOLID
  5
69
100
AcDbEntity
  8
0
  6
ByBlock
 62
   18
370
   -2
100
AcDbTrace
 10
8.05631053498991
 20
20.31631168183537
 30
0
 11
8.129661891338781
 21
20.48339827315815
 31
0
 12
8.17984726910759
 22
20.45061367661438
 32
0
 13
8.17984726910759
 23
20.45061367661438
 33
0
  0
LINE
  5
6A
100
AcDbEntity
  8
0
  6
ByBlock
 62
   18
370
   -2
100
AcDbLine
 10
11.87648640140338
 20
26.16408744272702
 11
8.05631053498991
 21
20.31631168183537
  0
MTEXT
  5
6B
100
AcDbEntity
  8
0
  6
CONTINUOUS
 62
   18
370
   -2
100
AcDbMText
 10
9.815704175145749
 20
23.33864360751447
 30
0
 40
0.18
 41
0.7000000000000224
 71
    5
 72
    1
  1
6.9850
  7
standard
210
0
220
0
230
1
 50
56.84462353040804
 73
    2
 44
1
  0
ENDBLK
  5
68
330
66
100
AcDbEntity
  8
0
100
AcDbBlockEnd
  0
ENDSEC
  0
SECTION
  2
ENTITIES
  0
POINT
  5
6C
100
AcDbEntity
  8
0
  6
ByLayer
 62
  256
370
   -1
100
AcDbPoint
 10
0
 20
0
  0
LINE
  5
6D
100
AcDbEntity
  8
0
  6
CONTINUOUS
 62
    7
370
   -1
100
AcDbLine
 10
24.19925831276969
 20
25.75774101362752
 11
37.95702262235025
 21
28.18360605563454
  0
LINE
  5
6E
100
AcDbEntity
  8
0
  6
CONTINUOUS
 62
    7
370
   -1
100
AcDbLine
 10
37.95702262235025
 20
28.18360605563454
 11
38.12727424166202
 21
27.21806114227126
  0
LINE
  5
6F
100
AcDbEntity
  8
0
  6
CONTINUOUS
 62
    7
370
   -1
100
AcDbLine
 10
38.12727424166202
 20
27.21806114227126
 11
38.92772598331032
 21
27.35920238107894
  0
LINE
  5
70
100
AcDbEntity
  8
0
  6
CONTINUOUS
 62
    7
370
   -1
100
AcDbLine
 10
38.92772598331032
 20
27.35920238107894
 11
39.5355154429259
 21
23.91225706860584
  0
LINE
  5
71
100
AcDbEntity
  8
0
  6
CONTINUOUS
 62
    7
370
   -1
100
AcDbLine
 10
39.5355154429259
 20
23.91225706860584
 11
38.7350637012776
 21
23.77111582979816
  0
LINE
  5
72
100
AcDbEntity
  8
0
  6
CONTINUOUS
 62
    7
370
   -1
100
AcDbLine
 10
38.7350637012776
 20
23.77111582979816
 11
39.60484658542993
 21
18.83833197189039
  0
LINE
  5
73
100
AcDbEntity
  8
0
  6
CONTINUOUS
 62
    7
370
   -1
100
AcDbLine
 10
39.60484658542993
 20
18.83833197189039
 11
40.40529832707823
 21
18.97947321069806
  0
LINE
  5
74
100
AcDbEntity
  8
0
  6
CONTINUOUS
 62
    7
370
   -1
100
AcDbLine
 10
40.40529832707823
 20
18.97947321069806
 11
41.01308778669382
 21
15.53252789822496
  0
LINE
  5
75
100
AcDbEntity
  8
0
  6
CONTINUOUS
 62
    7
370
   -1
100
AcDbLine
 10
41.01308778669382
 20
15.53252789822496
 11
40.21263604504551
 21
15.39138665941729
  0
LINE
  5
76
100
AcDbEntity
  8
0
  6
CONTINUOUS
 62
    7
370
   -1
100
AcDbLine
 10
40.21263604504551
 20
15.39138665941729
 11
40.38288766435727
 21
14.42584174605401
  0
LINE
  5
77
100
AcDbEntity
  8
0
  6
CONTINUOUS
 62
    7
370
   -1
100
AcDbLine
 10
40.38288766435727
 20
14.42584174605401
 11
26.6251233547767
 21
11.99997670404699
  0
LINE
  5
78
100
AcDbEntity
  8
0
  6
CONTINUOUS
 62
    7
370
   -1
100
AcDbLine
 10
26.6251233547767
 20
11.99997670404699
 11
26.45487173546493
 21
12.96552161741027
  0
LINE
  5
79
100
AcDbEntity
  8
0
  6
CONTINUOUS
 62
    7
370
   -1
100
AcDbLine
 10
26.45487173546493
 20
12.96552161741027
 11
25.65441999381663
 21
12.82438037860259
  0
LINE
  5
7A
100
AcDbEntity
  8
0
  6
CONTINUOUS
 62
    7
370
   -1
100
AcDbLine
 10
25.65441999381663
 20
12.82438037860259
 11
25.04663053420105
 21
16.27132569107568
  0
LINE
  5
7B
100
AcDbEntity
  8
0
  6
CONTINUOUS
 62
    7
370
   -1
100
AcDbLine
 10
25.04663053420105
 20
16.27132569107568
 11
25.84708227584936
 21
16.41246692988336
  0
LINE
  5
7C
100
AcDbEntity
  8
0
  6
CONTINUOUS
 62
    7
370
   -1
100
AcDbLine
 10
25.84708227584936
 20
16.41246692988336
 11
24.97729939169702
 21
21.34525078779114
  0
LINE
  5
7D
100
AcDbEntity
  8
0
  6
CONTINUOUS
 62
    7
370
   -1
100
AcDbLine
 10
24.97729939169702
 20
21.34525078779114
 11
24.17684765004872
 21
21.20410954898346
  0
LINE
  5
7E
100
AcDbEntity
  8
0
  6
CONTINUOUS
 62
    7
370
   -1
100
AcDbLine
 10
24.17684765004872
 20
21.20410954898346
 11
23.56905819043314
 21
24.65105486145656
  0
LINE
  5
7F
100
AcDbEntity
  8
0
  6
CONTINUOUS
 62
    7
370
   -1
100
AcDbLine
 10
23.56905819043314
 20
24.65105486145656
 11
24.36950993208145
 21
24.79219610026424
  0
LINE
  5
80
100
AcDbEntity
  8
0
  6
CONTINUOUS
 62
    7
370
   -1
100
AcDbLine
 10
24.36950993208145
 20
24.79219610026424
 11
24.19925831276969
 21
25.75774101362752
  0
LINE
  5
81
100
AcDbEntity
  8
0
  6
CONTINUOUS
 62
    7
370
   -1
100
AcDbLine
 10
3.784671725609606
 20
31.83003707651378
 11
17.54243603519018
 21
34.2559021185208
  0
LINE
  5
82
100
AcDbEntity
  8
0
  6
CONTINUOUS
 62
    7
370
   -1
100
AcDbLine
 10
17.54243603519018
 20
34.2559021185208
 11
17.71268765450194
 21
33.29035720515753
  0
LINE
  5
83
100
AcDbEntity
  8
0
  6
CONTINUOUS
 62
    7
370
   -1
100
AcDbLine
 10
17.71268765450194
 20
33.29035720515753
 11
18.51313939615024
 21
33.43149844396521
  0
LINE
  5
84
100
AcDbEntity
  8
0
  6
CONTINUOUS
 62
    7
370
   -1
100
AcDbLine
 10
18.51313939615024
 20
33.43149844396521
 11
19.12092885576582
 21
29.9845531314921
  0
LINE
  5
85
100
AcDbEntity
  8
0
  6
CONTINUOUS
 62
    7
370
   -1
100
AcDbLine
 10
19.12092885576582
 20
29.9845531314921
 11
18.32047711411752
 21
29.84341189268444
  0
LINE
  5
86
100
AcDbEntity
  8
0
  6
CONTINUOUS
 62
    7
370
   -1
100
AcDbLine
 10
18.32047711411752
 20
29.84341189268444
 11
19.19025999826985
 21
24.91062803477665
  0
LINE
  5
87
100
AcDbEntity
  8
0
  6
CONTINUOUS
 62
    7
370
   -1
100
AcDbLine
 10
19.19025999826985
 20
24.91062803477665
 11
19.99071173991815
 21
25.05176927358433
  0
LINE
  5
88
100
AcDbEntity
  8
0
  6
CONTINUOUS
 62
    7
370
   -1
100
AcDbLine
 10
19.99071173991815
 20
25.05176927358433
 11
20.59850119953373
 21
21.60482396111123
  0
LINE
  5
89
100
AcDbEntity
  8
0
  6
CONTINUOUS
 62
    7
370
   -1
100
AcDbLine
 10
20.59850119953373
 20
21.60482396111123
 11
19.79804945788543
 21
21.46368272230355
  0
LINE
  5
8A
100
AcDbEntity
  8
0
  6
CONTINUOUS
 62
    7
370
   -1
100
AcDbLine
 10
19.79804945788543
 20
21.46368272230355
 11
19.96830107719719
 21
20.49813780894027
  0
LINE
  5
8B
100
AcDbEntity
  8
0
  6
CONTINUOUS
 62
    7
370
   -1
100
AcDbLine
 10
19.96830107719719
 20
20.49813780894027
 11
6.21053676761662
 21
18.07227276693325
  0
LINE
  5
8C
100
AcDbEntity
  8
0
  6
CONTINUOUS
 62
    7
370
   -1
100
AcDbLine
 10
6.21053676761662
 20
18.07227276693325
 11
6.040285148304857
 21
19.03781768029653
  0
LINE
  5
8D
100
AcDbEntity
  8
0
  6
CONTINUOUS
 62
    7
370
   -1
100
AcDbLine
 10
6.040285148304857
 20
19.03781768029653
 11
5.239833406656548
 21
18.89667644148885
  0
LINE
  5
8E
100
AcDbEntity
  8
0
  6
CONTINUOUS
 62
    7
370
   -1
100
AcDbLine
 10
5.239833406656548
 20
18.89667644148885
 11
4.632043947040973
 21
22.34362175396195
  0
LINE
  5
8F
100
AcDbEntity
  8
0
  6
CONTINUOUS
 62
    7
370
   -1
100
AcDbLine
 10
4.632043947040973
 20
22.34362175396195
 11
5.432495688689279
 21
22.48476299276963
  0
LINE
  5
90
100
AcDbEntity
  8
0
  6
CONTINUOUS
 62
    7
370
   -1
100
AcDbLine
 10
5.432495688689279
 20
22.48476299276963
 11
4.562712804536947
 21
27.41754685067741
  0
LINE
  5
91
100
AcDbEntity
  8
0
  6
CONTINUOUS
 62
    7
370
   -1
100
AcDbLine
 10
4.562712804536947
 20
27.41754685067741
 11
3.762261062888641
 21
27.27640561186973
  0
LINE
  5
92
100
AcDbEntity
  8
0
  6
CONTINUOUS
 62
    7
370
   -1
100
AcDbLine
 10
3.762261062888641
 20
27.27640561186973
 11
3.154471603273063
 21
30.72335092434283
  0
LINE
  5
93
100
AcDbEntity
  8
0
  6
CONTINUOUS
 62
    7
370
   -1
100
AcDbLine
 10
3.154471603273063
 20
30.72335092434283
 11
3.954923344921369
 21
30.86449216315051
  0
LINE
  5
94
100
AcDbEntity
  8
0
  6
CONTINUOUS
 62
    7
370
   -1
100
AcDbLine
 10
3.954923344921369
 20
30.86449216315051
 11
3.784671725609606
 21
31.83003707651378
  0
LINE
  5
95
100
AcDbEntity
  8
0
  6
CONTINUOUS
 62
    7
370
   -1
100
AcDbLine
 10
38.78360733476256
 20
52.75036525812614
 11
52.54137164434314
 21
55.17623030013316
  0
LINE
  5
96
100
AcDbEntity
  8
0
  6
CONTINUOUS
 62
    7
370
   -1
100
AcDbLine
 10
52.54137164434314
 20
55.17623030013316
 11
52.7116232636549
 21
54.21068538676989
  0
LINE
  5
97
100
AcDbEntity
  8
0
  6
CONTINUOUS
 62
    7
370
   -1
100
AcDbLine
 10
52.7116232636549
 20
54.21068538676989
 11
53.5120750053032
 21
54.35182662557756
  0
LINE
  5
98
100
AcDbEntity
  8
0
  6
CONTINUOUS
 62
    7
370
   -1
100
AcDbLine
 10
53.5120750053032
 20
54.35182662557756
 11
54.11986446491879
 21
50.90488131310446
  0
LINE
  5
99
100
AcDbEntity
  8
0
  6
CONTINUOUS
 62
    7
370
   -1
100
AcDbLine
 10
54.11986446491879
 20
50.90488131310446
 11
53.31941272327049
 21
50.76374007429678
  0
LINE
  5
9A
100
AcDbEntity
  8
0
  6
CONTINUOUS
 62
    7
370
   -1
100
AcDbLine
 10
53.31941272327049
 20
50.76374007429678
 11
54.18919560742282
 21
45.830956216389
  0
LINE
  5
9B
100
AcDbEntity
  8
0
  6
CONTINUOUS
 62
    7
370
   -1
100
AcDbLine
 10
54.18919560742282
 20
45.830956216389
 11
54.98964734907112
 21
45.97209745519668
  0
LINE
  5
9C
100
AcDbEntity
  8
0
  6
CONTINUOUS
 62
    7
370
   -1
100
AcDbLine
 10
54.98964734907112
 20
45.97209745519668
 11
55.59743680868669
 21
42.52515214272359
  0
LINE
  5
9D
100
AcDbEntity
  8
0
  6
CONTINUOUS
 62
    7
370
   -1
100
AcDbLine
 10
55.59743680868669
 20
42.52515214272359
 11
54.79698506703839
 21
42.38401090391591
  0
LINE
  5
9E
100
AcDbEntity
  8
0
  6
CONTINUOUS
 62
    7
370
   -1
100
AcDbLine
 10
54.79698506703839
 20
42.38401090391591
 11
54.96723668635016
 21
41.41846599055264
  0
LINE
  5
9F
100
AcDbEntity
  8
0
  6
CONTINUOUS
 62
    7
370
   -1
100
AcDbLine
 10
54.96723668635016
 20
41.41846599055264
 11
41.20947237676958
 21
38.99260094854561
  0
LINE
  5
A0
100
AcDbEntity
  8
0
  6
CONTINUOUS
 62
    7
370
   -1
100
AcDbLine
 10
41.20947237676958
 20
38.99260094854561
 11
41.03922075745782
 21
39.95814586190888
  0
LINE
  5
A1
100
AcDbEntity
  8
0
  6
CONTINUOUS
 62
    7
370
   -1
100
AcDbLine
 10
41.03922075745782
 20
39.95814586190888
 11
40.23876901580952
 21
39.8170046231012
  0
LINE
  5
A2
100
AcDbEntity
  8
0
  6
CONTINUOUS
 62
    7
370
   -1
100
AcDbLine
 10
40.23876901580952
 20
39.8170046231012
 11
39.63097955619394
 21
43.26394993557431
  0
LINE
  5
A3
100
AcDbEntity
  8
0
  6
CONTINUOUS
 62
    7
370
   -1
100
AcDbLine
 10
39.63097955619394
 20
43.26394993557431
 11
40.43143129784224
 21
43.40509117438199
  0
LINE
  5
A4
100
AcDbEntity
  8
0
  6
CONTINUOUS
 62
    7
370
   -1
100
AcDbLine
 10
40.43143129784224
 20
43.40509117438199
 11
39.56164841368991
 21
48.33787503228976
  0
LINE
  5
A5
100
AcDbEntity
  8
0
  6
CONTINUOUS
 62
    7
370
   -1
100
AcDbLine
 10
39.56164841368991
 20
48.33787503228976
 11
38.76119667204161
 21
48.19673379348209
  0
LINE
  5
A6
100
AcDbEntity
  8
0
  6
CONTINUOUS
 62
    7
370
   -1
100
AcDbLine
 10
38.76119667204161
 20
48.19673379348209
 11
38.15340721242603
 21
51.64367910595519
  0
LINE
  5
A7
100
AcDbEntity
  8
0
  6
CONTINUOUS
 62
    7
370
   -1
100
AcDbLine
 10
38.15340721242603
 20
51.64367910595519
 11
38.95385895407433
 21
51.78482034476287
  0
LINE
  5
A8
100
AcDbEntity
  8
0
  6
CONTINUOUS
 62
    7
370
   -1
100
AcDbLine
 10
38.95385895407433
 20
51.78482034476287
 11
38.78360733476256
 21
52.75036525812614
  0
LINE
  5
A9
100
AcDbEntity
  8
0
  6
CONTINUOUS
 62
    7
370
   -1
100
AcDbLine
 10
35.47560955020755
 20
71.5109529530087
 11
49.23337385978812
 21
73.93681799501572
  0
LINE
  5
AA
100
AcDbEntity
  8
0
  6
CONTINUOUS
 62
    7
370
   -1
100
AcDbLine
 10
49.23337385978812
 20
73.93681799501572
 11
49.40362547909989
 21
72.97127308165244
  0
LINE
  5
AB
100
AcDbEntity
  8
0
  6
CONTINUOUS
 62
    7
370
   -1
100
AcDbLine
 10
49.40362547909989
 20
72.97127308165244
 11
50.20407722074819
 21
73.11241432046012
  0
LINE
  5
AC
100
AcDbEntity
  8
0
  6
CONTINUOUS
 62
    7
370
   -1
100
AcDbLine
 10
50.20407722074819
 20
73.11241432046012
 11
50.81186668036376
 21
69.66546900798701
  0
LINE
  5
AD
100
AcDbEntity
  8
0
  6
CONTINUOUS
 62
    7
370
   -1
100
AcDbLine
 10
50.81186668036376
 20
69.66546900798701
 11
50.01141493871546
 21
69.52432776917934
  0
LINE
  5
AE
100
AcDbEntity
  8
0
  6
CONTINUOUS
 62
    7
370
   -1
100
AcDbLine
 10
50.01141493871546
 20
69.52432776917934
 11
50.8811978228678
 21
64.59154391127156
  0
LINE
  5
AF
100
AcDbEntity
  8
0
  6
CONTINUOUS
 62
    7
370
   -1
100
AcDbLine
 10
50.8811978228678
 20
64.59154391127156
 11
51.68164956451609
 21
64.73268515007923
  0
LINE
  5
B0
100
AcDbEntity
  8
0
  6
CONTINUOUS
 62
    7
370
   -1
100
AcDbLine
 10
51.68164956451609
 20
64.73268515007923
 11
52.28943902413168
 21
61.28573983760615
  0
LINE
  5
B1
100
AcDbEntity
  8
0
  6
CONTINUOUS
 62
    7
370
   -1
100
AcDbLine
 10
52.28943902413168
 20
61.28573983760615
 11
51.48898728248338
 21
61.14459859879847
  0
LINE
  5
B2
100
AcDbEntity
  8
0
  6
CONTINUOUS
 62
    7
370
   -1
100
AcDbLine
 10
51.48898728248338
 20
61.14459859879847
 11
51.65923890179513
 21
60.17905368543517
  0
LINE
  5
B3
100
AcDbEntity
  8
0
  6
CONTINUOUS
 62
    7
370
   -1
100
AcDbLine
 10
51.65923890179513
 20
60.17905368543517
 11
37.90147459221456
 21
57.75318864342817
  0
LINE
  5
B4
100
AcDbEntity
  8
0
  6
CONTINUOUS
 62
    7
370
   -1
100
AcDbLine
 10
37.90147459221456
 20
57.75318864342817
 11
37.7312229729028
 21
58.71873355679145
  0
LINE
  5
B5
100
AcDbEntity
  8
0
  6
CONTINUOUS
 62
    7
370
   -1
100
AcDbLine
 10
37.7312229729028
 20
58.71873355679145
 11
36.9307712312545
 21
58.57759231798378
  0
LINE
  5
B6
100
AcDbEntity
  8
0
  6
CONTINUOUS
 62
    7
370
   -1
100
AcDbLine
 10
36.9307712312545
 20
58.57759231798378
 11
36.32298177163892
 21
62.02453763045687
  0
LINE
  5
B7
100
AcDbEntity
  8
0
  6
CONTINUOUS
 62
    7
370
   -1
100
AcDbLine
 10
36.32298177163892
 20
62.02453763045687
 11
37.12343351328722
 21
62.16567886926455
  0
LINE
  5
B8
100
AcDbEntity
  8
0
  6
CONTINUOUS
 62
    7
370
   -1
100
AcDbLine
 10
37.12343351328722
 20
62.16567886926455
 11
36.25365062913489
 21
67.0984627271723
  0
LINE
  5
B9
100
AcDbEntity
  8
0
  6
CONTINUOUS
 62
    7
370
   -1
100
AcDbLine
 10
36.25365062913489
 20
67.0984627271723
 11
35.45319888748659
 21
66.95732148836464
  0
LINE
  5
BA
100
AcDbEntity
  8
0
  6
CONTINUOUS
 62
    7
370
   -1
100
AcDbLine
 10
35.45319888748659
 20
66.95732148836464
 11
34.845409427871
 21
70.40426680083775
  0
LINE
  5
BB
100
AcDbEntity
  8
0
  6
CONTINUOUS
 62
    7
370
   -1
100
AcDbLine
 10
34.845409427871
 20
70.40426680083775
 11
35.64586116951931
 21
70.54540803964542
  0
LINE
  5
BC
100
AcDbEntity
  8
0
  6
CONTINUOUS
 62
    7
370
   -1
100
AcDbLine
 10
35.64586116951931
 20
70.54540803964542
 11
35.47560955020755
 21
71.5109529530087
  0
LINE
  5
BD
100
AcDbEntity
  8
0
  6
CONTINUOUS
 62
    7
370
   -1
100
AcDbLine
 10
32.16761176565252
 20
90.27154064789124
 11
45.9253760752331
 21
92.69740568989828
  0
LINE
  5
BE
100
AcDbEntity
  8
0
  6
CONTINUOUS
 62
    7
370
   -1
100
AcDbLine
 10
45.9253760752331
 20
92.69740568989828
 11
46.09562769454486
 21
91.731860776535
  0
LINE
  5
BF
100
AcDbEntity
  8
0
  6
CONTINUOUS
 62
    7
370
   -1
100
AcDbLine
 10
46.09562769454486
 20
91.731860776535
 11
46.89607943619316
 21
91.87300201534268
  0
LINE
  5
C0
100
AcDbEntity
  8
0
  6
CONTINUOUS
 62
    7
370
   -1
100
AcDbLine
 10
46.89607943619316
 20
91.87300201534268
 11
47.50386889580874
 21
88.42605670286957
  0
LINE
  5
C1
100
AcDbEntity
  8
0
  6
CONTINUOUS
 62
    7
370
   -1
100
AcDbLine
 10
47.50386889580874
 20
88.42605670286957
 11
46.70341715416044
 21
88.2849154640619
  0
LINE
  5
C2
100
AcDbEntity
  8
0
  6
CONTINUOUS
 62
    7
370
   -1
100
AcDbLine
 10
46.70341715416044
 20
88.2849154640619
 11
47.57320003831278
 21
83.35213160615412
  0
LINE
  5
C3
100
AcDbEntity
  8
0
  6
CONTINUOUS
 62
    7
370
   -1
100
AcDbLine
 10
47.57320003831278
 20
83.35213160615412
 11
48.37365177996108
 21
83.49327284496179
  0
LINE
  5
C4
100
AcDbEntity
  8
0
  6
CONTINUOUS
 62
    7
370
   -1
100
AcDbLine
 10
48.37365177996108
 20
83.49327284496179
 11
48.98144123957665
 21
80.0463275324887
  0
LINE
  5
C5
100
AcDbEntity
  8
0
  6
CONTINUOUS
 62
    7
370
   -1
100
AcDbLine
 10
48.98144123957665
 20
80.0463275324887
 11
48.18098949792835
 21
79.90518629368103
  0
LINE
  5
C6
100
AcDbEntity
  8
0
  6
CONTINUOUS
 62
    7
370
   -1
100
AcDbLine
 10
48.18098949792835
 20
79.90518629368103
 11
48.35124111724011
 21
78.93964138031774
  0
LINE
  5
C7
100
AcDbEntity
  8
0
  6
CONTINUOUS
 62
    7
370
   -1
100
AcDbLine
 10
48.35124111724011
 20
78.93964138031774
 11
34.59347680765954
 21
76.51377633831072
  0
LINE
  5
C8
100
AcDbEntity
  8
0
  6
CONTINUOUS
 62
    7
370
   -1
100
AcDbLine
 10
34.59347680765954
 20
76.51377633831072
 11
34.42322518834777
 21
77.47932125167399
  0
LINE
  5
C9
100
AcDbEntity
  8
0
  6
CONTINUOUS
 62
    7
370
   -1
100
AcDbLine
 10
34.42322518834777
 20
77.47932125167399
 11
33.62277344669947
 21
77.33818001286632
  0
LINE
  5
CA
100
AcDbEntity
  8
0
  6
CONTINUOUS
 62
    7
370
   -1
100
AcDbLine
 10
33.62277344669947
 20
77.33818001286632
 11
33.01498398708389
 21
80.78512532533941
  0
LINE
  5
CB
100
AcDbEntity
  8
0
  6
CONTINUOUS
 62
    7
370
   -1
100
AcDbLine
 10
33.01498398708389
 20
80.78512532533941
 11
33.8154357287322
 21
80.92626656414708
  0
LINE
  5
CC
100
AcDbEntity
  8
0
  6
CONTINUOUS
 62
    7
370
   -1
100
AcDbLine
 10
33.8154357287322
 20
80.92626656414708
 11
32.94565284457987
 21
85.85905042205486
  0
LINE
  5
CD
100
AcDbEntity
  8
0
  6
CONTINUOUS
 62
    7
370
   -1
100
AcDbLine
 10
32.94565284457987
 20
85.85905042205486
 11
32.14520110293157
 21
85.71790918324719
  0
LINE
  5
CE
100
AcDbEntity
  8
0
  6
CONTINUOUS
 62
    7
370
   -1
100
AcDbLine
 10
32.14520110293157
 20
85.71790918324719
 11
31.53741164331598
 21
89.16485449572029
  0
LINE
  5
CF
100
AcDbEntity
  8
0
  6
CONTINUOUS
 62
    7
370
   -1
100
AcDbLine
 10
31.53741164331598
 20
89.16485449572029
 11
32.33786338496429
 21
89.30599573452797
  0
LINE
  5
D0
100
AcDbEntity
  8
0
  6
CONTINUOUS
 62
    7
370
   -1
100
AcDbLine
 10
32.33786338496429
 20
89.30599573452797
 11
32.16761176565252
 21
90.27154064789124
  0
LINE
  5
D1
100
AcDbEntity
  8
0
  6
CONTINUOUS
 62
    7
370
   -1
100
AcDbLine
 10
42.09160511931759
 20
33.98977756324359
 11
55.84936942889817
 21
36.4156426052506
  0
LINE
  5
D2
100
AcDbEntity
  8
0
  6
CONTINUOUS
 62
    7
370
   -1
100
AcDbLine
 10
55.84936942889817
 20
36.4156426052506
 11
56.01962104820993
 21
35.45009769188732
  0
LINE
  5
D3
100
AcDbEntity
  8
0
  6
CONTINUOUS
 62
    7
370
   -1
100
AcDbLine
 10
56.01962104820993
 20
35.45009769188732
 11
56.82007278985823
 21
35.59123893069501
  0
LINE
  5
D4
100
AcDbEntity
  8
0
  6
CONTINUOUS
 62
    7
370
   -1
100
AcDbLine
 10
56.82007278985823
 20
35.59123893069501
 11
57.4278622494738
 21
32.1442936182219
  0
LINE
  5
D5
100
AcDbEntity
  8
0
  6
CONTINUOUS
 62
    7
370
   -1
100
AcDbLine
 10
57.4278622494738
 20
32.1442936182219
 11
56.6274105078255
 21
32.00315237941423
  0
LINE
  5
D6
100
AcDbEntity
  8
0
  6
CONTINUOUS
 62
    7
370
   -1
100
AcDbLine
 10
56.6274105078255
 20
32.00315237941423
 11
57.49719339197785
 21
27.07036852150645
  0
LINE
  5
D7
100
AcDbEntity
  8
0
  6
CONTINUOUS
 62
    7
370
   -1
100
AcDbLine
 10
57.49719339197785
 20
27.07036852150645
 11
58.29764513362615
 21
27.21150976031412
  0
LINE
  5
D8
100
AcDbEntity
  8
0
  6
CONTINUOUS
 62
    7
370
   -1
100
AcDbLine
 10
58.29764513362615
 20
27.21150976031412
 11
58.90543459324172
 21
23.76456444784102
  0
LINE
  5
D9
100
AcDbEntity
  8
0
  6
CONTINUOUS
 62
    7
370
   -1
100
AcDbLine
 10
58.90543459324172
 20
23.76456444784102
 11
58.10498285159342
 21
23.62342320903335
  0
LINE
  5
DA
100
AcDbEntity
  8
0
  6
CONTINUOUS
 62
    7
370
   -1
100
AcDbLine
 10
58.10498285159342
 20
23.62342320903335
 11
58.27523447090518
 21
22.65787829567007
  0
LINE
  5
DB
100
AcDbEntity
  8
0
  6
CONTINUOUS
 62
    7
370
   -1
100
AcDbLine
 10
58.27523447090518
 20
22.65787829567007
 11
44.51747016132461
 21
20.23201325366305
  0
LINE
  5
DC
100
AcDbEntity
  8
0
  6
CONTINUOUS
 62
    7
370
   -1
100
AcDbLine
 10
44.51747016132461
 20
20.23201325366305
 11
44.34721854201284
 21
21.19755816702633
  0
LINE
  5
DD
100
AcDbEntity
  8
0
  6
CONTINUOUS
 62
    7
370
   -1
100
AcDbLine
 10
44.34721854201284
 20
21.19755816702633
 11
43.54676680036454
 21
21.05641692821865
  0
LINE
  5
DE
100
AcDbEntity
  8
0
  6
CONTINUOUS
 62
    7
370
   -1
100
AcDbLine
 10
43.54676680036454
 20
21.05641692821865
 11
42.93897734074896
 21
24.50336224069175
  0
LINE
  5
DF
100
AcDbEntity
  8
0
  6
CONTINUOUS
 62
    7
370
   -1
100
AcDbLine
 10
42.93897734074896
 20
24.50336224069175
 11
43.73942908239727
 21
24.64450347949943
  0
LINE
  5
E0
100
AcDbEntity
  8
0
  6
CONTINUOUS
 62
    7
370
   -1
100
AcDbLine
 10
43.73942908239727
 20
24.64450347949943
 11
42.86964619824494
 21
29.57728733740721
  0
LINE
  5
E1
100
AcDbEntity
  8
0
  6
CONTINUOUS
 62
    7
370
   -1
100
AcDbLine
 10
42.86964619824494
 20
29.57728733740721
 11
42.06919445659663
 21
29.43614609859953
  0
LINE
  5
E2
100
AcDbEntity
  8
0
  6
CONTINUOUS
 62
    7
370
   -1
100
AcDbLine
 10
42.06919445659663
 20
29.43614609859953
 11
41.46140499698105
 21
32.88309141107263
  0
LINE
  5
E3
100
AcDbEntity
  8
0
  6
CONTINUOUS
 62
    7
370
   -1
100
AcDbLine
 10
41.46140499698105
 20
32.88309141107263
 11
42.26185673862935
 21
33.0242326498803
  0
LINE
  5
E4
100
AcDbEntity
  8
0
  6
CONTINUOUS
 62
    7
370
   -1
100
AcDbLine
 10
42.26185673862935
 20
33.0242326498803
 11
42.09160511931759
 21
33.98977756324359
  0
LINE
  5
E5
100
AcDbEntity
  8
0
  6
CONTINUOUS
 62
    7
370
   -1
100
AcDbLine
 10
56.50230596364355
 20
61.96720956075442
 11
70.26007027322412
 21
64.39307460276144
  0
LINE
  5
E6
100
AcDbEntity
  8
0
  6
CONTINUOUS
 62
    7
370
   -1
100
AcDbLine
 10
70.26007027322412
 20
64.39307460276144
 11
70.43032189253589
 21
63.42752968939815
  0
LINE
  5
E7
100
AcDbEntity
  8
0
  6
CONTINUOUS
 62
    7
370
   -1
100
AcDbLine
 10
70.43032189253589
 20
63.42752968939815
 11
71.23077363418419
 21
63.56867092820581
  0
LINE
  5
E8
100
AcDbEntity
  8
0
  6
CONTINUOUS
 62
    7
370
   -1
100
AcDbLine
 10
71.23077363418419
 20
63.56867092820581
 11
71.83856309379976
 21
60.12172561573274
  0
LINE
  5
E9
100
AcDbEntity
  8
0
  6
CONTINUOUS
 62
    7
370
   -1
100
AcDbLine
 10
71.83856309379976
 20
60.12172561573274
 11
71.03811135215146
 21
59.98058437692506
  0
LINE
  5
EA
100
AcDbEntity
  8
0
  6
CONTINUOUS
 62
    7
370
   -1
100
AcDbLine
 10
71.03811135215146
 20
59.98058437692506
 11
71.90789423630379
 21
55.04780051901728
  0
LINE
  5
EB
100
AcDbEntity
  8
0
  6
CONTINUOUS
 62
    7
370
   -1
100
AcDbLine
 10
71.90789423630379
 20
55.04780051901728
 11
72.70834597795209
 21
55.18894175782495
  0
LINE
  5
EC
100
AcDbEntity
  8
0
  6
CONTINUOUS
 62
    7
370
   -1
100
AcDbLine
 10
72.70834597795209
 20
55.18894175782495
 11
73.31613543756768
 21
51.74199644535185
  0
LINE
  5
ED
100
AcDbEntity
  8
0
  6
CONTINUOUS
 62
    7
370
   -1
100
AcDbLine
 10
73.31613543756768
 20
51.74199644535185
 11
72.51568369591938
 21
51.60085520654417
  0
LINE
  5
EE
100
AcDbEntity
  8
0
  6
CONTINUOUS
 62
    7
370
   -1
100
AcDbLine
 10
72.51568369591938
 20
51.60085520654417
 11
72.68593531523113
 21
50.6353102931809
  0
LINE
  5
EF
100
AcDbEntity
  8
0
  6
CONTINUOUS
 62
    7
370
   -1
100
AcDbLine
 10
72.68593531523113
 20
50.6353102931809
 11
58.92817100565057
 21
48.20944525117388
  0
LINE
  5
F0
100
AcDbEntity
  8
0
  6
CONTINUOUS
 62
    7
370
   -1
100
AcDbLine
 10
58.92817100565057
 20
48.20944525117388
 11
58.7579193863388
 21
49.17499016453715
  0
LINE
  5
F1
100
AcDbEntity
  8
0
  6
CONTINUOUS
 62
    7
370
   -1
100
AcDbLine
 10
58.7579193863388
 20
49.17499016453715
 11
57.9574676446905
 21
49.03384892572948
  0
LINE
  5
F2
100
AcDbEntity
  8
0
  6
CONTINUOUS
 62
    7
370
   -1
100
AcDbLine
 10
57.9574676446905
 20
49.03384892572948
 11
57.34967818507491
 21
52.48079423820258
  0
LINE
  5
F3
100
AcDbEntity
  8
0
  6
CONTINUOUS
 62
    7
370
   -1
100
AcDbLine
 10
57.34967818507491
 20
52.48079423820258
 11
58.15012992672322
 21
52.62193547701026
  0
LINE
  5
F4
100
AcDbEntity
  8
0
  6
CONTINUOUS
 62
    7
370
   -1
100
AcDbLine
 10
58.15012992672322
 20
52.62193547701026
 11
57.2803470425709
 21
57.55471933491804
  0
LINE
  5
F5
100
AcDbEntity
  8
0
  6
CONTINUOUS
 62
    7
370
   -1
100
AcDbLine
 10
57.2803470425709
 20
57.55471933491804
 11
56.47989530092258
 21
57.41357809611036
  0
LINE
  5
F6
100
AcDbEntity
  8
0
  6
CONTINUOUS
 62
    7
370
   -1
100
AcDbLine
 10
56.47989530092258
 20
57.41357809611036
 11
55.872105841307
 21
60.86052340858345
  0
LINE
  5
F7
100
AcDbEntity
  8
0
  6
CONTINUOUS
 62
    7
370
   -1
100
AcDbLine
 10
55.872105841307
 20
60.86052340858345
 11
56.67255758295531
 21
61.00166464739113
  0
LINE
  5
F8
100
AcDbEntity
  8
0
  6
CONTINUOUS
 62
    7
370
   -1
100
AcDbLine
 10
56.67255758295531
 20
61.00166464739113
 11
56.50230596364355
 21
61.96720956075442
  0
LINE
  5
F9
100
AcDbEntity
  8
0
  6
CONTINUOUS
 62
    7
370
   -1
100
AcDbLine
 10
53.19430817908852
 20
80.72779725563696
 11
66.9520724886691
 21
83.15366229764398
  0
LINE
  5
FA
100
AcDbEntity
  8
0
  6
CONTINUOUS
 62
    7
370
   -1
100
AcDbLine
 10
66.9520724886691
 20
83.15366229764398
 11
67.12232410798086
 21
82.1881173842807
  0
LINE
  5
FB
100
AcDbEntity
  8
0
  6
CONTINUOUS
 62
    7
370
   -1
100
AcDbLine
 10
67.12232410798086
 20
82.1881173842807
 11
67.92277584962916
 21
82.32925862308838
  0
LINE
  5
FC
100
AcDbEntity
  8
0
  6
CONTINUOUS
 62
    7
370
   -1
100
AcDbLine
 10
67.92277584962916
 20
82.32925862308838
 11
68.53056530924475
 21
78.88231331061529
  0
LINE
  5
FD
100
AcDbEntity
  8
0
  6
CONTINUOUS
 62
    7
370
   -1
100
AcDbLine
 10
68.53056530924475
 20
78.88231331061529
 11
67.73011356759645
 21
78.74117207180761
  0
LINE
  5
FE
100
AcDbEntity
  8
0
  6
CONTINUOUS
 62
    7
370
   -1
100
AcDbLine
 10
67.73011356759645
 20
78.74117207180761
 11
68.59989645174878
 21
73.80838821389983
  0
LINE
  5
FF
100
AcDbEntity
  8
0
  6
CONTINUOUS
 62
    7
370
   -1
100
AcDbLine
 10
68.59989645174878
 20
73.80838821389983
 11
69.40034819339708
 21
73.94952945270751
  0
LINE
  5
100
100
AcDbEntity
  8
0
  6
CONTINUOUS
 62
    7
370
   -1
100
AcDbLine
 10
69.40034819339708
 20
73.94952945270751
 11
70.00813765301265
 21
70.5025841402344
  0
LINE
  5
101
100
AcDbEntity
  8
0
  6
CONTINUOUS
 62
    7
370
   -1
100
AcDbLine
 10
70.00813765301265
 20
70.5025841402344
 11
69.20768591136435
 21
70.36144290142673
  0
LINE
  5
102
100
AcDbEntity
  8
0
  6
CONTINUOUS
 62
    7
370
   -1
100
AcDbLine
 10
69.20768591136435
 20
70.36144290142673
 11
69.37793753067612
 21
69.39589798806345
  0
LINE
  5
103
100
AcDbEntity
  8
0
  6
CONTINUOUS
 62
    7
370
   -1
100
AcDbLine
 10
69.37793753067612
 20
69.39589798806345
 11
55.62017322109554
 21
66.97003294605643
  0
LINE
  5
104
100
AcDbEntity
  8
0
  6
CONTINUOUS
 62
    7
370
   -1
100
AcDbLine
 10
55.62017322109554
 20
66.97003294605643
 11
55.44992160178379
 21
67.93557785941969
  0
LINE
  5
105
100
AcDbEntity
  8
0
  6
CONTINUOUS
 62
    7
370
   -1
100
AcDbLine
 10
55.44992160178379
 20
67.93557785941969
 11
54.64946986013547
 21
67.79443662061203
  0
LINE
  5
106
100
AcDbEntity
  8
0
  6
CONTINUOUS
 62
    7
370
   -1
100
AcDbLine
 10
54.64946986013547
 20
67.79443662061203
 11
54.04168040051989
 21
71.24138193308514
  0
LINE
  5
107
100
AcDbEntity
  8
0
  6
CONTINUOUS
 62
    7
370
   -1
100
AcDbLine
 10
54.04168040051989
 20
71.24138193308514
 11
54.8421321421682
 21
71.38252317189281
  0
LINE
  5
108
100
AcDbEntity
  8
0
  6
CONTINUOUS
 62
    7
370
   -1
100
AcDbLine
 10
54.8421321421682
 20
71.38252317189281
 11
53.97234925801587
 21
76.31530702980058
  0
LINE
  5
109
100
AcDbEntity
  8
0
  6
CONTINUOUS
 62
    7
370
   -1
100
AcDbLine
 10
53.97234925801587
 20
76.31530702980058
 11
53.17189751636757
 21
76.1741657909929
  0
LINE
  5
10A
100
AcDbEntity
  8
0
  6
CONTINUOUS
 62
    7
370
   -1
100
AcDbLine
 10
53.17189751636757
 20
76.1741657909929
 11
52.56410805675198
 21
79.62111110346601
  0
LINE
  5
10B
100
AcDbEntity
  8
0
  6
CONTINUOUS
 62
    7
370
   -1
100
AcDbLine
 10
52.56410805675198
 20
79.62111110346601
 11
53.36455979840029
 21
79.76225234227368
  0
LINE
  5
10C
100
AcDbEntity
  8
0
  6
CONTINUOUS
 62
    7
370
   -1
100
AcDbLine
 10
53.36455979840029
 20
79.76225234227368
 11
53.19430817908852
 21
80.72779725563696
  0
LINE
  5
10D
100
AcDbEntity
  8
0
  6
CONTINUOUS
 62
    7
370
   -1
100
AcDbLine
 10
49.88631039453351
 20
99.48838495051952
 11
63.64407470411408
 21
101.9142499925265
  0
LINE
  5
10E
100
AcDbEntity
  8
0
  6
CONTINUOUS
 62
    7
370
   -1
100
AcDbLine
 10
63.64407470411408
 20
101.9142499925265
 11
63.81432632342585
 21
100.9487050791633
  0
LINE
  5
10F
100
AcDbEntity
  8
0
  6
CONTINUOUS
 62
    7
370
   -1
100
AcDbLine
 10
63.81432632342585
 20
100.9487050791633
 11
64.61477806507415
 21
101.0898463179709
  0
LINE
  5
110
100
AcDbEntity
  8
0
  6
CONTINUOUS
 62
    7
370
   -1
100
AcDbLine
 10
64.61477806507415
 20
101.0898463179709
 11
65.22256752468972
 21
97.64290100549785
  0
LINE
  5
111
100
AcDbEntity
  8
0
  6
CONTINUOUS
 62
    7
370
   -1
100
AcDbLine
 10
65.22256752468972
 20
97.64290100549785
 11
64.42211578304142
 21
97.50175976669017
  0
LINE
  5
112
100
AcDbEntity
  8
0
  6
CONTINUOUS
 62
    7
370
   -1
100
AcDbLine
 10
64.42211578304142
 20
97.50175976669017
 11
65.29189866719375
 21
92.56897590878239
  0
LINE
  5
113
100
AcDbEntity
  8
0
  6
CONTINUOUS
 62
    7
370
   -1
100
AcDbLine
 10
65.29189866719375
 20
92.56897590878239
 11
66.09235040884205
 21
92.71011714759007
  0
LINE
  5
114
100
AcDbEntity
  8
0
  6
CONTINUOUS
 62
    7
370
   -1
100
AcDbLine
 10
66.09235040884205
 20
92.71011714759007
 11
66.70013986845763
 21
89.26317183511696
  0
LINE
  5
115
100
AcDbEntity
  8
0
  6
CONTINUOUS
 62
    7
370
   -1
100
AcDbLine
 10
66.70013986845763
 20
89.26317183511696
 11
65.89968812680932
 21
89.12203059630929
  0
LINE
  5
116
100
AcDbEntity
  8
0
  6
CONTINUOUS
 62
    7
370
   -1
100
AcDbLine
 10
65.89968812680932
 20
89.12203059630929
 11
66.06993974612109
 21
88.15648568294601
  0
LINE
  5
117
100
AcDbEntity
  8
0
  6
CONTINUOUS
 62
    7
370
   -1
100
AcDbLine
 10
66.06993974612109
 20
88.15648568294601
 11
52.31217543654051
 21
85.73062064093899
  0
LINE
  5
118
100
AcDbEntity
  8
0
  6
CONTINUOUS
 62
    7
370
   -1
100
AcDbLine
 10
52.31217543654051
 20
85.73062064093899
 11
52.14192381722876
 21
86.69616555430227
  0
LINE
  5
119
100
AcDbEntity
  8
0
  6
CONTINUOUS
 62
    7
370
   -1
100
AcDbLine
 10
52.14192381722876
 20
86.69616555430227
 11
51.34147207558044
 21
86.55502431549459
  0
LINE
  5
11A
100
AcDbEntity
  8
0
  6
CONTINUOUS
 62
    7
370
   -1
100
AcDbLine
 10
51.34147207558044
 20
86.55502431549459
 11
50.73368261596487
 21
90.0019696279677
  0
LINE
  5
11B
100
AcDbEntity
  8
0
  6
CONTINUOUS
 62
    7
370
   -1
100
AcDbLine
 10
50.73368261596487
 20
90.0019696279677
 11
51.53413435761318
 21
90.14311086677537
  0
LINE
  5
11C
100
AcDbEntity
  8
0
  6
CONTINUOUS
 62
    7
370
   -1
100
AcDbLine
 10
51.53413435761318
 20
90.14311086677537
 11
50.66435147346085
 21
95.07589472468315
  0
LINE
  5
11D
100
AcDbEntity
  8
0
  6
CONTINUOUS
 62
    7
370
   -1
100
AcDbLine
 10
50.66435147346085
 20
95.07589472468315
 11
49.86389973181254
 21
94.93475348587548
  0
LINE
  5
11E
100
AcDbEntity
  8
0
  6
CONTINUOUS
 62
    7
370
   -1
100
AcDbLine
 10
49.86389973181254
 20
94.93475348587548
 11
49.25611027219696
 21
98.38169879834857
  0
LINE
  5
11F
100
AcDbEntity
  8
0
  6
CONTINUOUS
 62
    7
370
   -1
100
AcDbLine
 10
49.25611027219696
 20
98.38169879834857
 11
50.05656201384527
 21
98.52284003715624
  0
LINE
  5
120
100
AcDbEntity
  8
0
  6
CONTINUOUS
 62
    7
370
   -1
100
AcDbLine
 10
50.05656201384527
 20
98.52284003715624
 11
49.88631039453351
 21
99.48838495051952
  0
LINE
  5
121
100
AcDbEntity
  8
0
  6
CONTINUOUS
 62
    7
370
   -1
100
AcDbLine
 10
59.81030374819858
 20
43.20662186587184
 11
73.56806805777914
 21
45.63248690787889
  0
LINE
  5
122
100
AcDbEntity
  8
0
  6
CONTINUOUS
 62
    7
370
   -1
100
AcDbLine
 10
73.56806805777914
 20
45.63248690787889
 11
73.73831967709091
 21
44.66694199451559
  0
LINE
  5
123
100
AcDbEntity
  8
0
  6
CONTINUOUS
 62
    7
370
   -1
100
AcDbLine
 10
73.73831967709091
 20
44.66694199451559
 11
74.53877141873922
 21
44.80808323332326
  0
LINE
  5
124
100
AcDbEntity
  8
0
  6
CONTINUOUS
 62
    7
370
   -1
100
AcDbLine
 10
74.53877141873922
 20
44.80808323332326
 11
75.14656087835479
 21
41.36113792085017
  0
LINE
  5
125
100
AcDbEntity
  8
0
  6
CONTINUOUS
 62
    7
370
   -1
100
AcDbLine
 10
75.14656087835479
 20
41.36113792085017
 11
74.34610913670649
 21
41.2199966820425
  0
LINE
  5
126
100
AcDbEntity
  8
0
  6
CONTINUOUS
 62
    7
370
   -1
100
AcDbLine
 10
74.34610913670649
 20
41.2199966820425
 11
75.21589202085882
 21
36.28721282413472
  0
LINE
  5
127
100
AcDbEntity
  8
0
  6
CONTINUOUS
 62
    7
370
   -1
100
AcDbLine
 10
75.21589202085882
 20
36.28721282413472
 11
76.01634376250712
 21
36.4283540629424
  0
LINE
  5
128
100
AcDbEntity
  8
0
  6
CONTINUOUS
 62
    7
370
   -1
100
AcDbLine
 10
76.01634376250712
 20
36.4283540629424
 11
76.62413322212269
 21
32.98140875046929
  0
LINE
  5
129
100
AcDbEntity
  8
0
  6
CONTINUOUS
 62
    7
370
   -1
100
AcDbLine
 10
76.62413322212269
 20
32.98140875046929
 11
75.82368148047439
 21
32.84026751166162
  0
LINE
  5
12A
100
AcDbEntity
  8
0
  6
CONTINUOUS
 62
    7
370
   -1
100
AcDbLine
 10
75.82368148047439
 20
32.84026751166162
 11
75.99393309978616
 21
31.87472259829834
  0
LINE
  5
12B
100
AcDbEntity
  8
0
  6
CONTINUOUS
 62
    7
370
   -1
100
AcDbLine
 10
75.99393309978616
 20
31.87472259829834
 11
62.23616879020558
 21
29.44885755629132
  0
LINE
  5
12C
100
AcDbEntity
  8
0
  6
CONTINUOUS
 62
    7
370
   -1
100
AcDbLine
 10
62.23616879020558
 20
29.44885755629132
 11
62.06591717089383
 21
30.4144024696546
  0
LINE
  5
12D
100
AcDbEntity
  8
0
  6
CONTINUOUS
 62
    7
370
   -1
100
AcDbLine
 10
62.06591717089383
 20
30.4144024696546
 11
61.26546542924551
 21
30.27326123084692
  0
LINE
  5
12E
100
AcDbEntity
  8
0
  6
CONTINUOUS
 62
    7
370
   -1
100
AcDbLine
 10
61.26546542924551
 20
30.27326123084692
 11
60.65767596962993
 21
33.72020654332002
  0
LINE
  5
12F
100
AcDbEntity
  8
0
  6
CONTINUOUS
 62
    7
370
   -1
100
AcDbLine
 10
60.65767596962993
 20
33.72020654332002
 11
61.45812771127825
 21
33.8613477821277
  0
LINE
  5
130
100
AcDbEntity
  8
0
  6
CONTINUOUS
 62
    7
370
   -1
100
AcDbLine
 10
61.45812771127825
 20
33.8613477821277
 11
60.58834482712591
 21
38.79413164003548
  0
LINE
  5
131
100
AcDbEntity
  8
0
  6
CONTINUOUS
 62
    7
370
   -1
100
AcDbLine
 10
60.58834482712591
 20
38.79413164003548
 11
59.78789308547761
 21
38.6529904012278
  0
LINE
  5
132
100
AcDbEntity
  8
0
  6
CONTINUOUS
 62
    7
370
   -1
100
AcDbLine
 10
59.78789308547761
 20
38.6529904012278
 11
59.18010362586203
 21
42.09993571370089
  0
LINE
  5
133
100
AcDbEntity
  8
0
  6
CONTINUOUS
 62
    7
370
   -1
100
AcDbLine
 10
59.18010362586203
 20
42.09993571370089
 11
59.98055536751033
 21
42.24107695250857
  0
LINE
  5
134
100
AcDbEntity
  8
0
  6
CONTINUOUS
 62
    7
370
   -1
100
AcDbLine
 10
59.98055536751033
 20
42.24107695250857
 11
59.81030374819858
 21
43.20662186587184
  0
LINE
  5
135
100
AcDbEntity
  8
0
  6
CONTINUOUS
 62
    7
370
   -1
100
AcDbLine
 10
76.13113454686076
 20
60.35116858024839
 11
89.88889885644132
 21
62.77703362225541
  0
LINE
  5
136
100
AcDbEntity
  8
0
  6
CONTINUOUS
 62
    7
370
   -1
100
AcDbLine
 10
89.88889885644132
 20
62.77703362225541
 11
90.05915047575309
 21
61.81148870889213
  0
LINE
  5
137
100
AcDbEntity
  8
0
  6
CONTINUOUS
 62
    7
370
   -1
100
AcDbLine
 10
90.05915047575309
 20
61.81148870889213
 11
90.85960221740139
 21
61.95262994769981
  0
LINE
  5
138
100
AcDbEntity
  8
0
  6
CONTINUOUS
 62
    7
370
   -1
100
AcDbLine
 10
90.85960221740139
 20
61.95262994769981
 11
91.46739167701696
 21
58.50568463522672
  0
LINE
  5
139
100
AcDbEntity
  8
0
  6
CONTINUOUS
 62
    7
370
   -1
100
AcDbLine
 10
91.46739167701696
 20
58.50568463522672
 11
90.66693993536866
 21
58.36454339641903
  0
LINE
  5
13A
100
AcDbEntity
  8
0
  6
CONTINUOUS
 62
    7
370
   -1
100
AcDbLine
 10
90.66693993536866
 20
58.36454339641903
 11
91.53672281952099
 21
53.43175953851125
  0
LINE
  5
13B
100
AcDbEntity
  8
0
  6
CONTINUOUS
 62
    7
370
   -1
100
AcDbLine
 10
91.53672281952099
 20
53.43175953851125
 11
92.33717456116929
 21
53.57290077731894
  0
LINE
  5
13C
100
AcDbEntity
  8
0
  6
CONTINUOUS
 62
    7
370
   -1
100
AcDbLine
 10
92.33717456116929
 20
53.57290077731894
 11
92.94496402078487
 21
50.12595546484584
  0
LINE
  5
13D
100
AcDbEntity
  8
0
  6
CONTINUOUS
 62
    7
370
   -1
100
AcDbLine
 10
92.94496402078487
 20
50.12595546484584
 11
92.14451227913656
 21
49.98481422603816
  0
LINE
  5
13E
100
AcDbEntity
  8
0
  6
CONTINUOUS
 62
    7
370
   -1
100
AcDbLine
 10
92.14451227913656
 20
49.98481422603816
 11
92.31476389844833
 21
49.01926931267488
  0
LINE
  5
13F
100
AcDbEntity
  8
0
  6
CONTINUOUS
 62
    7
370
   -1
100
AcDbLine
 10
92.31476389844833
 20
49.01926931267488
 11
78.55699958886778
 21
46.59340427066787
  0
LINE
  5
140
100
AcDbEntity
  8
0
  6
CONTINUOUS
 62
    7
370
   -1
100
AcDbLine
 10
78.55699958886778
 20
46.59340427066787
 11
78.38674796955601
 21
47.55894918403114
  0
LINE
  5
141
100
AcDbEntity
  8
0
  6
CONTINUOUS
 62
    7
370
   -1
100
AcDbLine
 10
78.38674796955601
 20
47.55894918403114
 11
77.58629622790771
 21
47.41780794522346
  0
LINE
  5
142
100
AcDbEntity
  8
0
  6
CONTINUOUS
 62
    7
370
   -1
100
AcDbLine
 10
77.58629622790771
 20
47.41780794522346
 11
76.97850676829212
 21
50.86475325769655
  0
LINE
  5
143
100
AcDbEntity
  8
0
  6
CONTINUOUS
 62
    7
370
   -1
100
AcDbLine
 10
76.97850676829212
 20
50.86475325769655
 11
77.77895850994044
 21
51.00589449650423
  0
LINE
  5
144
100
AcDbEntity
  8
0
  6
CONTINUOUS
 62
    7
370
   -1
100
AcDbLine
 10
77.77895850994044
 20
51.00589449650423
 11
76.90917562578811
 21
55.93867835441201
  0
LINE
  5
145
100
AcDbEntity
  8
0
  6
CONTINUOUS
 62
    7
370
   -1
100
AcDbLine
 10
76.90917562578811
 20
55.93867835441201
 11
76.10872388413979
 21
55.79753711560433
  0
LINE
  5
146
100
AcDbEntity
  8
0
  6
CONTINUOUS
 62
    7
370
   -1
100
AcDbLine
 10
76.10872388413979
 20
55.79753711560433
 11
75.50093442452422
 21
59.24448242807744
  0
LINE
  5
147
100
AcDbEntity
  8
0
  6
CONTINUOUS
 62
    7
370
   -1
100
AcDbLine
 10
75.50093442452422
 20
59.24448242807744
 11
76.30138616617252
 21
59.38562366688512
  0
LINE
  5
148
100
AcDbEntity
  8
0
  6
CONTINUOUS
 62
    7
370
   -1
100
AcDbLine
 10
76.30138616617252
 20
59.38562366688512
 11
76.13113454686076
 21
60.35116858024839
  0
LINE
  5
149
100
AcDbEntity
  8
0
  6
CONTINUOUS
 62
    7
370
   -1
100
AcDbLine
 10
72.82313676230574
 20
79.11175627513094
 11
86.58090107188629
 21
81.53762131713796
  0
LINE
  5
14A
100
AcDbEntity
  8
0
  6
CONTINUOUS
 62
    7
370
   -1
100
AcDbLine
 10
86.58090107188629
 20
81.53762131713796
 11
86.75115269119806
 21
80.57207640377469
  0
LINE
  5
14B
100
AcDbEntity
  8
0
  6
CONTINUOUS
 62
    7
370
   -1
100
AcDbLine
 10
86.75115269119806
 20
80.57207640377469
 11
87.55160443284636
 21
80.71321764258236
  0
LINE
  5
14C
100
AcDbEntity
  8
0
  6
CONTINUOUS
 62
    7
370
   -1
100
AcDbLine
 10
87.55160443284636
 20
80.71321764258236
 11
88.15939389246194
 21
77.26627233010926
  0
LINE
  5
14D
100
AcDbEntity
  8
0
  6
CONTINUOUS
 62
    7
370
   -1
100
AcDbLine
 10
88.15939389246194
 20
77.26627233010926
 11
87.35894215081363
 21
77.12513109130158
  0
LINE
  5
14E
100
AcDbEntity
  8
0
  6
CONTINUOUS
 62
    7
370
   -1
100
AcDbLine
 10
87.35894215081363
 20
77.12513109130158
 11
88.22872503496596
 21
72.1923472333938
  0
LINE
  5
14F
100
AcDbEntity
  8
0
  6
CONTINUOUS
 62
    7
370
   -1
100
AcDbLine
 10
88.22872503496596
 20
72.1923472333938
 11
89.02917677661426
 21
72.33348847220149
  0
LINE
  5
150
100
AcDbEntity
  8
0
  6
CONTINUOUS
 62
    7
370
   -1
100
AcDbLine
 10
89.02917677661426
 20
72.33348847220149
 11
89.63696623622985
 21
68.88654315972839
  0
LINE
  5
151
100
AcDbEntity
  8
0
  6
CONTINUOUS
 62
    7
370
   -1
100
AcDbLine
 10
89.63696623622985
 20
68.88654315972839
 11
88.83651449458155
 21
68.74540192092071
  0
LINE
  5
152
100
AcDbEntity
  8
0
  6
CONTINUOUS
 62
    7
370
   -1
100
AcDbLine
 10
88.83651449458155
 20
68.74540192092071
 11
89.00676611389331
 21
67.77985700755742
  0
LINE
  5
153
100
AcDbEntity
  8
0
  6
CONTINUOUS
 62
    7
370
   -1
100
AcDbLine
 10
89.00676611389331
 20
67.77985700755742
 11
75.24900180431275
 21
65.35399196555043
  0
LINE
  5
154
100
AcDbEntity
  8
0
  6
CONTINUOUS
 62
    7
370
   -1
100
AcDbLine
 10
75.24900180431275
 20
65.35399196555043
 11
75.07875018500098
 21
66.31953687891369
  0
LINE
  5
155
100
AcDbEntity
  8
0
  6
CONTINUOUS
 62
    7
370
   -1
100
AcDbLine
 10
75.07875018500098
 20
66.31953687891369
 11
74.27829844335268
 21
66.17839564010602
  0
LINE
  5
156
100
AcDbEntity
  8
0
  6
CONTINUOUS
 62
    7
370
   -1
100
AcDbLine
 10
74.27829844335268
 20
66.17839564010602
 11
73.67050898373711
 21
69.62534095257911
  0
LINE
  5
157
100
AcDbEntity
  8
0
  6
CONTINUOUS
 62
    7
370
   -1
100
AcDbLine
 10
73.67050898373711
 20
69.62534095257911
 11
74.47096072538541
 21
69.76648219138679
  0
LINE
  5
158
100
AcDbEntity
  8
0
  6
CONTINUOUS
 62
    7
370
   -1
100
AcDbLine
 10
74.47096072538541
 20
69.76648219138679
 11
73.60117784123308
 21
74.69926604929456
  0
LINE
  5
159
100
AcDbEntity
  8
0
  6
CONTINUOUS
 62
    7
370
   -1
100
AcDbLine
 10
73.60117784123308
 20
74.69926604929456
 11
72.80072609958476
 21
74.55812481048689
  0
LINE
  5
15A
100
AcDbEntity
  8
0
  6
CONTINUOUS
 62
    7
370
   -1
100
AcDbLine
 10
72.80072609958476
 20
74.55812481048689
 11
72.19293663996919
 21
78.00507012295999
  0
LINE
  5
15B
100
AcDbEntity
  8
0
  6
CONTINUOUS
 62
    7
370
   -1
100
AcDbLine
 10
72.19293663996919
 20
78.00507012295999
 11
72.99338838161751
 21
78.14621136176767
  0
LINE
  5
15C
100
AcDbEntity
  8
0
  6
CONTINUOUS
 62
    7
370
   -1
100
AcDbLine
 10
72.99338838161751
 20
78.14621136176767
 11
72.82313676230574
 21
79.11175627513094
  0
LINE
  5
15D
100
AcDbEntity
  8
0
  6
CONTINUOUS
 62
    7
370
   -1
100
AcDbLine
 10
69.51513897775071
 20
97.8723439700135
 11
83.27290328733127
 21
100.2982090120205
  0
LINE
  5
15E
100
AcDbEntity
  8
0
  6
CONTINUOUS
 62
    7
370
   -1
100
AcDbLine
 10
83.27290328733127
 20
100.2982090120205
 11
83.44315490664303
 21
99.33266409865725
  0
LINE
  5
15F
100
AcDbEntity
  8
0
  6
CONTINUOUS
 62
    7
370
   -1
100
AcDbLine
 10
83.44315490664303
 20
99.33266409865725
 11
84.24360664829133
 21
99.47380533746492
  0
LINE
  5
160
100
AcDbEntity
  8
0
  6
CONTINUOUS
 62
    7
370
   -1
100
AcDbLine
 10
84.24360664829133
 20
99.47380533746492
 11
84.85139610790692
 21
96.02686002499183
  0
LINE
  5
161
100
AcDbEntity
  8
0
  6
CONTINUOUS
 62
    7
370
   -1
100
AcDbLine
 10
84.85139610790692
 20
96.02686002499183
 11
84.05094436625861
 21
95.88571878618416
  0
LINE
  5
162
100
AcDbEntity
  8
0
  6
CONTINUOUS
 62
    7
370
   -1
100
AcDbLine
 10
84.05094436625861
 20
95.88571878618416
 11
84.92072725041095
 21
90.95293492827638
  0
LINE
  5
163
100
AcDbEntity
  8
0
  6
CONTINUOUS
 62
    7
370
   -1
100
AcDbLine
 10
84.92072725041095
 20
90.95293492827638
 11
85.72117899205925
 21
91.09407616708405
  0
LINE
  5
164
100
AcDbEntity
  8
0
  6
CONTINUOUS
 62
    7
370
   -1
100
AcDbLine
 10
85.72117899205925
 20
91.09407616708405
 11
86.32896845167483
 21
87.64713085461095
  0
LINE
  5
165
100
AcDbEntity
  8
0
  6
CONTINUOUS
 62
    7
370
   -1
100
AcDbLine
 10
86.32896845167483
 20
87.64713085461095
 11
85.52851671002652
 21
87.50598961580327
  0
LINE
  5
166
100
AcDbEntity
  8
0
  6
CONTINUOUS
 62
    7
370
   -1
100
AcDbLine
 10
85.52851671002652
 20
87.50598961580327
 11
85.69876832933828
 21
86.54044470244
  0
LINE
  5
167
100
AcDbEntity
  8
0
  6
CONTINUOUS
 62
    7
370
   -1
100
AcDbLine
 10
85.69876832933828
 20
86.54044470244
 11
71.94100401975773
 21
84.11457966043298
  0
LINE
  5
168
100
AcDbEntity
  8
0
  6
CONTINUOUS
 62
    7
370
   -1
100
AcDbLine
 10
71.94100401975773
 20
84.11457966043298
 11
71.77075240044597
 21
85.08012457379625
  0
LINE
  5
169
100
AcDbEntity
  8
0
  6
CONTINUOUS
 62
    7
370
   -1
100
AcDbLine
 10
71.77075240044597
 20
85.08012457379625
 11
70.97030065879765
 21
84.93898333498856
  0
LINE
  5
16A
100
AcDbEntity
  8
0
  6
CONTINUOUS
 62
    7
370
   -1
100
AcDbLine
 10
70.97030065879765
 20
84.93898333498856
 11
70.36251119918208
 21
88.38592864746167
  0
LINE
  5
16B
100
AcDbEntity
  8
0
  6
CONTINUOUS
 62
    7
370
   -1
100
AcDbLine
 10
70.36251119918208
 20
88.38592864746167
 11
71.16296294083038
 21
88.52706988626936
  0
LINE
  5
16C
100
AcDbEntity
  8
0
  6
CONTINUOUS
 62
    7
370
   -1
100
AcDbLine
 10
71.16296294083038
 20
88.52706988626936
 11
70.29318005667805
 21
93.45985374417714
  0
LINE
  5
16D
100
AcDbEntity
  8
0
  6
CONTINUOUS
 62
    7
370
   -1
100
AcDbLine
 10
70.29318005667805
 20
93.45985374417714
 11
69.49272831502975
 21
93.31871250536946
  0
LINE
  5
16E
100
AcDbEntity
  8
0
  6
CONTINUOUS
 62
    7
370
   -1
100
AcDbLine
 10
69.49272831502975
 20
93.31871250536946
 11
68.88493885541416
 21
96.76565781784254
  0
LINE
  5
16F
100
AcDbEntity
  8
0
  6
CONTINUOUS
 62
    7
370
   -1
100
AcDbLine
 10
68.88493885541416
 20
96.76565781784254
 11
69.68539059706248
 21
96.90679905665023
  0
LINE
  5
170
100
AcDbEntity
  8
0
  6
CONTINUOUS
 62
    7
370
   -1
100
AcDbLine
 10
69.68539059706248
 20
96.90679905665023
 11
69.51513897775071
 21
97.8723439700135
  0
LINE
  5
171
100
AcDbEntity
  8
0
  6
CONTINUOUS
 62
    7
370
   -1
100
AcDbLine
 10
79.43913233141578
 20
41.59058088536583
 11
93.19689664099634
 21
44.01644592737285
  0
LINE
  5
172
100
AcDbEntity
  8
0
  6
CONTINUOUS
 62
    7
370
   -1
100
AcDbLine
 10
93.19689664099634
 20
44.01644592737285
 11
93.3671482603081
 21
43.05090101400957
  0
LINE
  5
173
100
AcDbEntity
  8
0
  6
CONTINUOUS
 62
    7
370
   -1
100
AcDbLine
 10
93.3671482603081
 20
43.05090101400957
 11
94.1676000019564
 21
43.19204225281725
  0
LINE
  5
174
100
AcDbEntity
  8
0
  6
CONTINUOUS
 62
    7
370
   -1
100
AcDbLine
 10
94.1676000019564
 20
43.19204225281725
 11
94.77538946157198
 21
39.74509694034416
  0
LINE
  5
175
100
AcDbEntity
  8
0
  6
CONTINUOUS
 62
    7
370
   -1
100
AcDbLine
 10
94.77538946157198
 20
39.74509694034416
 11
93.97493771992367
 21
39.60395570153648
  0
LINE
  5
176
100
AcDbEntity
  8
0
  6
CONTINUOUS
 62
    7
370
   -1
100
AcDbLine
 10
93.97493771992367
 20
39.60395570153648
 11
94.84472060407602
 21
34.67117184362871
  0
LINE
  5
177
100
AcDbEntity
  8
0
  6
CONTINUOUS
 62
    7
370
   -1
100
AcDbLine
 10
94.84472060407602
 20
34.67117184362871
 11
95.64517234572432
 21
34.81231308243638
  0
LINE
  5
178
100
AcDbEntity
  8
0
  6
CONTINUOUS
 62
    7
370
   -1
100
AcDbLine
 10
95.64517234572432
 20
34.81231308243638
 11
96.25296180533989
 21
31.36536776996328
  0
LINE
  5
179
100
AcDbEntity
  8
0
  6
CONTINUOUS
 62
    7
370
   -1
100
AcDbLine
 10
96.25296180533989
 20
31.36536776996328
 11
95.45251006369159
 21
31.2242265311556
  0
LINE
  5
17A
100
AcDbEntity
  8
0
  6
CONTINUOUS
 62
    7
370
   -1
100
AcDbLine
 10
95.45251006369159
 20
31.2242265311556
 11
95.62276168300335
 21
30.25868161779233
  0
LINE
  5
17B
100
AcDbEntity
  8
0
  6
CONTINUOUS
 62
    7
370
   -1
100
AcDbLine
 10
95.62276168300335
 20
30.25868161779233
 11
81.8649973734228
 21
27.8328165757853
  0
LINE
  5
17C
100
AcDbEntity
  8
0
  6
CONTINUOUS
 62
    7
370
   -1
100
AcDbLine
 10
81.8649973734228
 20
27.8328165757853
 11
81.69474575411104
 21
28.79836148914858
  0
LINE
  5
17D
100
AcDbEntity
  8
0
  6
CONTINUOUS
 62
    7
370
   -1
100
AcDbLine
 10
81.69474575411104
 20
28.79836148914858
 11
80.89429401246272
 21
28.65722025034091
  0
LINE
  5
17E
100
AcDbEntity
  8
0
  6
CONTINUOUS
 62
    7
370
   -1
100
AcDbLine
 10
80.89429401246272
 20
28.65722025034091
 11
80.28650455284715
 21
32.104165562814
  0
LINE
  5
17F
100
AcDbEntity
  8
0
  6
CONTINUOUS
 62
    7
370
   -1
100
AcDbLine
 10
80.28650455284715
 20
32.104165562814
 11
81.08695629449545
 21
32.24530680162168
  0
LINE
  5
180
100
AcDbEntity
  8
0
  6
CONTINUOUS
 62
    7
370
   -1
100
AcDbLine
 10
81.08695629449545
 20
32.24530680162168
 11
80.21717341034312
 21
37.17809065952945
  0
LINE
  5
181
100
AcDbEntity
  8
0
  6
CONTINUOUS
 62
    7
370
   -1
100
AcDbLine
 10
80.21717341034312
 20
37.17809065952945
 11
79.41672166869482
 21
37.03694942072178
  0
LINE
  5
182
100
AcDbEntity
  8
0
  6
CONTINUOUS
 62
    7
370
   -1
100
AcDbLine
 10
79.41672166869482
 20
37.03694942072178
 11
78.80893220907923
 21
40.48389473319488
  0
LINE
  5
183
100
AcDbEntity
  8
0
  6
CONTINUOUS
 62
    7
370
   -1
100
AcDbLine
 10
78.80893220907923
 20
40.48389473319488
 11
79.60938395072755
 21
40.62503597200256
  0
LINE
  5
184
100
AcDbEntity
  8
0
  6
CONTINUOUS
 62
    7
370
   -1
100
AcDbLine
 10
79.60938395072755
 20
40.62503597200256
 11
79.43913233141578
 21
41.59058088536583
  0
LINE
  5
185
100
AcDbEntity
  8
0
  6
CONTINUOUS
 62
    7
370
   -1
100
AcDbLine
 10
95.41266677474411
 20
60.7047431057668
 11
109.1704310843247
 21
63.13060814777382
  0
LINE
  5
186
100
AcDbEntity
  8
0
  6
CONTINUOUS
 62
    7
370
   -1
100
AcDbLine
 10
109.1704310843247
 20
63.13060814777382
 11
109.3406827036364
 21
62.16506323441053
  0
LINE
  5
187
100
AcDbEntity
  8
0
  6
CONTINUOUS
 62
    7
370
   -1
100
AcDbLine
 10
109.3406827036364
 20
62.16506323441053
 11
110.1411344452848
 21
62.30620447321821
  0
LINE
  5
188
100
AcDbEntity
  8
0
  6
CONTINUOUS
 62
    7
370
   -1
100
AcDbLine
 10
110.1411344452848
 20
62.30620447321821
 11
110.7489239049003
 21
58.85925916074512
  0
LINE
  5
189
100
AcDbEntity
  8
0
  6
CONTINUOUS
 62
    7
370
   -1
100
AcDbLine
 10
110.7489239049003
 20
58.85925916074512
 11
109.948472163252
 21
58.71811792193744
  0
LINE
  5
18A
100
AcDbEntity
  8
0
  6
CONTINUOUS
 62
    7
370
   -1
100
AcDbLine
 10
109.948472163252
 20
58.71811792193744
 11
110.8182550474043
 21
53.78533406402966
  0
LINE
  5
18B
100
AcDbEntity
  8
0
  6
CONTINUOUS
 62
    7
370
   -1
100
AcDbLine
 10
110.8182550474043
 20
53.78533406402966
 11
111.6187067890527
 21
53.92647530283734
  0
LINE
  5
18C
100
AcDbEntity
  8
0
  6
CONTINUOUS
 62
    7
370
   -1
100
AcDbLine
 10
111.6187067890527
 20
53.92647530283734
 11
112.2264962486683
 21
50.47952999036423
  0
LINE
  5
18D
100
AcDbEntity
  8
0
  6
CONTINUOUS
 62
    7
370
   -1
100
AcDbLine
 10
112.2264962486683
 20
50.47952999036423
 11
111.4260445070199
 21
50.33838875155656
  0
LINE
  5
18E
100
AcDbEntity
  8
0
  6
CONTINUOUS
 62
    7
370
   -1
100
AcDbLine
 10
111.4260445070199
 20
50.33838875155656
 11
111.5962961263317
 21
49.37284383819328
  0
LINE
  5
18F
100
AcDbEntity
  8
0
  6
CONTINUOUS
 62
    7
370
   -1
100
AcDbLine
 10
111.5962961263317
 20
49.37284383819328
 11
97.83853181675113
 21
46.94697879618627
  0
LINE
  5
190
100
AcDbEntity
  8
0
  6
CONTINUOUS
 62
    7
370
   -1
100
AcDbLine
 10
97.83853181675113
 20
46.94697879618627
 11
97.66828019743937
 21
47.91252370954954
  0
LINE
  5
191
100
AcDbEntity
  8
0
  6
CONTINUOUS
 62
    7
370
   -1
100
AcDbLine
 10
97.66828019743937
 20
47.91252370954954
 11
96.86782845579107
 21
47.77138247074186
  0
LINE
  5
192
100
AcDbEntity
  8
0
  6
CONTINUOUS
 62
    7
370
   -1
100
AcDbLine
 10
96.86782845579107
 20
47.77138247074186
 11
96.26003899617548
 21
51.21832778321495
  0
LINE
  5
193
100
AcDbEntity
  8
0
  6
CONTINUOUS
 62
    7
370
   -1
100
AcDbLine
 10
96.26003899617548
 20
51.21832778321495
 11
97.06049073782378
 21
51.35946902202264
  0
LINE
  5
194
100
AcDbEntity
  8
0
  6
CONTINUOUS
 62
    7
370
   -1
100
AcDbLine
 10
97.06049073782378
 20
51.35946902202264
 11
96.19070785367146
 21
56.29225287993042
  0
LINE
  5
195
100
AcDbEntity
  8
0
  6
CONTINUOUS
 62
    7
370
   -1
100
AcDbLine
 10
96.19070785367146
 20
56.29225287993042
 11
95.39025611202315
 21
56.15111164112273
  0
LINE
  5
196
100
AcDbEntity
  8
0
  6
CONTINUOUS
 62
    7
370
   -1
100
AcDbLine
 10
95.39025611202315
 20
56.15111164112273
 11
94.78246665240758
 21
59.59805695359585
  0
LINE
  5
197
100
AcDbEntity
  8
0
  6
CONTINUOUS
 62
    7
370
   -1
100
AcDbLine
 10
94.78246665240758
 20
59.59805695359585
 11
95.58291839405588
 21
59.73919819240351
  0
LINE
  5
198
100
AcDbEntity
  8
0
  6
CONTINUOUS
 62
    7
370
   -1
100
AcDbLine
 10
95.58291839405588
 20
59.73919819240351
 11
95.41266677474411
 21
60.7047431057668
  0
LINE
  5
199
100
AcDbEntity
  8
0
  6
CONTINUOUS
 62
    7
370
   -1
100
AcDbLine
 10
92.1046689901891
 20
79.46533080064934
 11
105.8624332997697
 21
81.89119584265637
  0
LINE
  5
19A
100
AcDbEntity
  8
0
  6
CONTINUOUS
 62
    7
370
   -1
100
AcDbLine
 10
105.8624332997697
 20
81.89119584265637
 11
106.0326849190814
 21
80.92565092929308
  0
LINE
  5
19B
100
AcDbEntity
  8
0
  6
CONTINUOUS
 62
    7
370
   -1
100
AcDbLine
 10
106.0326849190814
 20
80.92565092929308
 11
106.8331366607297
 21
81.06679216810076
  0
LINE
  5
19C
100
AcDbEntity
  8
0
  6
CONTINUOUS
 62
    7
370
   -1
100
AcDbLine
 10
106.8331366607297
 20
81.06679216810076
 11
107.4409261203453
 21
77.61984685562767
  0
LINE
  5
19D
100
AcDbEntity
  8
0
  6
CONTINUOUS
 62
    7
370
   -1
100
AcDbLine
 10
107.4409261203453
 20
77.61984685562767
 11
106.640474378697
 21
77.47870561681998
  0
LINE
  5
19E
100
AcDbEntity
  8
0
  6
CONTINUOUS
 62
    7
370
   -1
100
AcDbLine
 10
106.640474378697
 20
77.47870561681998
 11
107.5102572628493
 21
72.54592175891221
  0
LINE
  5
19F
100
AcDbEntity
  8
0
  6
CONTINUOUS
 62
    7
370
   -1
100
AcDbLine
 10
107.5102572628493
 20
72.54592175891221
 11
108.3107090044977
 21
72.68706299771989
  0
LINE
  5
1A0
100
AcDbEntity
  8
0
  6
CONTINUOUS
 62
    7
370
   -1
100
AcDbLine
 10
108.3107090044977
 20
72.68706299771989
 11
108.9184984641132
 21
69.24011768524679
  0
LINE
  5
1A1
100
AcDbEntity
  8
0
  6
CONTINUOUS
 62
    7
370
   -1
100
AcDbLine
 10
108.9184984641132
 20
69.24011768524679
 11
108.1180467224649
 21
69.09897644643912
  0
LINE
  5
1A2
100
AcDbEntity
  8
0
  6
CONTINUOUS
 62
    7
370
   -1
100
AcDbLine
 10
108.1180467224649
 20
69.09897644643912
 11
108.2882983417767
 21
68.13343153307584
  0
LINE
  5
1A3
100
AcDbEntity
  8
0
  6
CONTINUOUS
 62
    7
370
   -1
100
AcDbLine
 10
108.2882983417767
 20
68.13343153307584
 11
94.5305340321961
 21
65.70756649106882
  0
LINE
  5
1A4
100
AcDbEntity
  8
0
  6
CONTINUOUS
 62
    7
370
   -1
100
AcDbLine
 10
94.5305340321961
 20
65.70756649106882
 11
94.36028241288435
 21
66.67311140443209
  0
LINE
  5
1A5
100
AcDbEntity
  8
0
  6
CONTINUOUS
 62
    7
370
   -1
100
AcDbLine
 10
94.36028241288435
 20
66.67311140443209
 11
93.55983067123604
 21
66.53197016562441
  0
LINE
  5
1A6
100
AcDbEntity
  8
0
  6
CONTINUOUS
 62
    7
370
   -1
100
AcDbLine
 10
93.55983067123604
 20
66.53197016562441
 11
92.95204121162047
 21
69.97891547809751
  0
LINE
  5
1A7
100
AcDbEntity
  8
0
  6
CONTINUOUS
 62
    7
370
   -1
100
AcDbLine
 10
92.95204121162047
 20
69.97891547809751
 11
93.75249295326877
 21
70.1200567169052
  0
LINE
  5
1A8
100
AcDbEntity
  8
0
  6
CONTINUOUS
 62
    7
370
   -1
100
AcDbLine
 10
93.75249295326877
 20
70.1200567169052
 11
92.88271006911643
 21
75.05284057481296
  0
LINE
  5
1A9
100
AcDbEntity
  8
0
  6
CONTINUOUS
 62
    7
370
   -1
100
AcDbLine
 10
92.88271006911643
 20
75.05284057481296
 11
92.08225832746814
 21
74.91169933600528
  0
LINE
  5
1AA
100
AcDbEntity
  8
0
  6
CONTINUOUS
 62
    7
370
   -1
100
AcDbLine
 10
92.08225832746814
 20
74.91169933600528
 11
91.47446886785255
 21
78.35864464847839
  0
LINE
  5
1AB
100
AcDbEntity
  8
0
  6
CONTINUOUS
 62
    7
370
   -1
100
AcDbLine
 10
91.47446886785255
 20
78.35864464847839
 11
92.27492060950085
 21
78.49978588728607
  0
LINE
  5
1AC
100
AcDbEntity
  8
0
  6
CONTINUOUS
 62
    7
370
   -1
100
AcDbLine
 10
92.27492060950085
 20
78.49978588728607
 11
92.1046689901891
 21
79.46533080064934
  0
LINE
  5
1AD
100
AcDbEntity
  8
0
  6
CONTINUOUS
 62
    7
370
   -1
100
AcDbLine
 10
88.79667120563407
 20
98.2259184955319
 11
102.5544355152146
 21
100.6517835375389
  0
LINE
  5
1AE
100
AcDbEntity
  8
0
  6
CONTINUOUS
 62
    7
370
   -1
100
AcDbLine
 10
102.5544355152146
 20
100.6517835375389
 11
102.7246871345264
 21
99.68623862417564
  0
LINE
  5
1AF
100
AcDbEntity
  8
0
  6
CONTINUOUS
 62
    7
370
   -1
100
AcDbLine
 10
102.7246871345264
 20
99.68623862417564
 11
103.5251388761747
 21
99.82737986298334
  0
LINE
  5
1B0
100
AcDbEntity
  8
0
  6
CONTINUOUS
 62
    7
370
   -1
100
AcDbLine
 10
103.5251388761747
 20
99.82737986298334
 11
104.1329283357903
 21
96.38043455051023
  0
LINE
  5
1B1
100
AcDbEntity
  8
0
  6
CONTINUOUS
 62
    7
370
   -1
100
AcDbLine
 10
104.1329283357903
 20
96.38043455051023
 11
103.332476594142
 21
96.23929331170254
  0
LINE
  5
1B2
100
AcDbEntity
  8
0
  6
CONTINUOUS
 62
    7
370
   -1
100
AcDbLine
 10
103.332476594142
 20
96.23929331170254
 11
104.2022594782943
 21
91.30650945379477
  0
LINE
  5
1B3
100
AcDbEntity
  8
0
  6
CONTINUOUS
 62
    7
370
   -1
100
AcDbLine
 10
104.2022594782943
 20
91.30650945379477
 11
105.0027112199426
 21
91.44765069260245
  0
LINE
  5
1B4
100
AcDbEntity
  8
0
  6
CONTINUOUS
 62
    7
370
   -1
100
AcDbLine
 10
105.0027112199426
 20
91.44765069260245
 11
105.6105006795582
 21
88.00070538012935
  0
LINE
  5
1B5
100
AcDbEntity
  8
0
  6
CONTINUOUS
 62
    7
370
   -1
100
AcDbLine
 10
105.6105006795582
 20
88.00070538012935
 11
104.8100489379099
 21
87.85956414132167
  0
LINE
  5
1B6
100
AcDbEntity
  8
0
  6
CONTINUOUS
 62
    7
370
   -1
100
AcDbLine
 10
104.8100489379099
 20
87.85956414132167
 11
104.9803005572217
 21
86.8940192279584
  0
LINE
  5
1B7
100
AcDbEntity
  8
0
  6
CONTINUOUS
 62
    7
370
   -1
100
AcDbLine
 10
104.9803005572217
 20
86.8940192279584
 11
91.22253624764109
 21
84.46815418595138
  0
LINE
  5
1B8
100
AcDbEntity
  8
0
  6
CONTINUOUS
 62
    7
370
   -1
100
AcDbLine
 10
91.22253624764109
 20
84.46815418595138
 11
91.05228462832932
 21
85.43369909931465
  0
LINE
  5
1B9
100
AcDbEntity
  8
0
  6
CONTINUOUS
 62
    7
370
   -1
100
AcDbLine
 10
91.05228462832932
 20
85.43369909931465
 11
90.25183288668102
 21
85.29255786050697
  0
LINE
  5
1BA
100
AcDbEntity
  8
0
  6
CONTINUOUS
 62
    7
370
   -1
100
AcDbLine
 10
90.25183288668102
 20
85.29255786050697
 11
89.64404342706544
 21
88.73950317298006
  0
LINE
  5
1BB
100
AcDbEntity
  8
0
  6
CONTINUOUS
 62
    7
370
   -1
100
AcDbLine
 10
89.64404342706544
 20
88.73950317298006
 11
90.44449516871374
 21
88.88064441178774
  0
LINE
  5
1BC
100
AcDbEntity
  8
0
  6
CONTINUOUS
 62
    7
370
   -1
100
AcDbLine
 10
90.44449516871374
 20
88.88064441178774
 11
89.57471228456141
 21
93.81342826969552
  0
LINE
  5
1BD
100
AcDbEntity
  8
0
  6
CONTINUOUS
 62
    7
370
   -1
100
AcDbLine
 10
89.57471228456141
 20
93.81342826969552
 11
88.77426054291311
 21
93.67228703088784
  0
LINE
  5
1BE
100
AcDbEntity
  8
0
  6
CONTINUOUS
 62
    7
370
   -1
100
AcDbLine
 10
88.77426054291311
 20
93.67228703088784
 11
88.16647108329754
 21
97.11923234336095
  0
LINE
  5
1BF
100
AcDbEntity
  8
0
  6
CONTINUOUS
 62
    7
370
   -1
100
AcDbLine
 10
88.16647108329754
 20
97.11923234336095
 11
88.96692282494584
 21
97.26037358216863
  0
LINE
  5
1C0
100
AcDbEntity
  8
0
  6
CONTINUOUS
 62
    7
370
   -1
100
AcDbLine
 10
88.96692282494584
 20
97.26037358216863
 11
88.79667120563407
 21
98.2259184955319
  0
LINE
  5
1C1
100
AcDbEntity
  8
0
  6
CONTINUOUS
 62
    7
370
   -1
100
AcDbLine
 10
98.72066455929914
 20
41.94415541088423
 11
112.4784288688797
 21
44.37002045289124
  0
LINE
  5
1C2
100
AcDbEntity
  8
0
  6
CONTINUOUS
 62
    7
370
   -1
100
AcDbLine
 10
112.4784288688797
 20
44.37002045289124
 11
112.6486804881915
 21
43.40447553952797
  0
LINE
  5
1C3
100
AcDbEntity
  8
0
  6
CONTINUOUS
 62
    7
370
   -1
100
AcDbLine
 10
112.6486804881915
 20
43.40447553952797
 11
113.4491322298398
 21
43.54561677833566
  0
LINE
  5
1C4
100
AcDbEntity
  8
0
  6
CONTINUOUS
 62
    7
370
   -1
100
AcDbLine
 10
113.4491322298398
 20
43.54561677833566
 11
114.0569216894554
 21
40.09867146586256
  0
LINE
  5
1C5
100
AcDbEntity
  8
0
  6
CONTINUOUS
 62
    7
370
   -1
100
AcDbLine
 10
114.0569216894554
 20
40.09867146586256
 11
113.256469947807
 21
39.95753022705488
  0
LINE
  5
1C6
100
AcDbEntity
  8
0
  6
CONTINUOUS
 62
    7
370
   -1
100
AcDbLine
 10
113.256469947807
 20
39.95753022705488
 11
114.1262528319594
 21
35.0247463691471
  0
LINE
  5
1C7
100
AcDbEntity
  8
0
  6
CONTINUOUS
 62
    7
370
   -1
100
AcDbLine
 10
114.1262528319594
 20
35.0247463691471
 11
114.9267045736077
 21
35.16588760795478
  0
LINE
  5
1C8
100
AcDbEntity
  8
0
  6
CONTINUOUS
 62
    7
370
   -1
100
AcDbLine
 10
114.9267045736077
 20
35.16588760795478
 11
115.5344940332233
 21
31.71894229548168
  0
LINE
  5
1C9
100
AcDbEntity
  8
0
  6
CONTINUOUS
 62
    7
370
   -1
100
AcDbLine
 10
115.5344940332233
 20
31.71894229548168
 11
114.734042291575
 21
31.577801056674
  0
LINE
  5
1CA
100
AcDbEntity
  8
0
  6
CONTINUOUS
 62
    7
370
   -1
100
AcDbLine
 10
114.734042291575
 20
31.577801056674
 11
114.9042939108867
 21
30.61225614331072
  0
LINE
  5
1CB
100
AcDbEntity
  8
0
  6
CONTINUOUS
 62
    7
370
   -1
100
AcDbLine
 10
114.9042939108867
 20
30.61225614331072
 11
101.1465296013062
 21
28.18639110130371
  0
LINE
  5
1CC
100
AcDbEntity
  8
0
  6
CONTINUOUS
 62
    7
370
   -1
100
AcDbLine
 10
101.1465296013062
 20
28.18639110130371
 11
100.9762779819944
 21
29.15193601466698
  0
LINE
  5
1CD
100
AcDbEntity
  8
0
  6
CONTINUOUS
 62
    7
370
   -1
100
AcDbLine
 10
100.9762779819944
 20
29.15193601466698
 11
100.1758262403461
 21
29.0107947758593
  0
LINE
  5
1CE
100
AcDbEntity
  8
0
  6
CONTINUOUS
 62
    7
370
   -1
100
AcDbLine
 10
100.1758262403461
 20
29.0107947758593
 11
99.56803678073051
 21
32.4577400883324
  0
LINE
  5
1CF
100
AcDbEntity
  8
0
  6
CONTINUOUS
 62
    7
370
   -1
100
AcDbLine
 10
99.56803678073051
 20
32.4577400883324
 11
100.3684885223788
 21
32.59888132714008
  0
LINE
  5
1D0
100
AcDbEntity
  8
0
  6
CONTINUOUS
 62
    7
370
   -1
100
AcDbLine
 10
100.3684885223788
 20
32.59888132714008
 11
99.49870563822648
 21
37.53166518504786
  0
LINE
  5
1D1
100
AcDbEntity
  8
0
  6
CONTINUOUS
 62
    7
370
   -1
100
AcDbLine
 10
99.49870563822648
 20
37.53166518504786
 11
98.69825389657818
 21
37.39052394624018
  0
LINE
  5
1D2
100
AcDbEntity
  8
0
  6
CONTINUOUS
 62
    7
370
   -1
100
AcDbLine
 10
98.69825389657818
 20
37.39052394624018
 11
98.09046443696261
 21
40.83746925871328
  0
LINE
  5
1D3
100
AcDbEntity
  8
0
  6
CONTINUOUS
 62
    7
370
   -1
100
AcDbLine
 10
98.09046443696261
 20
40.83746925871328
 11
98.89091617861089
 21
40.97861049752095
  0
LINE
  5
1D4
100
AcDbEntity
  8
0
  6
CONTINUOUS
 62
    7
370
   -1
100
AcDbLine
 10
98.89091617861089
 20
40.97861049752095
 11
98.72066455929914
 21
41.94415541088423
  0
CIRCLE
  5
1D5
100
AcDbEntity
  8
0
  6
ByLayer
 62
  255
370
   -1
100
AcDbCircle
 10
107.2181192174607
 20
109.0909263913062
 40
1.5
  0
CIRCLE
  5
1D6
100
AcDbEntity
  8
0
  6
ByLayer
 62
  255
370
   -1
100
AcDbCircle
 10
121.8603444692946
 20
23.50517701271941
 40
1.5
  0
CIRCLE
  5
1D7
100
AcDbEntity
  8
0
  6
ByLayer
 62
  255
370
   -1
100
AcDbCircle
 10
29.55922747458772
 20
5.03805301908254
 40
1.5
  0
CIRCLE
  5
1D8
100
AcDbEntity
  8
0
  6
ByLayer
 62
  255
370
   -1
100
AcDbCircle
 10
15
 20
110.8455930679138
 40
1.5
  0
CIRCLE
  5
1D9
100
AcDbEntity
  8
0
  6
ByLayer
 62
  255
370
   -1
100
AcDbCircle
 10
-29.55922747458772
 20
5.03805301908254
 40
1.5
  0
CIRCLE
  5
1DA
100
AcDbEntity
  8
0
  6
ByLayer
 62
  255
370
   -1
100
AcDbCircle
 10
-121.8603444692946
 20
23.50517701271941
 40
1.5
  0
CIRCLE
  5
1DB
100
AcDbEntity
  8
0
  6
ByLayer
 62
  255
370
   -1
100
AcDbCircle
 10
-107.2181192174607
 20
109.0909263913062
 40
1.5
  0
CIRCLE
  5
1DC
100
AcDbEntity
  8
0
  6
ByLayer
 62
  255
370
   -1
100
AcDbCircle
 10
-15
 20
110.8455930679138
 40
1.5
  0
LINE
  5
1DD
100
AcDbEntity
  8
0
  6
CONTINUOUS
 62
    7
370
   -1
100
AcDbLine
 10
-20.89126052821466
 20
44.51832870851007
 11
-34.64902483779524
 21
46.94419375051711
  0
LINE
  5
1DE
100
AcDbEntity
  8
0
  6
CONTINUOUS
 62
    7
370
   -1
100
AcDbLine
 10
-34.64902483779524
 20
46.94419375051711
 11
-34.81927645710699
 21
45.97864883715382
  0
LINE
  5
1DF
100
AcDbEntity
  8
0
  6
CONTINUOUS
 62
    7
370
   -1
100
AcDbLine
 10
-34.81927645710699
 20
45.97864883715382
 11
-35.6197281987553
 21
46.1197900759615
  0
LINE
  5
1E0
100
AcDbEntity
  8
0
  6
CONTINUOUS
 62
    7
370
   -1
100
AcDbLine
 10
-35.6197281987553
 20
46.1197900759615
 11
-36.22751765837089
 21
42.6728447634884
  0
LINE
  5
1E1
100
AcDbEntity
  8
0
  6
CONTINUOUS
 62
    7
370
   -1
100
AcDbLine
 10
-36.22751765837089
 20
42.6728447634884
 11
-35.42706591672258
 21
42.53170352468073
  0
LINE
  5
1E2
100
AcDbEntity
  8
0
  6
CONTINUOUS
 62
    7
370
   -1
100
AcDbLine
 10
-35.42706591672258
 20
42.53170352468073
 11
-36.29684880087491
 21
37.59891966677295
  0
LINE
  5
1E3
100
AcDbEntity
  8
0
  6
CONTINUOUS
 62
    7
370
   -1
100
AcDbLine
 10
-36.29684880087491
 20
37.59891966677295
 11
-37.09730054252321
 21
37.74006090558063
  0
LINE
  5
1E4
100
AcDbEntity
  8
0
  6
CONTINUOUS
 62
    7
370
   -1
100
AcDbLine
 10
-37.09730054252321
 20
37.74006090558063
 11
-37.70509000213879
 21
34.29311559310752
  0
LINE
  5
1E5
100
AcDbEntity
  8
0
  6
CONTINUOUS
 62
    7
370
   -1
100
AcDbLine
 10
-37.70509000213879
 20
34.29311559310752
 11
-36.90463826049049
 21
34.15197435429985
  0
LINE
  5
1E6
100
AcDbEntity
  8
0
  6
CONTINUOUS
 62
    7
370
   -1
100
AcDbLine
 10
-36.90463826049049
 20
34.15197435429985
 11
-37.07488987980224
 21
33.18642944093657
  0
LINE
  5
1E7
100
AcDbEntity
  8
0
  6
CONTINUOUS
 62
    7
370
   -1
100
AcDbLine
 10
-37.07488987980224
 20
33.18642944093657
 11
-23.31712557022168
 21
30.76056439892955
  0
LINE
  5
1E8
100
AcDbEntity
  8
0
  6
CONTINUOUS
 62
    7
370
   -1
100
AcDbLine
 10
-23.31712557022168
 20
30.76056439892955
 11
-23.14687395090991
 21
31.72610931229283
  0
LINE
  5
1E9
100
AcDbEntity
  8
0
  6
CONTINUOUS
 62
    7
370
   -1
100
AcDbLine
 10
-23.14687395090991
 20
31.72610931229283
 11
-22.34642220926161
 21
31.58496807348515
  0
LINE
  5
1EA
100
AcDbEntity
  8
0
  6
CONTINUOUS
 62
    7
370
   -1
100
AcDbLine
 10
-22.34642220926161
 20
31.58496807348515
 11
-21.73863274964603
 21
35.03191338595825
  0
LINE
  5
1EB
100
AcDbEntity
  8
0
  6
CONTINUOUS
 62
    7
370
   -1
100
AcDbLine
 10
-21.73863274964603
 20
35.03191338595825
 11
-22.53908449129434
 21
35.17305462476592
  0
LINE
  5
1EC
100
AcDbEntity
  8
0
  6
CONTINUOUS
 62
    7
370
   -1
100
AcDbLine
 10
-22.53908449129434
 20
35.17305462476592
 11
-21.669301607142
 21
40.1058384826737
  0
LINE
  5
1ED
100
AcDbEntity
  8
0
  6
CONTINUOUS
 62
    7
370
   -1
100
AcDbLine
 10
-21.669301607142
 20
40.1058384826737
 11
-20.8688498654937
 21
39.96469724386603
  0
LINE
  5
1EE
100
AcDbEntity
  8
0
  6
CONTINUOUS
 62
    7
370
   -1
100
AcDbLine
 10
-20.8688498654937
 20
39.96469724386603
 11
-20.26106040587812
 21
43.41164255633912
  0
LINE
  5
1EF
100
AcDbEntity
  8
0
  6
CONTINUOUS
 62
    7
370
   -1
100
AcDbLine
 10
-20.26106040587812
 20
43.41164255633912
 11
-21.06151214752643
 21
43.5527837951468
  0
LINE
  5
1F0
100
AcDbEntity
  8
0
  6
CONTINUOUS
 62
    7
370
   -1
100
AcDbLine
 10
-21.06151214752643
 20
43.5527837951468
 11
-20.89126052821466
 21
44.51832870851007
  0
LINE
  5
1F1
100
AcDbEntity
  8
0
  6
CONTINUOUS
 62
    7
370
   -1
100
AcDbLine
 10
-17.58326274365964
 20
63.27891640339262
 11
-31.34102705324021
 21
65.70478144539966
  0
LINE
  5
1F2
100
AcDbEntity
  8
0
  6
CONTINUOUS
 62
    7
370
   -1
100
AcDbLine
 10
-31.34102705324021
 20
65.70478144539966
 11
-31.51127867255197
 21
64.73923653203637
  0
LINE
  5
1F3
100
AcDbEntity
  8
0
  6
CONTINUOUS
 62
    7
370
   -1
100
AcDbLine
 10
-31.51127867255197
 20
64.73923653203637
 11
-32.31173041420028
 21
64.88037777084405
  0
LINE
  5
1F4
100
AcDbEntity
  8
0
  6
CONTINUOUS
 62
    7
370
   -1
100
AcDbLine
 10
-32.31173041420028
 20
64.88037777084405
 11
-32.91951987381586
 21
61.43343245837095
  0
LINE
  5
1F5
100
AcDbEntity
  8
0
  6
CONTINUOUS
 62
    7
370
   -1
100
AcDbLine
 10
-32.91951987381586
 20
61.43343245837095
 11
-32.11906813216756
 21
61.29229121956329
  0
LINE
  5
1F6
100
AcDbEntity
  8
0
  6
CONTINUOUS
 62
    7
370
   -1
100
AcDbLine
 10
-32.11906813216756
 20
61.29229121956329
 11
-32.98885101631988
 21
56.35950736165551
  0
LINE
  5
1F7
100
AcDbEntity
  8
0
  6
CONTINUOUS
 62
    7
370
   -1
100
AcDbLine
 10
-32.98885101631988
 20
56.35950736165551
 11
-33.78930275796819
 21
56.50064860046319
  0
LINE
  5
1F8
100
AcDbEntity
  8
0
  6
CONTINUOUS
 62
    7
370
   -1
100
AcDbLine
 10
-33.78930275796819
 20
56.50064860046319
 11
-34.39709221758377
 21
53.05370328799008
  0
LINE
  5
1F9
100
AcDbEntity
  8
0
  6
CONTINUOUS
 62
    7
370
   -1
100
AcDbLine
 10
-34.39709221758377
 20
53.05370328799008
 11
-33.59664047593546
 21
52.91256204918241
  0
LINE
  5
1FA
100
AcDbEntity
  8
0
  6
CONTINUOUS
 62
    7
370
   -1
100
AcDbLine
 10
-33.59664047593546
 20
52.91256204918241
 11
-33.76689209524723
 21
51.94701713581913
  0
LINE
  5
1FB
100
AcDbEntity
  8
0
  6
CONTINUOUS
 62
    7
370
   -1
100
AcDbLine
 10
-33.76689209524723
 20
51.94701713581913
 11
-20.00912778566665
 21
49.52115209381211
  0
LINE
  5
1FC
100
AcDbEntity
  8
0
  6
CONTINUOUS
 62
    7
370
   -1
100
AcDbLine
 10
-20.00912778566665
 20
49.52115209381211
 11
-19.83887616635489
 21
50.48669700717539
  0
LINE
  5
1FD
100
AcDbEntity
  8
0
  6
CONTINUOUS
 62
    7
370
   -1
100
AcDbLine
 10
-19.83887616635489
 20
50.48669700717539
 11
-19.03842442470658
 21
50.34555576836771
  0
LINE
  5
1FE
100
AcDbEntity
  8
0
  6
CONTINUOUS
 62
    7
370
   -1
100
AcDbLine
 10
-19.03842442470658
 20
50.34555576836771
 11
-18.43063496509101
 21
53.7925010808408
  0
LINE
  5
1FF
100
AcDbEntity
  8
0
  6
CONTINUOUS
 62
    7
370
   -1
100
AcDbLine
 10
-18.43063496509101
 20
53.7925010808408
 11
-19.23108670673931
 21
53.93364231964848
  0
LINE
  5
200
100
AcDbEntity
  8
0
  6
CONTINUOUS
 62
    7
370
   -1
100
AcDbLine
 10
-19.23108670673931
 20
53.93364231964848
 11
-18.36130382258698
 21
58.86642617755625
  0
LINE
  5
201
100
AcDbEntity
  8
0
  6
CONTINUOUS
 62
    7
370
   -1
100
AcDbLine
 10
-18.36130382258698
 20
58.86642617755625
 11
-17.56085208093867
 21
58.72528493874858
  0
LINE
  5
202
100
AcDbEntity
  8
0
  6
CONTINUOUS
 62
    7
370
   -1
100
AcDbLine
 10
-17.56085208093867
 20
58.72528493874858
 11
-16.9530626213231
 21
62.17223025122168
  0
LINE
  5
203
100
AcDbEntity
  8
0
  6
CONTINUOUS
 62
    7
370
   -1
100
AcDbLine
 10
-16.9530626213231
 20
62.17223025122168
 11
-17.7535143629714
 21
62.31337149002936
  0
LINE
  5
204
100
AcDbEntity
  8
0
  6
CONTINUOUS
 62
    7
370
   -1
100
AcDbLine
 10
-17.7535143629714
 20
62.31337149002936
 11
-17.58326274365964
 21
63.27891640339262
  0
LINE
  5
205
100
AcDbEntity
  8
0
  6
CONTINUOUS
 62
    7
370
   -1
100
AcDbLine
 10
-14.27526495910462
 20
82.03950409827519
 11
-28.03302926868519
 21
84.46536914028221
  0
LINE
  5
206
100
AcDbEntity
  8
0
  6
CONTINUOUS
 62
    7
370
   -1
100
AcDbLine
 10
-28.03302926868519
 20
84.46536914028221
 11
-28.20328088799695
 21
83.49982422691893
  0
LINE
  5
207
100
AcDbEntity
  8
0
  6
CONTINUOUS
 62
    7
370
   -1
100
AcDbLine
 10
-28.20328088799695
 20
83.49982422691893
 11
-29.00373262964526
 21
83.64096546572661
  0
LINE
  5
208
100
AcDbEntity
  8
0
  6
CONTINUOUS
 62
    7
370
   -1
100
AcDbLine
 10
-29.00373262964526
 20
83.64096546572661
 11
-29.61152208926084
 21
80.19402015325352
  0
LINE
  5
209
100
AcDbEntity
  8
0
  6
CONTINUOUS
 62
    7
370
   -1
100
AcDbLine
 10
-29.61152208926084
 20
80.19402015325352
 11
-28.81107034761253
 21
80.05287891444584
  0
LINE
  5
20A
100
AcDbEntity
  8
0
  6
CONTINUOUS
 62
    7
370
   -1
100
AcDbLine
 10
-28.81107034761253
 20
80.05287891444584
 11
-29.68085323176486
 21
75.12009505653805
  0
LINE
  5
20B
100
AcDbEntity
  8
0
  6
CONTINUOUS
 62
    7
370
   -1
100
AcDbLine
 10
-29.68085323176486
 20
75.12009505653805
 11
-30.48130497341317
 21
75.26123629534573
  0
LINE
  5
20C
100
AcDbEntity
  8
0
  6
CONTINUOUS
 62
    7
370
   -1
100
AcDbLine
 10
-30.48130497341317
 20
75.26123629534573
 11
-31.08909443302875
 21
71.81429098287263
  0
LINE
  5
20D
100
AcDbEntity
  8
0
  6
CONTINUOUS
 62
    7
370
   -1
100
AcDbLine
 10
-31.08909443302875
 20
71.81429098287263
 11
-30.28864269138044
 21
71.67314974406496
  0
LINE
  5
20E
100
AcDbEntity
  8
0
  6
CONTINUOUS
 62
    7
370
   -1
100
AcDbLine
 10
-30.28864269138044
 20
71.67314974406496
 11
-30.4588943106922
 21
70.70760483070168
  0
LINE
  5
20F
100
AcDbEntity
  8
0
  6
CONTINUOUS
 62
    7
370
   -1
100
AcDbLine
 10
-30.4588943106922
 20
70.70760483070168
 11
-16.70113000111163
 21
68.28173978869467
  0
LINE
  5
210
100
AcDbEntity
  8
0
  6
CONTINUOUS
 62
    7
370
   -1
100
AcDbLine
 10
-16.70113000111163
 20
68.28173978869467
 11
-16.53087838179987
 21
69.24728470205794
  0
LINE
  5
211
100
AcDbEntity
  8
0
  6
CONTINUOUS
 62
    7
370
   -1
100
AcDbLine
 10
-16.53087838179987
 20
69.24728470205794
 11
-15.73042664015156
 21
69.10614346325026
  0
LINE
  5
212
100
AcDbEntity
  8
0
  6
CONTINUOUS
 62
    7
370
   -1
100
AcDbLine
 10
-15.73042664015156
 20
69.10614346325026
 11
-15.12263718053599
 21
72.55308877572335
  0
LINE
  5
213
100
AcDbEntity
  8
0
  6
CONTINUOUS
 62
    7
370
   -1
100
AcDbLine
 10
-15.12263718053599
 20
72.55308877572335
 11
-15.92308892218429
 21
72.69423001453103
  0
LINE
  5
214
100
AcDbEntity
  8
0
  6
CONTINUOUS
 62
    7
370
   -1
100
AcDbLine
 10
-15.92308892218429
 20
72.69423001453103
 11
-15.05330603803196
 21
77.62701387243882
  0
LINE
  5
215
100
AcDbEntity
  8
0
  6
CONTINUOUS
 62
    7
370
   -1
100
AcDbLine
 10
-15.05330603803196
 20
77.62701387243882
 11
-14.25285429638365
 21
77.48587263363115
  0
LINE
  5
216
100
AcDbEntity
  8
0
  6
CONTINUOUS
 62
    7
370
   -1
100
AcDbLine
 10
-14.25285429638365
 20
77.48587263363115
 11
-13.64506483676807
 21
80.93281794610424
  0
LINE
  5
217
100
AcDbEntity
  8
0
  6
CONTINUOUS
 62
    7
370
   -1
100
AcDbLine
 10
-13.64506483676807
 20
80.93281794610424
 11
-14.44551657841638
 21
81.07395918491191
  0
LINE
  5
218
100
AcDbEntity
  8
0
  6
CONTINUOUS
 62
    7
370
   -1
100
AcDbLine
 10
-14.44551657841638
 20
81.07395918491191
 11
-14.27526495910462
 21
82.03950409827519
  0
LINE
  5
219
100
AcDbEntity
  8
0
  6
CONTINUOUS
 62
    7
370
   -1
100
AcDbLine
 10
-24.19925831276969
 20
25.75774101362752
 11
-37.95702262235025
 21
28.18360605563454
  0
LINE
  5
21A
100
AcDbEntity
  8
0
  6
CONTINUOUS
 62
    7
370
   -1
100
AcDbLine
 10
-37.95702262235025
 20
28.18360605563454
 11
-38.12727424166202
 21
27.21806114227126
  0
LINE
  5
21B
100
AcDbEntity
  8
0
  6
CONTINUOUS
 62
    7
370
   -1
100
AcDbLine
 10
-38.12727424166202
 20
27.21806114227126
 11
-38.92772598331032
 21
27.35920238107894
  0
LINE
  5
21C
100
AcDbEntity
  8
0
  6
CONTINUOUS
 62
    7
370
   -1
100
AcDbLine
 10
-38.92772598331032
 20
27.35920238107894
 11
-39.5355154429259
 21
23.91225706860584
  0
LINE
  5
21D
100
AcDbEntity
  8
0
  6
CONTINUOUS
 62
    7
370
   -1
100
AcDbLine
 10
-39.5355154429259
 20
23.91225706860584
 11
-38.7350637012776
 21
23.77111582979816
  0
LINE
  5
21E
100
AcDbEntity
  8
0
  6
CONTINUOUS
 62
    7
370
   -1
100
AcDbLine
 10
-38.7350637012776
 20
23.77111582979816
 11
-39.60484658542993
 21
18.83833197189039
  0
LINE
  5
21F
100
AcDbEntity
  8
0
  6
CONTINUOUS
 62
    7
370
   -1
100
AcDbLine
 10
-39.60484658542993
 20
18.83833197189039
 11
-40.40529832707823
 21
18.97947321069806
  0
LINE
  5
220
100
AcDbEntity
  8
0
  6
CONTINUOUS
 62
    7
370
   -1
100
AcDbLine
 10
-40.40529832707823
 20
18.97947321069806
 11
-41.01308778669382
 21
15.53252789822496
  0
LINE
  5
221
100
AcDbEntity
  8
0
  6
CONTINUOUS
 62
    7
370
   -1
100
AcDbLine
 10
-41.01308778669382
 20
15.53252789822496
 11
-40.21263604504551
 21
15.39138665941729
  0
LINE
  5
222
100
AcDbEntity
  8
0
  6
CONTINUOUS
 62
    7
370
   -1
100
AcDbLine
 10
-40.21263604504551
 20
15.39138665941729
 11
-40.38288766435727
 21
14.42584174605401
  0
LINE
  5
223
100
AcDbEntity
  8
0
  6
CONTINUOUS
 62
    7
370
   -1
100
AcDbLine
 10
-40.38288766435727
 20
14.42584174605401
 11
-26.6251233547767
 21
11.99997670404699
  0
LINE
  5
224
100
AcDbEntity
  8
0
  6
CONTINUOUS
 62
    7
370
   -1
100
AcDbLine
 10
-26.6251233547767
 20
11.99997670404699
 11
-26.45487173546493
 21
12.96552161741027
  0
LINE
  5
225
100
AcDbEntity
  8
0
  6
CONTINUOUS
 62
    7
370
   -1
100
AcDbLine
 10
-26.45487173546493
 20
12.96552161741027
 11
-25.65441999381663
 21
12.82438037860259
  0
LINE
  5
226
100
AcDbEntity
  8
0
  6
CONTINUOUS
 62
    7
370
   -1
100
AcDbLine
 10
-25.65441999381663
 20
12.82438037860259
 11
-25.04663053420105
 21
16.27132569107568
  0
LINE
  5
227
100
AcDbEntity
  8
0
  6
CONTINUOUS
 62
    7
370
   -1
100
AcDbLine
 10
-25.04663053420105
 20
16.27132569107568
 11
-25.84708227584936
 21
16.41246692988336
  0
LINE
  5
228
100
AcDbEntity
  8
0
  6
CONTINUOUS
 62
    7
370
   -1
100
AcDbLine
 10
-25.84708227584936
 20
16.41246692988336
 11
-24.97729939169702
 21
21.34525078779114
  0
LINE
  5
229
100
AcDbEntity
  8
0
  6
CONTINUOUS
 62
    7
370
   -1
100
AcDbLine
 10
-24.97729939169702
 20
21.34525078779114
 11
-24.17684765004872
 21
21.20410954898346
  0
LINE
  5
22A
100
AcDbEntity
  8
0
  6
CONTINUOUS
 62
    7
370
   -1
100
AcDbLine
 10
-24.17684765004872
 20
21.20410954898346
 11
-23.56905819043314
 21
24.65105486145656
  0
LINE
  5
22B
100
AcDbEntity
  8
0
  6
CONTINUOUS
 62
    7
370
   -1
100
AcDbLine
 10
-23.56905819043314
 20
24.65105486145656
 11
-24.36950993208145
 21
24.79219610026424
  0
LINE
  5
22C
100
AcDbEntity
  8
0
  6
CONTINUOUS
 62
    7
370
   -1
100
AcDbLine
 10
-24.36950993208145
 20
24.79219610026424
 11
-24.19925831276969
 21
25.75774101362752
  0
LINE
  5
22D
100
AcDbEntity
  8
0
  6
CONTINUOUS
 62
    7
370
   -1
100
AcDbLine
 10
-3.784671725609606
 20
31.83003707651378
 11
-17.54243603519018
 21
34.2559021185208
  0
LINE
  5
22E
100
AcDbEntity
  8
0
  6
CONTINUOUS
 62
    7
370
   -1
100
AcDbLine
 10
-17.54243603519018
 20
34.2559021185208
 11
-17.71268765450194
 21
33.29035720515753
  0
LINE
  5
22F
100
AcDbEntity
  8
0
  6
CONTINUOUS
 62
    7
370
   -1
100
AcDbLine
 10
-17.71268765450194
 20
33.29035720515753
 11
-18.51313939615024
 21
33.43149844396521
  0
LINE
  5
230
100
AcDbEntity
  8
0
  6
CONTINUOUS
 62
    7
370
   -1
100
AcDbLine
 10
-18.51313939615024
 20
33.43149844396521
 11
-19.12092885576582
 21
29.9845531314921
  0
LINE
  5
231
100
AcDbEntity
  8
0
  6
CONTINUOUS
 62
    7
370
   -1
100
AcDbLine
 10
-19.12092885576582
 20
29.9845531314921
 11
-18.32047711411752
 21
29.84341189268444
  0
LINE
  5
232
100
AcDbEntity
  8
0
  6
CONTINUOUS
 62
    7
370
   -1
100
AcDbLine
 10
-18.32047711411752
 20
29.84341189268444
 11
-19.19025999826985
 21
24.91062803477665
  0
LINE
  5
233
100
AcDbEntity
  8
0
  6
CONTINUOUS
 62
    7
370
   -1
100
AcDbLine
 10
-19.19025999826985
 20
24.91062803477665
 11
-19.99071173991815
 21
25.05176927358433
  0
LINE
  5
234
100
AcDbEntity
  8
0
  6
CONTINUOUS
 62
    7
370
   -1
100
AcDbLine
 10
-19.99071173991815
 20
25.05176927358433
 11
-20.59850119953373
 21
21.60482396111123
  0
LINE
  5
235
100
AcDbEntity
  8
0
  6
CONTINUOUS
 62
    7
370
   -1
100
AcDbLine
 10
-20.59850119953373
 20
21.60482396111123
 11
-19.79804945788543
 21
21.46368272230355
  0
LINE
  5
236
100
AcDbEntity
  8
0
  6
CONTINUOUS
 62
    7
370
   -1
100
AcDbLine
 10
-19.79804945788543
 20
21.46368272230355
 11
-19.96830107719719
 21
20.49813780894027
  0
LINE
  5
237
100
AcDbEntity
  8
0
  6
CONTINUOUS
 62
    7
370
   -1
100
AcDbLine
 10
-19.96830107719719
 20
20.49813780894027
 11
-6.21053676761662
 21
18.07227276693325
  0
LINE
  5
238
100
AcDbEntity
  8
0
  6
CONTINUOUS
 62
    7
370
   -1
100
AcDbLine
 10
-6.21053676761662
 20
18.07227276693325
 11
-6.040285148304857
 21
19.03781768029653
  0
LINE
  5
239
100
AcDbEntity
  8
0
  6
CONTINUOUS
 62
    7
370
   -1
100
AcDbLine
 10
-6.040285148304857
 20
19.03781768029653
 11
-5.239833406656548
 21
18.89667644148885
  0
LINE
  5
23A
100
AcDbEntity
  8
0
  6
CONTINUOUS
 62
    7
370
   -1
100
AcDbLine
 10
-5.239833406656548
 20
18.89667644148885
 11
-4.632043947040973
 21
22.34362175396195
  0
LINE
  5
23B
100
AcDbEntity
  8
0
  6
CONTINUOUS
 62
    7
370
   -1
100
AcDbLine
 10
-4.632043947040973
 20
22.34362175396195
 11
-5.432495688689279
 21
22.48476299276963
  0
LINE
  5
23C
100
AcDbEntity
  8
0
  6
CONTINUOUS
 62
    7
370
   -1
100
AcDbLine
 10
-5.432495688689279
 20
22.48476299276963
 11
-4.562712804536947
 21
27.41754685067741
  0
LINE
  5
23D
100
AcDbEntity
  8
0
  6
CONTINUOUS
 62
    7
370
   -1
100
AcDbLine
 10
-4.562712804536947
 20
27.41754685067741
 11
-3.762261062888641
 21
27.27640561186973
  0
LINE
  5
23E
100
AcDbEntity
  8
0
  6
CONTINUOUS
 62
    7
370
   -1
100
AcDbLine
 10
-3.762261062888641
 20
27.27640561186973
 11
-3.154471603273063
 21
30.72335092434283
  0
LINE
  5
23F
100
AcDbEntity
  8
0
  6
CONTINUOUS
 62
    7
370
   -1
100
AcDbLine
 10
-3.154471603273063
 20
30.72335092434283
 11
-3.954923344921369
 21
30.86449216315051
  0
LINE
  5
240
100
AcDbEntity
  8
0
  6
CONTINUOUS
 62
    7
370
   -1
100
AcDbLine
 10
-3.954923344921369
 20
30.86449216315051
 11
-3.784671725609606
 21
31.83003707651378
  0
LINE
  5
241
100
AcDbEntity
  8
0
  6
CONTINUOUS
 62
    7
370
   -1
100
AcDbLine
 10
-38.78360733476256
 20
52.75036525812614
 11
-52.54137164434314
 21
55.17623030013316
  0
LINE
  5
242
100
AcDbEntity
  8
0
  6
CONTINUOUS
 62
    7
370
   -1
100
AcDbLine
 10
-52.54137164434314
 20
55.17623030013316
 11
-52.7116232636549
 21
54.21068538676989
  0
LINE
  5
243
100
AcDbEntity
  8
0
  6
CONTINUOUS
 62
    7
370
   -1
100
AcDbLine
 10
-52.7116232636549
 20
54.21068538676989
 11
-53.5120750053032
 21
54.35182662557756
  0
LINE
  5
244
100
AcDbEntity
  8
0
  6
CONTINUOUS
 62
    7
370
   -1
100
AcDbLine
 10
-53.5120750053032
 20
54.35182662557756
 11
-54.11986446491879
 21
50.90488131310446
  0
LINE
  5
245
100
AcDbEntity
  8
0
  6
CONTINUOUS
 62
    7
370
   -1
100
AcDbLine
 10
-54.11986446491879
 20
50.90488131310446
 11
-53.31941272327049
 21
50.76374007429678
  0
LINE
  5
246
100
AcDbEntity
  8
0
  6
CONTINUOUS
 62
    7
370
   -1
100
AcDbLine
 10
-53.31941272327049
 20
50.76374007429678
 11
-54.18919560742282
 21
45.830956216389
  0
LINE
  5
247
100
AcDbEntity
  8
0
  6
CONTINUOUS
 62
    7
370
   -1
100
AcDbLine
 10
-54.18919560742282
 20
45.830956216389
 11
-54.98964734907112
 21
45.97209745519668
  0
LINE
  5
248
100
AcDbEntity
  8
0
  6
CONTINUOUS
 62
    7
370
   -1
100
AcDbLine
 10
-54.98964734907112
 20
45.97209745519668
 11
-55.59743680868669
 21
42.52515214272359
  0
LINE
  5
249
100
AcDbEntity
  8
0
  6
CONTINUOUS
 62
    7
370
   -1
100
AcDbLine
 10
-55.59743680868669
 20
42.52515214272359
 11
-54.79698506703839
 21
42.38401090391591
  0
LINE
  5
24A
100
AcDbEntity
  8
0
  6
CONTINUOUS
 62
    7
370
   -1
100
AcDbLine
 10
-54.79698506703839
 20
42.38401090391591
 11
-54.96723668635016
 21
41.41846599055264
  0
LINE
  5
24B
100
AcDbEntity
  8
0
  6
CONTINUOUS
 62
    7
370
   -1
100
AcDbLine
 10
-54.96723668635016
 20
41.41846599055264
 11
-41.20947237676958
 21
38.99260094854561
  0
LINE
  5
24C
100
AcDbEntity
  8
0
  6
CONTINUOUS
 62
    7
370
   -1
100
AcDbLine
 10
-41.20947237676958
 20
38.99260094854561
 11
-41.03922075745782
 21
39.95814586190888
  0
LINE
  5
24D
100
AcDbEntity
  8
0
  6
CONTINUOUS
 62
    7
370
   -1
100
AcDbLine
 10
-41.03922075745782
 20
39.95814586190888
 11
-40.23876901580952
 21
39.8170046231012
  0
LINE
  5
24E
100
AcDbEntity
  8
0
  6
CONTINUOUS
 62
    7
370
   -1
100
AcDbLine
 10
-40.23876901580952
 20
39.8170046231012
 11
-39.63097955619394
 21
43.26394993557431
  0
LINE
  5
24F
100
AcDbEntity
  8
0
  6
CONTINUOUS
 62
    7
370
   -1
100
AcDbLine
 10
-39.63097955619394
 20
43.26394993557431
 11
-40.43143129784224
 21
43.40509117438199
  0
LINE
  5
250
100
AcDbEntity
  8
0
  6
CONTINUOUS
 62
    7
370
   -1
100
AcDbLine
 10
-40.43143129784224
 20
43.40509117438199
 11
-39.56164841368991
 21
48.33787503228976
  0
LINE
  5
251
100
AcDbEntity
  8
0
  6
CONTINUOUS
 62
    7
370
   -1
100
AcDbLine
 10
-39.56164841368991
 20
48.33787503228976
 11
-38.76119667204161
 21
48.19673379348209
  0
LINE
  5
252
100
AcDbEntity
  8
0
  6
CONTINUOUS
 62
    7
370
   -1
100
AcDbLine
 10
-38.76119667204161
 20
48.19673379348209
 11
-38.15340721242603
 21
51.64367910595519
  0
LINE
  5
253
100
AcDbEntity
  8
0
  6
CONTINUOUS
 62
    7
370
   -1
100
AcDbLine
 10
-38.15340721242603
 20
51.64367910595519
 11
-38.95385895407433
 21
51.78482034476287
  0
LINE
  5
254
100
AcDbEntity
  8
0
  6
CONTINUOUS
 62
    7
370
   -1
100
AcDbLine
 10
-38.95385895407433
 20
51.78482034476287
 11
-38.78360733476256
 21
52.75036525812614
  0
LINE
  5
255
100
AcDbEntity
  8
0
  6
CONTINUOUS
 62
    7
370
   -1
100
AcDbLine
 10
-35.47560955020755
 20
71.5109529530087
 11
-49.23337385978812
 21
73.93681799501572
  0
LINE
  5
256
100
AcDbEntity
  8
0
  6
CONTINUOUS
 62
    7
370
   -1
100
AcDbLine
 10
-49.23337385978812
 20
73.93681799501572
 11
-49.40362547909989
 21
72.97127308165244
  0
LINE
  5
257
100
AcDbEntity
  8
0
  6
CONTINUOUS
 62
    7
370
   -1
100
AcDbLine
 10
-49.40362547909989
 20
72.97127308165244
 11
-50.20407722074819
 21
73.11241432046012
  0
LINE
  5
258
100
AcDbEntity
  8
0
  6
CONTINUOUS
 62
    7
370
   -1
100
AcDbLine
 10
-50.20407722074819
 20
73.11241432046012
 11
-50.81186668036376
 21
69.66546900798701
  0
LINE
  5
259
100
AcDbEntity
  8
0
  6
CONTINUOUS
 62
    7
370
   -1
100
AcDbLine
 10
-50.81186668036376
 20
69.66546900798701
 11
-50.01141493871546
 21
69.52432776917934
  0
LINE
  5
25A
100
AcDbEntity
  8
0
  6
CONTINUOUS
 62
    7
370
   -1
100
AcDbLine
 10
-50.01141493871546
 20
69.52432776917934
 11
-50.8811978228678
 21
64.59154391127156
  0
LINE
  5
25B
100
AcDbEntity
  8
0
  6
CONTINUOUS
 62
    7
370
   -1
100
AcDbLine
 10
-50.8811978228678
 20
64.59154391127156
 11
-51.68164956451609
 21
64.73268515007923
  0
LINE
  5
25C
100
AcDbEntity
  8
0
  6
CONTINUOUS
 62
    7
370
   -1
100
AcDbLine
 10
-51.68164956451609
 20
64.73268515007923
 11
-52.28943902413168
 21
61.28573983760615
  0
LINE
  5
25D
100
AcDbEntity
  8
0
  6
CONTINUOUS
 62
    7
370
   -1
100
AcDbLine
 10
-52.28943902413168
 20
61.28573983760615
 11
-51.48898728248338
 21
61.14459859879847
  0
LINE
  5
25E
100
AcDbEntity
  8
0
  6
CONTINUOUS
 62
    7
370
   -1
100
AcDbLine
 10
-51.48898728248338
 20
61.14459859879847
 11
-51.65923890179513
 21
60.17905368543517
  0
LINE
  5
25F
100
AcDbEntity
  8
0
  6
CONTINUOUS
 62
    7
370
   -1
100
AcDbLine
 10
-51.65923890179513
 20
60.17905368543517
 11
-37.90147459221456
 21
57.75318864342817
  0
LINE
  5
260
100
AcDbEntity
  8
0
  6
CONTINUOUS
 62
    7
370
   -1
100
AcDbLine
 10
-37.90147459221456
 20
57.75318864342817
 11
-37.7312229729028
 21
58.71873355679145
  0
LINE
  5
261
100
AcDbEntity
  8
0
  6
CONTINUOUS
 62
    7
370
   -1
100
AcDbLine
 10
-37.7312229729028
 20
58.71873355679145
 11
-36.9307712312545
 21
58.57759231798378
  0
LINE
  5
262
100
AcDbEntity
  8
0
  6
CONTINUOUS
 62
    7
370
   -1
100
AcDbLine
 10
-36.9307712312545
 20
58.57759231798378
 11
-36.32298177163892
 21
62.02453763045687
  0
LINE
  5
263
100
AcDbEntity
  8
0
  6
CONTINUOUS
 62
    7
370
   -1
100
AcDbLine
 10
-36.32298177163892
 20
62.02453763045687
 11
-37.12343351328722
 21
62.16567886926455
  0
LINE
  5
264
100
AcDbEntity
  8
0
  6
CONTINUOUS
 62
    7
370
   -1
100
AcDbLine
 10
-37.12343351328722
 20
62.16567886926455
 11
-36.25365062913489
 21
67.0984627271723
  0
LINE
  5
265
100
AcDbEntity
  8
0
  6
CONTINUOUS
 62
    7
370
   -1
100
AcDbLine
 10
-36.25365062913489
 20
67.0984627271723
 11
-35.45319888748659
 21
66.95732148836464
  0
LINE
  5
266
100
AcDbEntity
  8
0
  6
CONTINUOUS
 62
    7
370
   -1
100
AcDbLine
 10
-35.45319888748659
 20
66.95732148836464
 11
-34.845409427871
 21
70.40426680083775
  0
LINE
  5
267
100
AcDbEntity
  8
0
  6
CONTINUOUS
 62
    7
370
   -1
100
AcDbLine
 10
-34.845409427871
 20
70.40426680083775
 11
-35.64586116951931
 21
70.54540803964542
  0
LINE
  5
268
100
AcDbEntity
  8
0
  6
CONTINUOUS
 62
    7
370
   -1
100
AcDbLine
 10
-35.64586116951931
 20
70.54540803964542
 11
-35.47560955020755
 21
71.5109529530087
  0
LINE
  5
269
100
AcDbEntity
  8
0
  6
CONTINUOUS
 62
    7
370
   -1
100
AcDbLine
 10
-32.16761176565252
 20
90.27154064789124
 11
-45.9253760752331
 21
92.69740568989828
  0
LINE
  5
26A
100
AcDbEntity
  8
0
  6
CONTINUOUS
 62
    7
370
   -1
100
AcDbLine
 10
-45.9253760752331
 20
92.69740568989828
 11
-46.09562769454486
 21
91.731860776535
  0
LINE
  5
26B
100
AcDbEntity
  8
0
  6
CONTINUOUS
 62
    7
370
   -1
100
AcDbLine
 10
-46.09562769454486
 20
91.731860776535
 11
-46.89607943619316
 21
91.87300201534268
  0
LINE
  5
26C
100
AcDbEntity
  8
0
  6
CONTINUOUS
 62
    7
370
   -1
100
AcDbLine
 10
-46.89607943619316
 20
91.87300201534268
 11
-47.50386889580874
 21
88.42605670286957
  0
LINE
  5
26D
100
AcDbEntity
  8
0
  6
CONTINUOUS
 62
    7
370
   -1
100
AcDbLine
 10
-47.50386889580874
 20
88.42605670286957
 11
-46.70341715416044
 21
88.2849154640619
  0
LINE
  5
26E
100
AcDbEntity
  8
0
  6
CONTINUOUS
 62
    7
370
   -1
100
AcDbLine
 10
-46.70341715416044
 20
88.2849154640619
 11
-47.57320003831278
 21
83.35213160615412
  0
LINE
  5
26F
100
AcDbEntity
  8
0
  6
CONTINUOUS
 62
    7
370
   -1
100
AcDbLine
 10
-47.57320003831278
 20
83.35213160615412
 11
-48.37365177996108
 21
83.49327284496179
  0
LINE
  5
270
100
AcDbEntity
  8
0
  6
CONTINUOUS
 62
    7
370
   -1
100
AcDbLine
 10
-48.37365177996108
 20
83.49327284496179
 11
-48.98144123957665
 21
80.0463275324887
  0
LINE
  5
271
100
AcDbEntity
  8
0
  6
CONTINUOUS
 62
    7
370
   -1
100
AcDbLine
 10
-48.98144123957665
 20
80.0463275324887
 11
-48.18098949792835
 21
79.90518629368103
  0
LINE
  5
272
100
AcDbEntity
  8
0
  6
CONTINUOUS
 62
    7
370
   -1
100
AcDbLine
 10
-48.18098949792835
 20
79.90518629368103
 11
-48.35124111724011
 21
78.93964138031774
  0
LINE
  5
273
100
AcDbEntity
  8
0
  6
CONTINUOUS
 62
    7
370
   -1
100
AcDbLine
 10
-48.35124111724011
 20
78.93964138031774
 11
-34.59347680765954
 21
76.51377633831072
  0
LINE
  5
274
100
AcDbEntity
  8
0
  6
CONTINUOUS
 62
    7
370
   -1
100
AcDbLine
 10
-34.59347680765954
 20
76.51377633831072
 11
-34.42322518834777
 21
77.47932125167399
  0
LINE
  5
275
100
AcDbEntity
  8
0
  6
CONTINUOUS
 62
    7
370
   -1
100
AcDbLine
 10
-34.42322518834777
 20
77.47932125167399
 11
-33.62277344669947
 21
77.33818001286632
  0
LINE
  5
276
100
AcDbEntity
  8
0
  6
CONTINUOUS
 62
    7
370
   -1
100
AcDbLine
 10
-33.62277344669947
 20
77.33818001286632
 11
-33.01498398708389
 21
80.78512532533941
  0
LINE
  5
277
100
AcDbEntity
  8
0
  6
CONTINUOUS
 62
    7
370
   -1
100
AcDbLine
 10
-33.01498398708389
 20
80.78512532533941
 11
-33.8154357287322
 21
80.92626656414708
  0
LINE
  5
278
100
AcDbEntity
  8
0
  6
CONTINUOUS
 62
    7
370
   -1
100
AcDbLine
 10
-33.8154357287322
 20
80.92626656414708
 11
-32.94565284457987
 21
85.85905042205486
  0
LINE
  5
279
100
AcDbEntity
  8
0
  6
CONTINUOUS
 62
    7
370
   -1
100
AcDbLine
 10
-32.94565284457987
 20
85.85905042205486
 11
-32.14520110293157
 21
85.71790918324719
  0
LINE
  5
27A
100
AcDbEntity
  8
0
  6
CONTINUOUS
 62
    7
370
   -1
100
AcDbLine
 10
-32.14520110293157
 20
85.71790918324719
 11
-31.53741164331598
 21
89.16485449572029
  0
LINE
  5
27B
100
AcDbEntity
  8
0
  6
CONTINUOUS
 62
    7
370
   -1
100
AcDbLine
 10
-31.53741164331598
 20
89.16485449572029
 11
-32.33786338496429
 21
89.30599573452797
  0
LINE
  5
27C
100
AcDbEntity
  8
0
  6
CONTINUOUS
 62
    7
370
   -1
100
AcDbLine
 10
-32.33786338496429
 20
89.30599573452797
 11
-32.16761176565252
 21
90.27154064789124
  0
LINE
  5
27D
100
AcDbEntity
  8
0
  6
CONTINUOUS
 62
    7
370
   -1
100
AcDbLine
 10
-42.09160511931759
 20
33.98977756324359
 11
-55.84936942889817
 21
36.4156426052506
  0
LINE
  5
27E
100
AcDbEntity
  8
0
  6
CONTINUOUS
 62
    7
370
   -1
100
AcDbLine
 10
-55.84936942889817
 20
36.4156426052506
 11
-56.01962104820993
 21
35.45009769188732
  0
LINE
  5
27F
100
AcDbEntity
  8
0
  6
CONTINUOUS
 62
    7
370
   -1
100
AcDbLine
 10
-56.01962104820993
 20
35.45009769188732
 11
-56.82007278985823
 21
35.59123893069501
  0
LINE
  5
280
100
AcDbEntity
  8
0
  6
CONTINUOUS
 62
    7
370
   -1
100
AcDbLine
 10
-56.82007278985823
 20
35.59123893069501
 11
-57.4278622494738
 21
32.1442936182219
  0
LINE
  5
281
100
AcDbEntity
  8
0
  6
CONTINUOUS
 62
    7
370
   -1
100
AcDbLine
 10
-57.4278622494738
 20
32.1442936182219
 11
-56.6274105078255
 21
32.00315237941423
  0
LINE
  5
282
100
AcDbEntity
  8
0
  6
CONTINUOUS
 62
    7
370
   -1
100
AcDbLine
 10
-56.6274105078255
 20
32.00315237941423
 11
-57.49719339197785
 21
27.07036852150645
  0
LINE
  5
283
100
AcDbEntity
  8
0
  6
CONTINUOUS
 62
    7
370
   -1
100
AcDbLine
 10
-57.49719339197785
 20
27.07036852150645
 11
-58.29764513362615
 21
27.21150976031412
  0
LINE
  5
284
100
AcDbEntity
  8
0
  6
CONTINUOUS
 62
    7
370
   -1
100
AcDbLine
 10
-58.29764513362615
 20
27.21150976031412
 11
-58.90543459324172
 21
23.76456444784102
  0
LINE
  5
285
100
AcDbEntity
  8
0
  6
CONTINUOUS
 62
    7
370
   -1
100
AcDbLine
 10
-58.90543459324172
 20
23.76456444784102
 11
-58.10498285159342
 21
23.62342320903335
  0
LINE
  5
286
100
AcDbEntity
  8
0
  6
CONTINUOUS
 62
    7
370
   -1
100
AcDbLine
 10
-58.10498285159342
 20
23.62342320903335
 11
-58.27523447090518
 21
22.65787829567007
  0
LINE
  5
287
100
AcDbEntity
  8
0
  6
CONTINUOUS
 62
    7
370
   -1
100
AcDbLine
 10
-58.27523447090518
 20
22.65787829567007
 11
-44.51747016132461
 21
20.23201325366305
  0
LINE
  5
288
100
AcDbEntity
  8
0
  6
CONTINUOUS
 62
    7
370
   -1
100
AcDbLine
 10
-44.51747016132461
 20
20.23201325366305
 11
-44.34721854201284
 21
21.19755816702633
  0
LINE
  5
289
100
AcDbEntity
  8
0
  6
CONTINUOUS
 62
    7
370
   -1
100
AcDbLine
 10
-44.34721854201284
 20
21.19755816702633
 11
-43.54676680036454
 21
21.05641692821865
  0
LINE
  5
28A
100
AcDbEntity
  8
0
  6
CONTINUOUS
 62
    7
370
   -1
100
AcDbLine
 10
-43.54676680036454
 20
21.05641692821865
 11
-42.93897734074896
 21
24.50336224069175
  0
LINE
  5
28B
100
AcDbEntity
  8
0
  6
CONTINUOUS
 62
    7
370
   -1
100
AcDbLine
 10
-42.93897734074896
 20
24.50336224069175
 11
-43.73942908239727
 21
24.64450347949943
  0
LINE
  5
28C
100
AcDbEntity
  8
0
  6
CONTINUOUS
 62
    7
370
   -1
100
AcDbLine
 10
-43.73942908239727
 20
24.64450347949943
 11
-42.86964619824494
 21
29.57728733740721
  0
LINE
  5
28D
100
AcDbEntity
  8
0
  6
CONTINUOUS
 62
    7
370
   -1
100
AcDbLine
 10
-42.86964619824494
 20
29.57728733740721
 11
-42.06919445659663
 21
29.43614609859953
  0
LINE
  5
28E
100
AcDbEntity
  8
0
  6
CONTINUOUS
 62
    7
370
   -1
100
AcDbLine
 10
-42.06919445659663
 20
29.43614609859953
 11
-41.46140499698105
 21
32.88309141107263
  0
LINE
  5
28F
100
AcDbEntity
  8
0
  6
CONTINUOUS
 62
    7
370
   -1
100
AcDbLine
 10
-41.46140499698105
 20
32.88309141107263
 11
-42.26185673862935
 21
33.0242326498803
  0
LINE
  5
290
100
AcDbEntity
  8
0
  6
CONTINUOUS
 62
    7
370
   -1
100
AcDbLine
 10
-42.26185673862935
 20
33.0242326498803
 11
-42.09160511931759
 21
33.98977756324359
  0
LINE
  5
291
100
AcDbEntity
  8
0
  6
CONTINUOUS
 62
    7
370
   -1
100
AcDbLine
 10
-56.50230596364355
 20
61.96720956075442
 11
-70.26007027322412
 21
64.39307460276144
  0
LINE
  5
292
100
AcDbEntity
  8
0
  6
CONTINUOUS
 62
    7
370
   -1
100
AcDbLine
 10
-70.26007027322412
 20
64.39307460276144
 11
-70.43032189253589
 21
63.42752968939815
  0
LINE
  5
293
100
AcDbEntity
  8
0
  6
CONTINUOUS
 62
    7
370
   -1
100
AcDbLine
 10
-70.43032189253589
 20
63.42752968939815
 11
-71.23077363418419
 21
63.56867092820581
  0
LINE
  5
294
100
AcDbEntity
  8
0
  6
CONTINUOUS
 62
    7
370
   -1
100
AcDbLine
 10
-71.23077363418419
 20
63.56867092820581
 11
-71.83856309379976
 21
60.12172561573274
  0
LINE
  5
295
100
AcDbEntity
  8
0
  6
CONTINUOUS
 62
    7
370
   -1
100
AcDbLine
 10
-71.83856309379976
 20
60.12172561573274
 11
-71.03811135215146
 21
59.98058437692506
  0
LINE
  5
296
100
AcDbEntity
  8
0
  6
CONTINUOUS
 62
    7
370
   -1
100
AcDbLine
 10
-71.03811135215146
 20
59.98058437692506
 11
-71.90789423630379
 21
55.04780051901728
  0
LINE
  5
297
100
AcDbEntity
  8
0
  6
CONTINUOUS
 62
    7
370
   -1
100
AcDbLine
 10
-71.90789423630379
 20
55.04780051901728
 11
-72.70834597795209
 21
55.18894175782495
  0
LINE
  5
298
100
AcDbEntity
  8
0
  6
CONTINUOUS
 62
    7
370
   -1
100
AcDbLine
 10
-72.70834597795209
 20
55.18894175782495
 11
-73.31613543756768
 21
51.74199644535185
  0
LINE
  5
299
100
AcDbEntity
  8
0
  6
CONTINUOUS
 62
    7
370
   -1
100
AcDbLine
 10
-73.31613543756768
 20
51.74199644535185
 11
-72.51568369591938
 21
51.60085520654417
  0
LINE
  5
29A
100
AcDbEntity
  8
0
  6
CONTINUOUS
 62
    7
370
   -1
100
AcDbLine
 10
-72.51568369591938
 20
51.60085520654417
 11
-72.68593531523113
 21
50.6353102931809
  0
LINE
  5
29B
100
AcDbEntity
  8
0
  6
CONTINUOUS
 62
    7
370
   -1
100
AcDbLine
 10
-72.68593531523113
 20
50.6353102931809
 11
-58.92817100565057
 21
48.20944525117388
  0
LINE
  5
29C
100
AcDbEntity
  8
0
  6
CONTINUOUS
 62
    7
370
   -1
100
AcDbLine
 10
-58.92817100565057
 20
48.20944525117388
 11
-58.7579193863388
 21
49.17499016453715
  0
LINE
  5
29D
100
AcDbEntity
  8
0
  6
CONTINUOUS
 62
    7
370
   -1
100
AcDbLine
 10
-58.7579193863388
 20
49.17499016453715
 11
-57.9574676446905
 21
49.03384892572948
  0
LINE
  5
29E
100
AcDbEntity
  8
0
  6
CONTINUOUS
 62
    7
370
   -1
100
AcDbLine
 10
-57.9574676446905
 20
49.03384892572948
 11
-57.34967818507491
 21
52.48079423820258
  0
LINE
  5
29F
100
AcDbEntity
  8
0
  6
CONTINUOUS
 62
    7
370
   -1
100
AcDbLine
 10
-57.34967818507491
 20
52.48079423820258
 11
-58.15012992672322
 21
52.62193547701026
  0
LINE
  5
2A0
100
AcDbEntity
  8
0
  6
CONTINUOUS
 62
    7
370
   -1
100
AcDbLine
 10
-58.15012992672322
 20
52.62193547701026
 11
-57.2803470425709
 21
57.55471933491804
  0
LINE
  5
2A1
100
AcDbEntity
  8
0
  6
CONTINUOUS
 62
    7
370
   -1
100
AcDbLine
 10
-57.2803470425709
 20
57.55471933491804
 11
-56.47989530092258
 21
57.41357809611036
  0
LINE
  5
2A2
100
AcDbEntity
  8
0
  6
CONTINUOUS
 62
    7
370
   -1
100
AcDbLine
 10
-56.47989530092258
 20
57.41357809611036
 11
-55.872105841307
 21
60.86052340858345
  0
LINE
  5
2A3
100
AcDbEntity
  8
0
  6
CONTINUOUS
 62
    7
370
   -1
100
AcDbLine
 10
-55.872105841307
 20
60.86052340858345
 11
-56.67255758295531
 21
61.00166464739113
  0
LINE
  5
2A4
100
AcDbEntity
  8
0
  6
CONTINUOUS
 62
    7
370
   -1
100
AcDbLine
 10
-56.67255758295531
 20
61.00166464739113
 11
-56.50230596364355
 21
61.96720956075442
  0
LINE
  5
2A5
100
AcDbEntity
  8
0
  6
CONTINUOUS
 62
    7
370
   -1
100
AcDbLine
 10
-53.19430817908852
 20
80.72779725563696
 11
-66.9520724886691
 21
83.15366229764398
  0
LINE
  5
2A6
100
AcDbEntity
  8
0
  6
CONTINUOUS
 62
    7
370
   -1
100
AcDbLine
 10
-66.9520724886691
 20
83.15366229764398
 11
-67.12232410798086
 21
82.1881173842807
  0
LINE
  5
2A7
100
AcDbEntity
  8
0
  6
CONTINUOUS
 62
    7
370
   -1
100
AcDbLine
 10
-67.12232410798086
 20
82.1881173842807
 11
-67.92277584962916
 21
82.32925862308838
  0
LINE
  5
2A8
100
AcDbEntity
  8
0
  6
CONTINUOUS
 62
    7
370
   -1
100
AcDbLine
 10
-67.92277584962916
 20
82.32925862308838
 11
-68.53056530924475
 21
78.88231331061529
  0
LINE
  5
2A9
100
AcDbEntity
  8
0
  6
CONTINUOUS
 62
    7
370
   -1
100
AcDbLine
 10
-68.53056530924475
 20
78.88231331061529
 11
-67.73011356759645
 21
78.74117207180761
  0
LINE
  5
2AA
100
AcDbEntity
  8
0
  6
CONTINUOUS
 62
    7
370
   -1
100
AcDbLine
 10
-67.73011356759645
 20
78.74117207180761
 11
-68.59989645174878
 21
73.80838821389983
  0
LINE
  5
2AB
100
AcDbEntity
  8
0
  6
CONTINUOUS
 62
    7
370
   -1
100
AcDbLine
 10
-68.59989645174878
 20
73.80838821389983
 11
-69.40034819339708
 21
73.94952945270751
  0
LINE
  5
2AC
100
AcDbEntity
  8
0
  6
CONTINUOUS
 62
    7
370
   -1
100
AcDbLine
 10
-69.40034819339708
 20
73.94952945270751
 11
-70.00813765301265
 21
70.5025841402344
  0
LINE
  5
2AD
100
AcDbEntity
  8
0
  6
CONTINUOUS
 62
    7
370
   -1
100
AcDbLine
 10
-70.00813765301265
 20
70.5025841402344
 11
-69.20768591136435
 21
70.36144290142673
  0
LINE
  5
2AE
100
AcDbEntity
  8
0
  6
CONTINUOUS
 62
    7
370
   -1
100
AcDbLine
 10
-69.20768591136435
 20
70.36144290142673
 11
-69.37793753067612
 21
69.39589798806345
  0
LINE
  5
2AF
100
AcDbEntity
  8
0
  6
CONTINUOUS
 62
    7
370
   -1
100
AcDbLine
 10
-69.37793753067612
 20
69.39589798806345
 11
-55.62017322109554
 21
66.97003294605643
  0
LINE
  5
2B0
100
AcDbEntity
  8
0
  6
CONTINUOUS
 62
    7
370
   -1
100
AcDbLine
 10
-55.62017322109554
 20
66.97003294605643
 11
-55.44992160178379
 21
67.93557785941969
  0
LINE
  5
2B1
100
AcDbEntity
  8
0
  6
CONTINUOUS
 62
    7
370
   -1
100
AcDbLine
 10
-55.44992160178379
 20
67.93557785941969
 11
-54.64946986013547
 21
67.79443662061203
  0
LINE
  5
2B2
100
AcDbEntity
  8
0
  6
CONTINUOUS
 62
    7
370
   -1
100
AcDbLine
 10
-54.64946986013547
 20
67.79443662061203
 11
-54.04168040051989
 21
71.24138193308514
  0
LINE
  5
2B3
100
AcDbEntity
  8
0
  6
CONTINUOUS
 62
    7
370
   -1
100
AcDbLine
 10
-54.04168040051989
 20
71.24138193308514
 11
-54.8421321421682
 21
71.38252317189281
  0
LINE
  5
2B4
100
AcDbEntity
  8
0
  6
CONTINUOUS
 62
    7
370
   -1
100
AcDbLine
 10
-54.8421321421682
 20
71.38252317189281
 11
-53.97234925801587
 21
76.31530702980058
  0
LINE
  5
2B5
100
AcDbEntity
  8
0
  6
CONTINUOUS
 62
    7
370
   -1
100
AcDbLine
 10
-53.97234925801587
 20
76.31530702980058
 11
-53.17189751636757
 21
76.1741657909929
  0
LINE
  5
2B6
100
AcDbEntity
  8
0
  6
CONTINUOUS
 62
    7
370
   -1
100
AcDbLine
 10
-53.17189751636757
 20
76.1741657909929
 11
-52.56410805675198
 21
79.62111110346601
  0
LINE
  5
2B7
100
AcDbEntity
  8
0
  6
CONTINUOUS
 62
    7
370
   -1
100
AcDbLine
 10
-52.56410805675198
 20
79.62111110346601
 11
-53.36455979840029
 21
79.76225234227368
  0
LINE
  5
2B8
100
AcDbEntity
  8
0
  6
CONTINUOUS
 62
    7
370
   -1
100
AcDbLine
 10
-53.36455979840029
 20
79.76225234227368
 11
-53.19430817908852
 21
80.72779725563696
  0
LINE
  5
2B9
100
AcDbEntity
  8
0
  6
CONTINUOUS
 62
    7
370
   -1
100
AcDbLine
 10
-49.88631039453351
 20
99.48838495051952
 11
-63.64407470411408
 21
101.9142499925265
  0
LINE
  5
2BA
100
AcDbEntity
  8
0
  6
CONTINUOUS
 62
    7
370
   -1
100
AcDbLine
 10
-63.64407470411408
 20
101.9142499925265
 11
-63.81432632342585
 21
100.9487050791633
  0
LINE
  5
2BB
100
AcDbEntity
  8
0
  6
CONTINUOUS
 62
    7
370
   -1
100
AcDbLine
 10
-63.81432632342585
 20
100.9487050791633
 11
-64.61477806507415
 21
101.0898463179709
  0
LINE
  5
2BC
100
AcDbEntity
  8
0
  6
CONTINUOUS
 62
    7
370
   -1
100
AcDbLine
 10
-64.61477806507415
 20
101.0898463179709
 11
-65.22256752468972
 21
97.64290100549785
  0
LINE
  5
2BD
100
AcDbEntity
  8
0
  6
CONTINUOUS
 62
    7
370
   -1
100
AcDbLine
 10
-65.22256752468972
 20
97.64290100549785
 11
-64.42211578304142
 21
97.50175976669017
  0
LINE
  5
2BE
100
AcDbEntity
  8
0
  6
CONTINUOUS
 62
    7
370
   -1
100
AcDbLine
 10
-64.42211578304142
 20
97.50175976669017
 11
-65.29189866719375
 21
92.56897590878239
  0
LINE
  5
2BF
100
AcDbEntity
  8
0
  6
CONTINUOUS
 62
    7
370
   -1
100
AcDbLine
 10
-65.29189866719375
 20
92.56897590878239
 11
-66.09235040884205
 21
92.71011714759007
  0
LINE
  5
2C0
100
AcDbEntity
  8
0
  6
CONTINUOUS
 62
    7
370
   -1
100
AcDbLine
 10
-66.09235040884205
 20
92.71011714759007
 11
-66.70013986845763
 21
89.26317183511696
  0
LINE
  5
2C1
100
AcDbEntity
  8
0
  6
CONTINUOUS
 62
    7
370
   -1
100
AcDbLine
 10
-66.70013986845763
 20
89.26317183511696
 11
-65.89968812680932
 21
89.12203059630929
  0
LINE
  5
2C2
100
AcDbEntity
  8
0
  6
CONTINUOUS
 62
    7
370
   -1
100
AcDbLine
 10
-65.89968812680932
 20
89.12203059630929
 11
-66.06993974612109
 21
88.15648568294601
  0
LINE
  5
2C3
100
AcDbEntity
  8
0
  6
CONTINUOUS
 62
    7
370
   -1
100
AcDbLine
 10
-66.06993974612109
 20
88.15648568294601
 11
-52.31217543654051
 21
85.73062064093899
  0
LINE
  5
2C4
100
AcDbEntity
  8
0
  6
CONTINUOUS
 62
    7
370
   -1
100
AcDbLine
 10
-52.31217543654051
 20
85.73062064093899
 11
-52.14192381722876
 21
86.69616555430227
  0
LINE
  5
2C5
100
AcDbEntity
  8
0
  6
CONTINUOUS
 62
    7
370
   -1
100
AcDbLine
 10
-52.14192381722876
 20
86.69616555430227
 11
-51.34147207558044
 21
86.55502431549459
  0
LINE
  5
2C6
100
AcDbEntity
  8
0
  6
CONTINUOUS
 62
    7
370
   -1
100
AcDbLine
 10
-51.34147207558044
 20
86.55502431549459
 11
-50.73368261596487
 21
90.0019696279677
  0
LINE
  5
2C7
100
AcDbEntity
  8
0
  6
CONTINUOUS
 62
    7
370
   -1
100
AcDbLine
 10
-50.73368261596487
 20
90.0019696279677
 11
-51.53413435761318
 21
90.14311086677537
  0
LINE
  5
2C8
100
AcDbEntity
  8
0
  6
CONTINUOUS
 62
    7
370
   -1
100
AcDbLine
 10
-51.53413435761318
 20
90.14311086677537
 11
-50.66435147346085
 21
95.07589472468315
  0
LINE
  5
2C9
100
AcDbEntity
  8
0
  6
CONTINUOUS
 62
    7
370
   -1
100
AcDbLine
 10
-50.66435147346085
 20
95.07589472468315
 11
-49.86389973181254
 21
94.93475348587548
  0
LINE
  5
2CA
100
AcDbEntity
  8
0
  6
CONTINUOUS
 62
    7
370
   -1
100
AcDbLine
 10
-49.86389973181254
 20
94.93475348587548
 11
-49.25611027219696
 21
98.38169879834857
  0
LINE
  5
2CB
100
AcDbEntity
  8
0
  6
CONTINUOUS
 62
    7
370
   -1
100
AcDbLine
 10
-49.25611027219696
 20
98.38169879834857
 11
-50.05656201384527
 21
98.52284003715624
  0
LINE
  5
2CC
100
AcDbEntity
  8
0
  6
CONTINUOUS
 62
    7
370
   -1
100
AcDbLine
 10
-50.05656201384527
 20
98.52284003715624
 11
-49.88631039453351
 21
99.48838495051952
  0
LINE
  5
2CD
100
AcDbEntity
  8
0
  6
CONTINUOUS
 62
    7
370
   -1
100
AcDbLine
 10
-59.81030374819858
 20
43.20662186587184
 11
-73.56806805777914
 21
45.63248690787889
  0
LINE
  5
2CE
100
AcDbEntity
  8
0
  6
CONTINUOUS
 62
    7
370
   -1
100
AcDbLine
 10
-73.56806805777914
 20
45.63248690787889
 11
-73.73831967709091
 21
44.66694199451559
  0
LINE
  5
2CF
100
AcDbEntity
  8
0
  6
CONTINUOUS
 62
    7
370
   -1
100
AcDbLine
 10
-73.73831967709091
 20
44.66694199451559
 11
-74.53877141873922
 21
44.80808323332326
  0
LINE
  5
2D0
100
AcDbEntity
  8
0
  6
CONTINUOUS
 62
    7
370
   -1
100
AcDbLine
 10
-74.53877141873922
 20
44.80808323332326
 11
-75.14656087835479
 21
41.36113792085017
  0
LINE
  5
2D1
100
AcDbEntity
  8
0
  6
CONTINUOUS
 62
    7
370
   -1
100
AcDbLine
 10
-75.14656087835479
 20
41.36113792085017
 11
-74.34610913670649
 21
41.2199966820425
  0
LINE
  5
2D2
100
AcDbEntity
  8
0
  6
CONTINUOUS
 62
    7
370
   -1
100
AcDbLine
 10
-74.34610913670649
 20
41.2199966820425
 11
-75.21589202085882
 21
36.28721282413472
  0
LINE
  5
2D3
100
AcDbEntity
  8
0
  6
CONTINUOUS
 62
    7
370
   -1
100
AcDbLine
 10
-75.21589202085882
 20
36.28721282413472
 11
-76.01634376250712
 21
36.4283540629424
  0
LINE
  5
2D4
100
AcDbEntity
  8
0
  6
CONTINUOUS
 62
    7
370
   -1
100
AcDbLine
 10
-76.01634376250712
 20
36.4283540629424
 11
-76.62413322212269
 21
32.98140875046929
  0
LINE
  5
2D5
100
AcDbEntity
  8
0
  6
CONTINUOUS
 62
    7
370
   -1
100
AcDbLine
 10
-76.62413322212269
 20
32.98140875046929
 11
-75.82368148047439
 21
32.84026751166162
  0
LINE
  5
2D6
100
AcDbEntity
  8
0
  6
CONTINUOUS
 62
    7
370
   -1
100
AcDbLine
 10
-75.82368148047439
 20
32.84026751166162
 11
-75.99393309978616
 21
31.87472259829834
  0
LINE
  5
2D7
100
AcDbEntity
  8
0
  6
CONTINUOUS
 62
    7
370
   -1
100
AcDbLine
 10
-75.99393309978616
 20
31.87472259829834
 11
-62.23616879020558
 21
29.44885755629132
  0
LINE
  5
2D8
100
AcDbEntity
  8
0
  6
CONTINUOUS
 62
    7
370
   -1
100
AcDbLine
 10
-62.23616879020558
 20
29.44885755629132
 11
-62.06591717089383
 21
30.4144024696546
  0
LINE
  5
2D9
100
AcDbEntity
  8
0
  6
CONTINUOUS
 62
    7
370
   -1
100
AcDbLine
 10
-62.06591717089383
 20
30.4144024696546
 11
-61.26546542924551
 21
30.27326123084692
  0
LINE
  5
2DA
100
AcDbEntity
  8
0
  6
CONTINUOUS
 62
    7
370
   -1
100
AcDbLine
 10
-61.26546542924551
 20
30.27326123084692
 11
-60.65767596962993
 21
33.72020654332002
  0
LINE
  5
2DB
100
AcDbEntity
  8
0
  6
CONTINUOUS
 62
    7
370
   -1
100
AcDbLine
 10
-60.65767596962993
 20
33.72020654332002
 11
-61.45812771127825
 21
33.8613477821277
  0
LINE
  5
2DC
100
AcDbEntity
  8
0
  6
CONTINUOUS
 62
    7
370
   -1
100
AcDbLine
 10
-61.45812771127825
 20
33.8613477821277
 11
-60.58834482712591
 21
38.79413164003548
  0
LINE
  5
2DD
100
AcDbEntity
  8
0
  6
CONTINUOUS
 62
    7
370
   -1
100
AcDbLine
 10
-60.58834482712591
 20
38.79413164003548
 11
-59.78789308547761
 21
38.6529904012278
  0
LINE
  5
2DE
100
AcDbEntity
  8
0
  6
CONTINUOUS
 62
    7
370
   -1
100
AcDbLine
 10
-59.78789308547761
 20
38.6529904012278
 11
-59.18010362586203
 21
42.09993571370089
  0
LINE
  5
2DF
100
AcDbEntity
  8
0
  6
CONTINUOUS
 62
    7
370
   -1
100
AcDbLine
 10
-59.18010362586203
 20
42.09993571370089
 11
-59.98055536751033
 21
42.24107695250857
  0
LINE
  5
2E0
100
AcDbEntity
  8
0
  6
CONTINUOUS
 62
    7
370
   -1
100
AcDbLine
 10
-59.98055536751033
 20
42.24107695250857
 11
-59.81030374819858
 21
43.20662186587184
  0
LINE
  5
2E1
100
AcDbEntity
  8
0
  6
CONTINUOUS
 62
    7
370
   -1
100
AcDbLine
 10
-76.13113454686076
 20
60.35116858024839
 11
-89.88889885644132
 21
62.77703362225541
  0
LINE
  5
2E2
100
AcDbEntity
  8
0
  6
CONTINUOUS
 62
    7
370
   -1
100
AcDbLine
 10
-89.88889885644132
 20
62.77703362225541
 11
-90.05915047575309
 21
61.81148870889213
  0
LINE
  5
2E3
100
AcDbEntity
  8
0
  6
CONTINUOUS
 62
    7
370
   -1
100
AcDbLine
 10
-90.05915047575309
 20
61.81148870889213
 11
-90.85960221740139
 21
61.95262994769981
  0
LINE
  5
2E4
100
AcDbEntity
  8
0
  6
CONTINUOUS
 62
    7
370
   -1
100
AcDbLine
 10
-90.85960221740139
 20
61.95262994769981
 11
-91.46739167701696
 21
58.50568463522672
  0
LINE
  5
2E5
100
AcDbEntity
  8
0
  6
CONTINUOUS
 62
    7
370
   -1
100
AcDbLine
 10
-91.46739167701696
 20
58.50568463522672
 11
-90.66693993536866
 21
58.36454339641903
  0
LINE
  5
2E6
100
AcDbEntity
  8
0
  6
CONTINUOUS
 62
    7
370
   -1
100
AcDbLine
 10
-90.66693993536866
 20
58.36454339641903
 11
-91.53672281952099
 21
53.43175953851125
  0
LINE
  5
2E7
100
AcDbEntity
  8
0
  6
CONTINUOUS
 62
    7
370
   -1
100
AcDbLine
 10
-91.53672281952099
 20
53.43175953851125
 11
-92.33717456116929
 21
53.57290077731894
  0
LINE
  5
2E8
100
AcDbEntity
  8
0
  6
CONTINUOUS
 62
    7
370
   -1
100
AcDbLine
 10
-92.33717456116929
 20
53.57290077731894
 11
-92.94496402078487
 21
50.12595546484584
  0
LINE
  5
2E9
100
AcDbEntity
  8
0
  6
CONTINUOUS
 62
    7
370
   -1
100
AcDbLine
 10
-92.94496402078487
 20
50.12595546484584
 11
-92.14451227913656
 21
49.98481422603816
  0
LINE
  5
2EA
100
AcDbEntity
  8
0
  6
CONTINUOUS
 62
    7
370
   -1
100
AcDbLine
 10
-92.14451227913656
 20
49.98481422603816
 11
-92.31476389844833
 21
49.01926931267488
  0
LINE
  5
2EB
100
AcDbEntity
  8
0
  6
CONTINUOUS
 62
    7
370
   -1
100
AcDbLine
 10
-92.31476389844833
 20
49.01926931267488
 11
-78.55699958886778
 21
46.59340427066787
  0
LINE
  5
2EC
100
AcDbEntity
  8
0
  6
CONTINUOUS
 62
    7
370
   -1
100
AcDbLine
 10
-78.55699958886778
 20
46.59340427066787
 11
-78.38674796955601
 21
47.55894918403114
  0
LINE
  5
2ED
100
AcDbEntity
  8
0
  6
CONTINUOUS
 62
    7
370
   -1
100
AcDbLine
 10
-78.38674796955601
 20
47.55894918403114
 11
-77.58629622790771
 21
47.41780794522346
  0
LINE
  5
2EE
100
AcDbEntity
  8
0
  6
CONTINUOUS
 62
    7
370
   -1
100
AcDbLine
 10
-77.58629622790771
 20
47.41780794522346
 11
-76.97850676829212
 21
50.86475325769655
  0
LINE
  5
2EF
100
AcDbEntity
  8
0
  6
CONTINUOUS
 62
    7
370
   -1
100
AcDbLine
 10
-76.97850676829212
 20
50.86475325769655
 11
-77.77895850994044
 21
51.00589449650423
  0
LINE
  5
2F0
100
AcDbEntity
  8
0
  6
CONTINUOUS
 62
    7
370
   -1
100
AcDbLine
 10
-77.77895850994044
 20
51.00589449650423
 11
-76.90917562578811
 21
55.93867835441201
  0
LINE
  5
2F1
100
AcDbEntity
  8
0
  6
CONTINUOUS
 62
    7
370
   -1
100
AcDbLine
 10
-76.90917562578811
 20
55.93867835441201
 11
-76.10872388413979
 21
55.79753711560433
  0
LINE
  5
2F2
100
AcDbEntity
  8
0
  6
CONTINUOUS
 62
    7
370
   -1
100
AcDbLine
 10
-76.10872388413979
 20
55.79753711560433
 11
-75.50093442452422
 21
59.24448242807744
  0
LINE
  5
2F3
100
AcDbEntity
  8
0
  6
CONTINUOUS
 62
    7
370
   -1
100
AcDbLine
 10
-75.50093442452422
 20
59.24448242807744
 11
-76.30138616617252
 21
59.38562366688512
  0
LINE
  5
2F4
100
AcDbEntity
  8
0
  6
CONTINUOUS
 62
    7
370
   -1
100
AcDbLine
 10
-76.30138616617252
 20
59.38562366688512
 11
-76.13113454686076
 21
60.35116858024839
  0
LINE
  5
2F5
100
AcDbEntity
  8
0
  6
CONTINUOUS
 62
    7
370
   -1
100
AcDbLine
 10
-72.82313676230574
 20
79.11175627513094
 11
-86.58090107188629
 21
81.53762131713796
  0
LINE
  5
2F6
100
AcDbEntity
  8
0
  6
CONTINUOUS
 62
    7
370
   -1
100
AcDbLine
 10
-86.58090107188629
 20
81.53762131713796
 11
-86.75115269119806
 21
80.57207640377469
  0
LINE
  5
2F7
100
AcDbEntity
  8
0
  6
CONTINUOUS
 62
    7
370
   -1
100
AcDbLine
 10
-86.75115269119806
 20
80.57207640377469
 11
-87.55160443284636
 21
80.71321764258236
  0
LINE
  5
2F8
100
AcDbEntity
  8
0
  6
CONTINUOUS
 62
    7
370
   -1
100
AcDbLine
 10
-87.55160443284636
 20
80.71321764258236
 11
-88.15939389246194
 21
77.26627233010926
  0
LINE
  5
2F9
100
AcDbEntity
  8
0
  6
CONTINUOUS
 62
    7
370
   -1
100
AcDbLine
 10
-88.15939389246194
 20
77.26627233010926
 11
-87.35894215081363
 21
77.12513109130158
  0
LINE
  5
2FA
100
AcDbEntity
  8
0
  6
CONTINUOUS
 62
    7
370
   -1
100
AcDbLine
 10
-87.35894215081363
 20
77.12513109130158
 11
-88.22872503496596
 21
72.1923472333938
  0
LINE
  5
2FB
100
AcDbEntity
  8
0
  6
CONTINUOUS
 62
    7
370
   -1
100
AcDbLine
 10
-88.22872503496596
 20
72.1923472333938
 11
-89.02917677661426
 21
72.33348847220149
  0
LINE
  5
2FC
100
AcDbEntity
  8
0
  6
CONTINUOUS
 62
    7
370
   -1
100
AcDbLine
 10
-89.02917677661426
 20
72.33348847220149
 11
-89.63696623622985
 21
68.88654315972839
  0
LINE
  5
2FD
100
AcDbEntity
  8
0
  6
CONTINUOUS
 62
    7
370
   -1
100
AcDbLine
 10
-89.63696623622985
 20
68.88654315972839
 11
-88.83651449458155
 21
68.74540192092071
  0
LINE
  5
2FE
100
AcDbEntity
  8
0
  6
CONTINUOUS
 62
    7
370
   -1
100
AcDbLine
 10
-88.83651449458155
 20
68.74540192092071
 11
-89.00676611389331
 21
67.77985700755742
  0
LINE
  5
2FF
100
AcDbEntity
  8
0
  6
CONTINUOUS
 62
    7
370
   -1
100
AcDbLine
 10
-89.00676611389331
 20
67.77985700755742
 11
-75.24900180431275
 21
65.35399196555043
  0
LINE
  5
300
100
AcDbEntity
  8
0
  6
CONTINUOUS
 62
    7
370
   -1
100
AcDbLine
 10
-75.24900180431275
 20
65.35399196555043
 11
-75.07875018500098
 21
66.31953687891369
  0
LINE
  5
301
100
AcDbEntity
  8
0
  6
CONTINUOUS
 62
    7
370
   -1
100
AcDbLine
 10
-75.07875018500098
 20
66.31953687891369
 11
-74.27829844335268
 21
66.17839564010602
  0
LINE
  5
302
100
AcDbEntity
  8
0
  6
CONTINUOUS
 62
    7
370
   -1
100
AcDbLine
 10
-74.27829844335268
 20
66.17839564010602
 11
-73.67050898373711
 21
69.62534095257911
  0
LINE
  5
303
100
AcDbEntity
  8
0
  6
CONTINUOUS
 62
    7
370
   -1
100
AcDbLine
 10
-73.67050898373711
 20
69.62534095257911
 11
-74.47096072538541
 21
69.76648219138679
  0
LINE
  5
304
100
AcDbEntity
  8
0
  6
CONTINUOUS
 62
    7
370
   -1
100
AcDbLine
 10
-74.47096072538541
 20
69.76648219138679
 11
-73.60117784123308
 21
74.69926604929456
  0
LINE
  5
305
100
AcDbEntity
  8
0
  6
CONTINUOUS
 62
    7
370
   -1
100
AcDbLine
 10
-73.60117784123308
 20
74.69926604929456
 11
-72.80072609958476
 21
74.55812481048689
  0
LINE
  5
306
100
AcDbEntity
  8
0
  6
CONTINUOUS
 62
    7
370
   -1
100
AcDbLine
 10
-72.80072609958476
 20
74.55812481048689
 11
-72.19293663996919
 21
78.00507012295999
  0
LINE
  5
307
100
AcDbEntity
  8
0
  6
CONTINUOUS
 62
    7
370
   -1
100
AcDbLine
 10
-72.19293663996919
 20
78.00507012295999
 11
-72.99338838161751
 21
78.14621136176767
  0
LINE
  5
308
100
AcDbEntity
  8
0
  6
CONTINUOUS
 62
    7
370
   -1
100
AcDbLine
 10
-72.99338838161751
 20
78.14621136176767
 11
-72.82313676230574
 21
79.11175627513094
  0
LINE
  5
309
100
AcDbEntity
  8
0
  6
CONTINUOUS
 62
    7
370
   -1
100
AcDbLine
 10
-69.51513897775071
 20
97.8723439700135
 11
-83.27290328733127
 21
100.2982090120205
  0
LINE
  5
30A
100
AcDbEntity
  8
0
  6
CONTINUOUS
 62
    7
370
   -1
100
AcDbLine
 10
-83.27290328733127
 20
100.2982090120205
 11
-83.44315490664303
 21
99.33266409865725
  0
LINE
  5
30B
100
AcDbEntity
  8
0
  6
CONTINUOUS
 62
    7
370
   -1
100
AcDbLine
 10
-83.44315490664303
 20
99.33266409865725
 11
-84.24360664829133
 21
99.47380533746492
  0
LINE
  5
30C
100
AcDbEntity
  8
0
  6
CONTINUOUS
 62
    7
370
   -1
100
AcDbLine
 10
-84.24360664829133
 20
99.47380533746492
 11
-84.85139610790692
 21
96.02686002499183
  0
LINE
  5
30D
100
AcDbEntity
  8
0
  6
CONTINUOUS
 62
    7
370
   -1
100
AcDbLine
 10
-84.85139610790692
 20
96.02686002499183
 11
-84.05094436625861
 21
95.88571878618416
  0
LINE
  5
30E
100
AcDbEntity
  8
0
  6
CONTINUOUS
 62
    7
370
   -1
100
AcDbLine
 10
-84.05094436625861
 20
95.88571878618416
 11
-84.92072725041095
 21
90.95293492827638
  0
LINE
  5
30F
100
AcDbEntity
  8
0
  6
CONTINUOUS
 62
    7
370
   -1
100
AcDbLine
 10
-84.92072725041095
 20
90.95293492827638
 11
-85.72117899205925
 21
91.09407616708405
  0
LINE
  5
310
100
AcDbEntity
  8
0
  6
CONTINUOUS
 62
    7
370
   -1
100
AcDbLine
 10
-85.72117899205925
 20
91.09407616708405
 11
-86.32896845167483
 21
87.64713085461095
  0
LINE
  5
311
100
AcDbEntity
  8
0
  6
CONTINUOUS
 62
    7
370
   -1
100
AcDbLine
 10
-86.32896845167483
 20
87.64713085461095
 11
-85.52851671002652
 21
87.50598961580327
  0
LINE
  5
312
100
AcDbEntity
  8
0
  6
CONTINUOUS
 62
    7
370
   -1
100
AcDbLine
 10
-85.52851671002652
 20
87.50598961580327
 11
-85.69876832933828
 21
86.54044470244
  0
LINE
  5
313
100
AcDbEntity
  8
0
  6
CONTINUOUS
 62
    7
370
   -1
100
AcDbLine
 10
-85.69876832933828
 20
86.54044470244
 11
-71.94100401975773
 21
84.11457966043298
  0
LINE
  5
314
100
AcDbEntity
  8
0
  6
CONTINUOUS
 62
    7
370
   -1
100
AcDbLine
 10
-71.94100401975773
 20
84.11457966043298
 11
-71.77075240044597
 21
85.08012457379625
  0
LINE
  5
315
100
AcDbEntity
  8
0
  6
CONTINUOUS
 62
    7
370
   -1
100
AcDbLine
 10
-71.77075240044597
 20
85.08012457379625
 11
-70.97030065879765
 21
84.93898333498856
  0
LINE
  5
316
100
AcDbEntity
  8
0
  6
CONTINUOUS
 62
    7
370
   -1
100
AcDbLine
 10
-70.97030065879765
 20
84.93898333498856
 11
-70.36251119918208
 21
88.38592864746167
  0
LINE
  5
317
100
AcDbEntity
  8
0
  6
CONTINUOUS
 62
    7
370
   -1
100
AcDbLine
 10
-70.36251119918208
 20
88.38592864746167
 11
-71.16296294083038
 21
88.52706988626936
  0
LINE
  5
318
100
AcDbEntity
  8
0
  6
CONTINUOUS
 62
    7
370
   -1
100
AcDbLine
 10
-71.16296294083038
 20
88.52706988626936
 11
-70.29318005667805
 21
93.45985374417714
  0
LINE
  5
319
100
AcDbEntity
  8
0
  6
CONTINUOUS
 62
    7
370
   -1
100
AcDbLine
 10
-70.29318005667805
 20
93.45985374417714
 11
-69.49272831502975
 21
93.31871250536946
  0
LINE
  5
31A
100
AcDbEntity
  8
0
  6
CONTINUOUS
 62
    7
370
   -1
100
AcDbLine
 10
-69.49272831502975
 20
93.31871250536946
 11
-68.88493885541416
 21
96.76565781784254
  0
LINE
  5
31B
100
AcDbEntity
  8
0
  6
CONTINUOUS
 62
    7
370
   -1
100
AcDbLine
 10
-68.88493885541416
 20
96.76565781784254
 11
-69.68539059706248
 21
96.90679905665023
  0
LINE
  5
31C
100
AcDbEntity
  8
0
  6
CONTINUOUS
 62
    7
370
   -1
100
AcDbLine
 10
-69.68539059706248
 20
96.90679905665023
 11
-69.51513897775071
 21
97.8723439700135
  0
LINE
  5
31D
100
AcDbEntity
  8
0
  6
CONTINUOUS
 62
    7
370
   -1
100
AcDbLine
 10
-79.43913233141578
 20
41.59058088536583
 11
-93.19689664099634
 21
44.01644592737285
  0
LINE
  5
31E
100
AcDbEntity
  8
0
  6
CONTINUOUS
 62
    7
370
   -1
100
AcDbLine
 10
-93.19689664099634
 20
44.01644592737285
 11
-93.3671482603081
 21
43.05090101400957
  0
LINE
  5
31F
100
AcDbEntity
  8
0
  6
CONTINUOUS
 62
    7
370
   -1
100
AcDbLine
 10
-93.3671482603081
 20
43.05090101400957
 11
-94.1676000019564
 21
43.19204225281725
  0
LINE
  5
320
100
AcDbEntity
  8
0
  6
CONTINUOUS
 62
    7
370
   -1
100
AcDbLine
 10
-94.1676000019564
 20
43.19204225281725
 11
-94.77538946157198
 21
39.74509694034416
  0
LINE
  5
321
100
AcDbEntity
  8
0
  6
CONTINUOUS
 62
    7
370
   -1
100
AcDbLine
 10
-94.77538946157198
 20
39.74509694034416
 11
-93.97493771992367
 21
39.60395570153648
  0
LINE
  5
322
100
AcDbEntity
  8
0
  6
CONTINUOUS
 62
    7
370
   -1
100
AcDbLine
 10
-93.97493771992367
 20
39.60395570153648
 11
-94.84472060407602
 21
34.67117184362871
  0
LINE
  5
323
100
AcDbEntity
  8
0
  6
CONTINUOUS
 62
    7
370
   -1
100
AcDbLine
 10
-94.84472060407602
 20
34.67117184362871
 11
-95.64517234572432
 21
34.81231308243638
  0
LINE
  5
324
100
AcDbEntity
  8
0
  6
CONTINUOUS
 62
    7
370
   -1
100
AcDbLine
 10
-95.64517234572432
 20
34.81231308243638
 11
-96.25296180533989
 21
31.36536776996328
  0
LINE
  5
325
100
AcDbEntity
  8
0
  6
CONTINUOUS
 62
    7
370
   -1
100
AcDbLine
 10
-96.25296180533989
 20
31.36536776996328
 11
-95.45251006369159
 21
31.2242265311556
  0
LINE
  5
326
100
AcDbEntity
  8
0
  6
CONTINUOUS
 62
    7
370
   -1
100
AcDbLine
 10
-95.45251006369159
 20
31.2242265311556
 11
-95.62276168300335
 21
30.25868161779233
  0
LINE
  5
327
100
AcDbEntity
  8
0
  6
CONTINUOUS
 62
    7
370
   -1
100
AcDbLine
 10
-95.62276168300335
 20
30.25868161779233
 11
-81.8649973734228
 21
27.8328165757853
  0
LINE
  5
328
100
AcDbEntity
  8
0
  6
CONTINUOUS
 62
    7
370
   -1
100
AcDbLine
 10
-81.8649973734228
 20
27.8328165757853
 11
-81.69474575411104
 21
28.79836148914858
  0
LINE
  5
329
100
AcDbEntity
  8
0
  6
CONTINUOUS
 62
    7
370
   -1
100
AcDbLine
 10
-81.69474575411104
 20
28.79836148914858
 11
-80.89429401246272
 21
28.65722025034091
  0
LINE
  5
32A
100
AcDbEntity
  8
0
  6
CONTINUOUS
 62
    7
370
   -1
100
AcDbLine
 10
-80.89429401246272
 20
28.65722025034091
 11
-80.28650455284715
 21
32.104165562814
  0
LINE
  5
32B
100
AcDbEntity
  8
0
  6
CONTINUOUS
 62
    7
370
   -1
100
AcDbLine
 10
-80.28650455284715
 20
32.104165562814
 11
-81.08695629449545
 21
32.24530680162168
  0
LINE
  5
32C
100
AcDbEntity
  8
0
  6
CONTINUOUS
 62
    7
370
   -1
100
AcDbLine
 10
-81.08695629449545
 20
32.24530680162168
 11
-80.21717341034312
 21
37.17809065952945
  0
LINE
  5
32D
100
AcDbEntity
  8
0
  6
CONTINUOUS
 62
    7
370
   -1
100
AcDbLine
 10
-80.21717341034312
 20
37.17809065952945
 11
-79.41672166869482
 21
37.03694942072178
  0
LINE
  5
32E
100
AcDbEntity
  8
0
  6
CONTINUOUS
 62
    7
370
   -1
100
AcDbLine
 10
-79.41672166869482
 20
37.03694942072178
 11
-78.80893220907923
 21
40.48389473319488
  0
LINE
  5
32F
100
AcDbEntity
  8
0
  6
CONTINUOUS
 62
    7
370
   -1
100
AcDbLine
 10
-78.80893220907923
 20
40.48389473319488
 11
-79.60938395072755
 21
40.62503597200256
  0
LINE
  5
330
100
AcDbEntity
  8
0
  6
CONTINUOUS
 62
    7
370
   -1
100
AcDbLine
 10
-79.60938395072755
 20
40.62503597200256
 11
-79.43913233141578
 21
41.59058088536583
  0
LINE
  5
331
100
AcDbEntity
  8
0
  6
CONTINUOUS
 62
    7
370
   -1
100
AcDbLine
 10
-95.41266677474411
 20
60.7047431057668
 11
-109.1704310843247
 21
63.13060814777382
  0
LINE
  5
332
100
AcDbEntity
  8
0
  6
CONTINUOUS
 62
    7
370
   -1
100
AcDbLine
 10
-109.1704310843247
 20
63.13060814777382
 11
-109.3406827036364
 21
62.16506323441053
  0
LINE
  5
333
100
AcDbEntity
  8
0
  6
CONTINUOUS
 62
    7
370
   -1
100
AcDbLine
 10
-109.3406827036364
 20
62.16506323441053
 11
-110.1411344452848
 21
62.30620447321821
  0
LINE
  5
334
100
AcDbEntity
  8
0
  6
CONTINUOUS
 62
    7
370
   -1
100
AcDbLine
 10
-110.1411344452848
 20
62.30620447321821
 11
-110.7489239049003
 21
58.85925916074512
  0
LINE
  5
335
100
AcDbEntity
  8
0
  6
CONTINUOUS
 62
    7
370
   -1
100
AcDbLine
 10
-110.7489239049003
 20
58.85925916074512
 11
-109.948472163252
 21
58.71811792193744
  0
LINE
  5
336
100
AcDbEntity
  8
0
  6
CONTINUOUS
 62
    7
370
   -1
100
AcDbLine
 10
-109.948472163252
 20
58.71811792193744
 11
-110.8182550474043
 21
53.78533406402966
  0
LINE
  5
337
100
AcDbEntity
  8
0
  6
CONTINUOUS
 62
    7
370
   -1
100
AcDbLine
 10
-110.8182550474043
 20
53.78533406402966
 11
-111.6187067890527
 21
53.92647530283734
  0
LINE
  5
338
100
AcDbEntity
  8
0
  6
CONTINUOUS
 62
    7
370
   -1
100
AcDbLine
 10
-111.6187067890527
 20
53.92647530283734
 11
-112.2264962486683
 21
50.47952999036423
  0
LINE
  5
339
100
AcDbEntity
  8
0
  6
CONTINUOUS
 62
    7
370
   -1
100
AcDbLine
 10
-112.2264962486683
 20
50.47952999036423
 11
-111.4260445070199
 21
50.33838875155656
  0
LINE
  5
33A
100
AcDbEntity
  8
0
  6
CONTINUOUS
 62
    7
370
   -1
100
AcDbLine
 10
-111.4260445070199
 20
50.33838875155656
 11
-111.5962961263317
 21
49.37284383819328
  0
LINE
  5
33B
100
AcDbEntity
  8
0
  6
CONTINUOUS
 62
    7
370
   -1
100
AcDbLine
 10
-111.5962961263317
 20
49.37284383819328
 11
-97.83853181675113
 21
46.94697879618627
  0
LINE
  5
33C
100
AcDbEntity
  8
0
  6
CONTINUOUS
 62
    7
370
   -1
100
AcDbLine
 10
-97.83853181675113
 20
46.94697879618627
 11
-97.66828019743937
 21
47.91252370954954
  0
LINE
  5
33D
100
AcDbEntity
  8
0
  6
CONTINUOUS
 62
    7
370
   -1
100
AcDbLine
 10
-97.66828019743937
 20
47.91252370954954
 11
-96.86782845579107
 21
47.77138247074186
  0
LINE
  5
33E
100
AcDbEntity
  8
0
  6
CONTINUOUS
 62
    7
370
   -1
100
AcDbLine
 10
-96.86782845579107
 20
47.77138247074186
 11
-96.26003899617548
 21
51.21832778321495
  0
LINE
  5
33F
100
AcDbEntity
  8
0
  6
CONTINUOUS
 62
    7
370
   -1
100
AcDbLine
 10
-96.26003899617548
 20
51.21832778321495
 11
-97.06049073782378
 21
51.35946902202264
  0
LINE
  5
340
100
AcDbEntity
  8
0
  6
CONTINUOUS
 62
    7
370
   -1
100
AcDbLine
 10
-97.06049073782378
 20
51.35946902202264
 11
-96.19070785367146
 21
56.29225287993042
  0
LINE
  5
341
100
AcDbEntity
  8
0
  6
CONTINUOUS
 62
    7
370
   -1
100
AcDbLine
 10
-96.19070785367146
 20
56.29225287993042
 11
-95.39025611202315
 21
56.15111164112273
  0
LINE
  5
342
100
AcDbEntity
  8
0
  6
CONTINUOUS
 62
    7
370
   -1
100
AcDbLine
 10
-95.39025611202315
 20
56.15111164112273
 11
-94.78246665240758
 21
59.59805695359585
  0
LINE
  5
343
100
AcDbEntity
  8
0
  6
CONTINUOUS
 62
    7
370
   -1
100
AcDbLine
 10
-94.78246665240758
 20
59.59805695359585
 11
-95.58291839405588
 21
59.73919819240351
  0
LINE
  5
344
100
AcDbEntity
  8
0
  6
CONTINUOUS
 62
    7
370
   -1
100
AcDbLine
 10
-95.58291839405588
 20
59.73919819240351
 11
-95.41266677474411
 21
60.7047431057668
  0
LINE
  5
345
100
AcDbEntity
  8
0
  6
CONTINUOUS
 62
    7
370
   -1
100
AcDbLine
 10
-92.1046689901891
 20
79.46533080064934
 11
-105.8624332997697
 21
81.89119584265637
  0
LINE
  5
346
100
AcDbEntity
  8
0
  6
CONTINUOUS
 62
    7
370
   -1
100
AcDbLine
 10
-105.8624332997697
 20
81.89119584265637
 11
-106.0326849190814
 21
80.92565092929308
  0
LINE
  5
347
100
AcDbEntity
  8
0
  6
CONTINUOUS
 62
    7
370
   -1
100
AcDbLine
 10
-106.0326849190814
 20
80.92565092929308
 11
-106.8331366607297
 21
81.06679216810076
  0
LINE
  5
348
100
AcDbEntity
  8
0
  6
CONTINUOUS
 62
    7
370
   -1
100
AcDbLine
 10
-106.8331366607297
 20
81.06679216810076
 11
-107.4409261203453
 21
77.61984685562767
  0
LINE
  5
349
100
AcDbEntity
  8
0
  6
CONTINUOUS
 62
    7
370
   -1
100
AcDbLine
 10
-107.4409261203453
 20
77.61984685562767
 11
-106.640474378697
 21
77.47870561681998
  0
LINE
  5
34A
100
AcDbEntity
  8
0
  6
CONTINUOUS
 62
    7
370
   -1
100
AcDbLine
 10
-106.640474378697
 20
77.47870561681998
 11
-107.5102572628493
 21
72.54592175891221
  0
LINE
  5
34B
100
AcDbEntity
  8
0
  6
CONTINUOUS
 62
    7
370
   -1
100
AcDbLine
 10
-107.5102572628493
 20
72.54592175891221
 11
-108.3107090044977
 21
72.68706299771989
  0
LINE
  5
34C
100
AcDbEntity
  8
0
  6
CONTINUOUS
 62
    7
370
   -1
100
AcDbLine
 10
-108.3107090044977
 20
72.68706299771989
 11
-108.9184984641132
 21
69.24011768524679
  0
LINE
  5
34D
100
AcDbEntity
  8
0
  6
CONTINUOUS
 62
    7
370
   -1
100
AcDbLine
 10
-108.9184984641132
 20
69.24011768524679
 11
-108.1180467224649
 21
69.09897644643912
  0
LINE
  5
34E
100
AcDbEntity
  8
0
  6
CONTINUOUS
 62
    7
370
   -1
100
AcDbLine
 10
-108.1180467224649
 20
69.09897644643912
 11
-108.2882983417767
 21
68.13343153307584
  0
LINE
  5
34F
100
AcDbEntity
  8
0
  6
CONTINUOUS
 62
    7
370
   -1
100
AcDbLine
 10
-108.2882983417767
 20
68.13343153307584
 11
-94.5305340321961
 21
65.70756649106882
  0
LINE
  5
350
100
AcDbEntity
  8
0
  6
CONTINUOUS
 62
    7
370
   -1
100
AcDbLine
 10
-94.5305340321961
 20
65.70756649106882
 11
-94.36028241288435
 21
66.67311140443209
  0
LINE
  5
351
100
AcDbEntity
  8
0
  6
CONTINUOUS
 62
    7
370
   -1
100
AcDbLine
 10
-94.36028241288435
 20
66.67311140443209
 11
-93.55983067123604
 21
66.53197016562441
  0
LINE
  5
352
100
AcDbEntity
  8
0
  6
CONTINUOUS
 62
    7
370
   -1
100
AcDbLine
 10
-93.55983067123604
 20
66.53197016562441
 11
-92.95204121162047
 21
69.97891547809751
  0
LINE
  5
353
100
AcDbEntity
  8
0
  6
CONTINUOUS
 62
    7
370
   -1
100
AcDbLine
 10
-92.95204121162047
 20
69.97891547809751
 11
-93.75249295326877
 21
70.1200567169052
  0
LINE
  5
354
100
AcDbEntity
  8
0
  6
CONTINUOUS
 62
    7
370
   -1
100
AcDbLine
 10
-93.75249295326877
 20
70.1200567169052
 11
-92.88271006911643
 21
75.05284057481296
  0
LINE
  5
355
100
AcDbEntity
  8
0
  6
CONTINUOUS
 62
    7
370
   -1
100
AcDbLine
 10
-92.88271006911643
 20
75.05284057481296
 11
-92.08225832746814
 21
74.91169933600528
  0
LINE
  5
356
100
AcDbEntity
  8
0
  6
CONTINUOUS
 62
    7
370
   -1
100
AcDbLine
 10
-92.08225832746814
 20
74.91169933600528
 11
-91.47446886785255
 21
78.35864464847839
  0
LINE
  5
357
100
AcDbEntity
  8
0
  6
CONTINUOUS
 62
    7
370
   -1
100
AcDbLine
 10
-91.47446886785255
 20
78.35864464847839
 11
-92.27492060950085
 21
78.49978588728607
  0
LINE
  5
358
100
AcDbEntity
  8
0
  6
CONTINUOUS
 62
    7
370
   -1
100
AcDbLine
 10
-92.27492060950085
 20
78.49978588728607
 11
-92.1046689901891
 21
79.46533080064934
  0
LINE
  5
359
100
AcDbEntity
  8
0
  6
CONTINUOUS
 62
    7
370
   -1
100
AcDbLine
 10
-88.79667120563407
 20
98.2259184955319
 11
-102.5544355152146
 21
100.6517835375389
  0
LINE
  5
35A
100
AcDbEntity
  8
0
  6
CONTINUOUS
 62
    7
370
   -1
100
AcDbLine
 10
-102.5544355152146
 20
100.6517835375389
 11
-102.7246871345264
 21
99.68623862417564
  0
LINE
  5
35B
100
AcDbEntity
  8
0
  6
CONTINUOUS
 62
    7
370
   -1
100
AcDbLine
 10
-102.7246871345264
 20
99.68623862417564
 11
-103.5251388761747
 21
99.82737986298334
  0
LINE
  5
35C
100
AcDbEntity
  8
0
  6
CONTINUOUS
 62
    7
370
   -1
100
AcDbLine
 10
-103.5251388761747
 20
99.82737986298334
 11
-104.1329283357903
 21
96.38043455051023
  0
LINE
  5
35D
100
AcDbEntity
  8
0
  6
CONTINUOUS
 62
    7
370
   -1
100
AcDbLine
 10
-104.1329283357903
 20
96.38043455051023
 11
-103.332476594142
 21
96.23929331170254
  0
LINE
  5
35E
100
AcDbEntity
  8
0
  6
CONTINUOUS
 62
    7
370
   -1
100
AcDbLine
 10
-103.332476594142
 20
96.23929331170254
 11
-104.2022594782943
 21
91.30650945379477
  0
LINE
  5
35F
100
AcDbEntity
  8
0
  6
CONTINUOUS
 62
    7
370
   -1
100
AcDbLine
 10
-104.2022594782943
 20
91.30650945379477
 11
-105.0027112199426
 21
91.44765069260245
  0
LINE
  5
360
100
AcDbEntity
  8
0
  6
CONTINUOUS
 62
    7
370
   -1
100
AcDbLine
 10
-105.0027112199426
 20
91.44765069260245
 11
-105.6105006795582
 21
88.00070538012935
  0
LINE
  5
361
100
AcDbEntity
  8
0
  6
CONTINUOUS
 62
    7
370
   -1
100
AcDbLine
 10
-105.6105006795582
 20
88.00070538012935
 11
-104.8100489379099
 21
87.85956414132167
  0
LINE
  5
362
100
AcDbEntity
  8
0
  6
CONTINUOUS
 62
    7
370
   -1
100
AcDbLine
 10
-104.8100489379099
 20
87.85956414132167
 11
-104.9803005572217
 21
86.8940192279584
  0
LINE
  5
363
100
AcDbEntity
  8
0
  6
CONTINUOUS
 62
    7
370
   -1
100
AcDbLine
 10
-104.9803005572217
 20
86.8940192279584
 11
-91.22253624764109
 21
84.46815418595138
  0
LINE
  5
364
100
AcDbEntity
  8
0
  6
CONTINUOUS
 62
    7
370
   -1
100
AcDbLine
 10
-91.22253624764109
 20
84.46815418595138
 11
-91.05228462832932
 21
85.43369909931465
  0
LINE
  5
365
100
AcDbEntity
  8
0
  6
CONTINUOUS
 62
    7
370
   -1
100
AcDbLine
 10
-91.05228462832932
 20
85.43369909931465
 11
-90.25183288668102
 21
85.29255786050697
  0
LINE
  5
366
100
AcDbEntity
  8
0
  6
CONTINUOUS
 62
    7
370
   -1
100
AcDbLine
 10
-90.25183288668102
 20
85.29255786050697
 11
-89.64404342706544
 21
88.73950317298006
  0
LINE
  5
367
100
AcDbEntity
  8
0
  6
CONTINUOUS
 62
    7
370
   -1
100
AcDbLine
 10
-89.64404342706544
 20
88.73950317298006
 11
-90.44449516871374
 21
88.88064441178774
  0
LINE
  5
368
100
AcDbEntity
  8
0
  6
CONTINUOUS
 62
    7
370
   -1
100
AcDbLine
 10
-90.44449516871374
 20
88.88064441178774
 11
-89.57471228456141
 21
93.81342826969552
  0
LINE
  5
369
100
AcDbEntity
  8
0
  6
CONTINUOUS
 62
    7
370
   -1
100
AcDbLine
 10
-89.57471228456141
 20
93.81342826969552
 11
-88.77426054291311
 21
93.67228703088784
  0
LINE
  5
36A
100
AcDbEntity
  8
0
  6
CONTINUOUS
 62
    7
370
   -1
100
AcDbLine
 10
-88.77426054291311
 20
93.67228703088784
 11
-88.16647108329754
 21
97.11923234336095
  0
LINE
  5
36B
100
AcDbEntity
  8
0
  6
CONTINUOUS
 62
    7
370
   -1
100
AcDbLine
 10
-88.16647108329754
 20
97.11923234336095
 11
-88.96692282494584
 21
97.26037358216863
  0
LINE
  5
36C
100
AcDbEntity
  8
0
  6
CONTINUOUS
 62
    7
370
   -1
100
AcDbLine
 10
-88.96692282494584
 20
97.26037358216863
 11
-88.79667120563407
 21
98.2259184955319
  0
LINE
  5
36D
100
AcDbEntity
  8
0
  6
CONTINUOUS
 62
    7
370
   -1
100
AcDbLine
 10
-98.72066455929914
 20
41.94415541088423
 11
-112.4784288688797
 21
44.37002045289124
  0
LINE
  5
36E
100
AcDbEntity
  8
0
  6
CONTINUOUS
 62
    7
370
   -1
100
AcDbLine
 10
-112.4784288688797
 20
44.37002045289124
 11
-112.6486804881915
 21
43.40447553952797
  0
LINE
  5
36F
100
AcDbEntity
  8
0
  6
CONTINUOUS
 62
    7
370
   -1
100
AcDbLine
 10
-112.6486804881915
 20
43.40447553952797
 11
-113.4491322298398
 21
43.54561677833566
  0
LINE
  5
370
100
AcDbEntity
  8
0
  6
CONTINUOUS
 62
    7
370
   -1
100
AcDbLine
 10
-113.4491322298398
 20
43.54561677833566
 11
-114.0569216894554
 21
40.09867146586256
  0
LINE
  5
371
100
AcDbEntity
  8
0
  6
CONTINUOUS
 62
    7
370
   -1
100
AcDbLine
 10
-114.0569216894554
 20
40.09867146586256
 11
-113.256469947807
 21
39.95753022705488
  0
LINE
  5
372
100
AcDbEntity
  8
0
  6
CONTINUOUS
 62
    7
370
   -1
100
AcDbLine
 10
-113.256469947807
 20
39.95753022705488
 11
-114.1262528319594
 21
35.0247463691471
  0
LINE
  5
373
100
AcDbEntity
  8
0
  6
CONTINUOUS
 62
    7
370
   -1
100
AcDbLine
 10
-114.1262528319594
 20
35.0247463691471
 11
-114.9267045736077
 21
35.16588760795478
  0
LINE
  5
374
100
AcDbEntity
  8
0
  6
CONTINUOUS
 62
    7
370
   -1
100
AcDbLine
 10
-114.9267045736077
 20
35.16588760795478
 11
-115.5344940332233
 21
31.71894229548168
  0
LINE
  5
375
100
AcDbEntity
  8
0
  6
CONTINUOUS
 62
    7
370
   -1
100
AcDbLine
 10
-115.5344940332233
 20
31.71894229548168
 11
-114.734042291575
 21
31.577801056674
  0
LINE
  5
376
100
AcDbEntity
  8
0
  6
CONTINUOUS
 62
    7
370
   -1
100
AcDbLine
 10
-114.734042291575
 20
31.577801056674
 11
-114.9042939108867
 21
30.61225614331072
  0
LINE
  5
377
100
AcDbEntity
  8
0
  6
CONTINUOUS
 62
    7
370
   -1
100
AcDbLine
 10
-114.9042939108867
 20
30.61225614331072
 11
-101.1465296013062
 21
28.18639110130371
  0
LINE
  5
378
100
AcDbEntity
  8
0
  6
CONTINUOUS
 62
    7
370
   -1
100
AcDbLine
 10
-101.1465296013062
 20
28.18639110130371
 11
-100.9762779819944
 21
29.15193601466698
  0
LINE
  5
379
100
AcDbEntity
  8
0
  6
CONTINUOUS
 62
    7
370
   -1
100
AcDbLine
 10
-100.9762779819944
 20
29.15193601466698
 11
-100.1758262403461
 21
29.0107947758593
  0
LINE
  5
37A
100
AcDbEntity
  8
0
  6
CONTINUOUS
 62
    7
370
   -1
100
AcDbLine
 10
-100.1758262403461
 20
29.0107947758593
 11
-99.56803678073051
 21
32.4577400883324
  0
LINE
  5
37B
100
AcDbEntity
  8
0
  6
CONTINUOUS
 62
    7
370
   -1
100
AcDbLine
 10
-99.56803678073051
 20
32.4577400883324
 11
-100.3684885223788
 21
32.59888132714008
  0
LINE
  5
37C
100
AcDbEntity
  8
0
  6
CONTINUOUS
 62
    7
370
   -1
100
AcDbLine
 10
-100.3684885223788
 20
32.59888132714008
 11
-99.49870563822648
 21
37.53166518504786
  0
LINE
  5
37D
100
AcDbEntity
  8
0
  6
CONTINUOUS
 62
    7
370
   -1
100
AcDbLine
 10
-99.49870563822648
 20
37.53166518504786
 11
-98.69825389657818
 21
37.39052394624018
  0
LINE
  5
37E
100
AcDbEntity
  8
0
  6
CONTINUOUS
 62
    7
370
   -1
100
AcDbLine
 10
-98.69825389657818
 20
37.39052394624018
 11
-98.09046443696261
 21
40.83746925871328
  0
LINE
  5
37F
100
AcDbEntity
  8
0
  6
CONTINUOUS
 62
    7
370
   -1
100
AcDbLine
 10
-98.09046443696261
 20
40.83746925871328
 11
-98.89091617861089
 21
40.97861049752095
  0
LINE
  5
380
100
AcDbEntity
  8
0
  6
CONTINUOUS
 62
    7
370
   -1
100
AcDbLine
 10
-98.89091617861089
 20
40.97861049752095
 11
-98.72066455929914
 21
41.94415541088423
  0
POINT
  5
381
100
AcDbEntity
  8
0
  6
ByLayer
 62
  256
370
   -1
100
AcDbPoint
 10
1.577721810442024e-30
 20
0
  0
LINE
  5
382
100
AcDbEntity
  8
0
  6
ByLayer
 62
  256
370
   -1
100
AcDbLine
 10
-114.343038752877
 20
107.5820748445832
 11
-125
 21
47.14344427140423
  0
LINE
  5
383
100
AcDbEntity
  8
0
  6
ByLayer
 62
  256
370
   -1
100
AcDbLine
 10
-120.3493257404943
 20
15.93102381686698
 11
-125
 21
18.08467233831288
  0
LINE
  5
384
100
AcDbEntity
  8
0
  6
ByLayer
 62
  256
370
   -1
100
AcDbLine
 10
0
 20
115.8455930679138
 11
-104.4949612227549
 21
115.8455930679138
  0
LINE
  5
385
100
AcDbEntity
  8
0
  6
ByLayer
 62
  256
370
   -1
100
AcDbLine
 10
-120.3493257404943
 20
15.93102381686698
 11
-31.72319028282014
 21
0.3038449397558303
  0
LWPOLYLINE
  5
386
100
AcDbEntity
  8
0
  6
ByLayer
 62
  256
370
   -1
100
AcDbPolyline
 90
   20
 70
    1
 43
0
 10
34.64902483779524
 20
46.94419375051711
 10
34.81927645710699
 20
45.97864883715382
 10
35.6197281987553
 20
46.1197900759615
 10
36.22751765837089
 20
42.6728447634884
 10
35.42706591672258
 20
42.53170352468073
 10
36.29684880087491
 20
37.59891966677295
 10
37.09730054252321
 20
37.74006090558063
 10
37.70509000213879
 20
34.29311559310752
 10
36.90463826049049
 20
34.15197435429985
 10
37.07488987980224
 20
33.18642944093657
 10
23.31712557022168
 20
30.76056439892955
 10
23.14687395090991
 20
31.72610931229283
 10
22.34642220926161
 20
31.58496807348515
 10
21.73863274964603
 20
35.03191338595825
 10
22.53908449129434
 20
35.17305462476592
 10
21.669301607142
 20
40.1058384826737
 10
20.8688498654937
 20
39.96469724386603
 10
20.26106040587812
 20
43.41164255633912
 10
21.06151214752643
 20
43.5527837951468
 10
20.89126052821466
 20
44.51832870851007
  0
LWPOLYLINE
  5
387
100
AcDbEntity
  8
0
  6
ByLayer
 62
  256
370
   -1
100
AcDbPolyline
 90
   20
 70
    1
 43
0
 10
31.34102705324021
 20
65.70478144539966
 10
31.51127867255197
 20
64.73923653203637
 10
32.31173041420028
 20
64.88037777084405
 10
32.91951987381586
 20
61.43343245837095
 10
32.11906813216756
 20
61.29229121956329
 10
32.98885101631988
 20
56.35950736165551
 10
33.78930275796819
 20
56.50064860046319
 10
34.39709221758377
 20
53.05370328799008
 10
33.59664047593546
 20
52.91256204918241
 10
33.76689209524723
 20
51.94701713581913
 10
20.00912778566665
 20
49.52115209381211
 10
19.83887616635489
 20
50.48669700717539
 10
19.03842442470658
 20
50.34555576836771
 10
18.43063496509101
 20
53.7925010808408
 10
19.23108670673931
 20
53.93364231964848
 10
18.36130382258698
 20
58.86642617755625
 10
17.56085208093867
 20
58.72528493874858
 10
16.9530626213231
 20
62.17223025122168
 10
17.7535143629714
 20
62.31337149002936
 10
17.58326274365964
 20
63.27891640339262
  0
LINE
  5
388
100
AcDbEntity
  8
0
  6
ByLayer
 62
  256
370
   -1
100
AcDbLine
 10
-114.343038752877
 20
107.5820748445832
 11
-125
 21
47.14344427140423
  0
LINE
  5
389
100
AcDbEntity
  8
0
  6
ByLayer
 62
  256
370
   -1
100
AcDbLine
 10
-114.343038752877
 20
107.5820748445832
 11
-125
 21
47.14344427140423
  0
LINE
  5
38A
100
AcDbEntity
  8
0
  6
ByLayer
 62
  256
370
   -1
100
AcDbLine
 10
-114.343038752877
 20
107.5820748445832
 11
-125
 21
47.14344427140423
  0
LINE
  5
38B
100
AcDbEntity
  8
0
  6
ByLayer
 62
  256
370
   -1
100
AcDbLine
 10
31.72319028282013
 20
0.3038449397558303
 11
120.3493257404943
 21
15.93102381686698
  0
LINE
  5
38C
100
AcDbEntity
  8
0
  6
ByLayer
 62
  256
370
   -1
100
AcDbLine
 10
120.3493257404943
 20
15.93102381686698
 11
125
 21
18.08467233831283
  0
LINE
  5
38D
100
AcDbEntity
  8
0
  6
ByLayer
 62
  256
370
   -1
100
AcDbLine
 10
125
 20
47.14344427140423
 11
114.3430391263176
 21
107.5820727266965
  0
LINE
  5
38E
100
AcDbEntity
  8
0
  6
ByLayer
 62
  256
370
   -1
100
AcDbLine
 10
114.3430391263176
 20
107.5820727266965
 11
104.4949634759599
 21
115.8455930679138
  0
LINE
  5
38F
100
AcDbEntity
  8
0
  6
ByLayer
 62
  256
370
   -1
100
AcDbLine
 10
104.4949634759599
 20
115.8455930679138
 11
0
 21
115.8455930679138
  0
LINE
  5
390
100
AcDbEntity
  8
0
  6
ByLayer
 62
  256
370
   -1
100
AcDbLine
 10
-114.343038752877
 20
107.5820748445832
 11
-104.4949612227549
 21
115.8455930679138
  0
LINE
  5
391
100
AcDbEntity
  8
0
  6
ByLayer
 62
  256
370
   -1
100
AcDbLine
 10
-31.72319028282014
 20
0.3038449397558303
 11
31.72319028282013
 21
0.3038449397558303
  0
LINE
  5
392
100
AcDbEntity
  8
0
  6
ByLayer
 62
  256
370
   -1
100
AcDbLine
 10
125
 20
47.14344427140423
 11
125
 21
18.08467233831283
  0
LINE
  5
393
100
AcDbEntity
  8
0
  6
ByLayer
 62
  256
370
   -1
100
AcDbLine
 10
-125
 20
47.14344427140423
 11
-125
 21
18.08467233831288
  0
LWPOLYLINE
  5
394
100
AcDbEntity
  8
0
  6
ByLayer
 62
  256
370
   -1
100
AcDbPolyline
 90
   20
 70
    1
 43
0
 10
28.03302926868519
 20
84.46536914028221
 10
28.20328088799695
 20
83.49982422691893
 10
29.00373262964526
 20
83.64096546572661
 10
29.61152208926084
 20
80.19402015325352
 10
28.81107034761253
 20
80.05287891444584
 10
29.68085323176486
 20
75.12009505653805
 10
30.48130497341317
 20
75.26123629534573
 10
31.08909443302875
 20
71.81429098287263
 10
30.28864269138044
 20
71.67314974406496
 10
30.4588943106922
 20
70.70760483070168
 10
16.70113000111163
 20
68.28173978869467
 10
16.53087838179987
 20
69.24728470205794
 10
15.73042664015156
 20
69.10614346325026
 10
15.12263718053599
 20
72.55308877572335
 10
15.92308892218429
 20
72.69423001453103
 10
15.05330603803196
 20
77.62701387243882
 10
14.25285429638365
 20
77.48587263363115
 10
13.64506483676807
 20
80.93281794610424
 10
14.44551657841638
 20
81.07395918491191
 10
14.27526495910462
 20
82.03950409827519
  0
CIRCLE
  5
395
100
AcDbEntity
  8
0
  6
ByLayer
 62
  256
370
   -1
100
AcDbCircle
 10
-106.8128469606292
 20
36.27779445472817
 40
6.98573082955864
  0
CIRCLE
  5
396
100
AcDbEntity
  8
0
  6
ByLayer
 62
  256
370
   -1
100
AcDbCircle
 10
-103.5044814505379
 20
55.03879347198004
 40
6.984999999999995
  0
CIRCLE
  5
397
100
AcDbEntity
  8
0
  6
ByLayer
 62
  256
370
   -1
100
AcDbCircle
 10
-100.1964836659829
 20
73.79938116686259
 40
6.984999999999986
  0
CIRCLE
  5
398
100
AcDbEntity
  8
0
  6
ByLayer
 62
  256
370
   -1
100
AcDbCircle
 10
-96.88848588142788
 20
92.55996886174515
 40
6.984999999999991
  0
CIRCLE
  5
399
100
AcDbEntity
  8
0
  6
ByLayer
 62
  256
370
   -1
100
AcDbCircle
 10
-77.60695365354451
 20
92.20639433622675
 40
6.98499999999999
  0
CIRCLE
  5
39A
100
AcDbEntity
  8
0
  6
ByLayer
 62
  256
370
   -1
100
AcDbCircle
 10
-57.97812507032733
 20
93.82243531673276
 40
6.984999999999988
  0
CIRCLE
  5
39B
100
AcDbEntity
  8
0
  6
ByLayer
 62
  256
370
   -1
100
AcDbCircle
 10
-61.28612285488235
 20
75.06184762185021
 40
6.984999999999988
  0
CIRCLE
  5
39C
100
AcDbEntity
  8
0
  6
ByLayer
 62
  256
370
   -1
100
AcDbCircle
 10
-64.59412063943735
 20
56.30125992696766
 40
6.985
  0
CIRCLE
  5
39D
100
AcDbEntity
  8
0
  6
ByLayer
 62
  256
370
   -1
100
AcDbCircle
 10
-67.90211842399239
 20
37.5406722320851
 40
6.984999999999991
  0
CIRCLE
  5
39E
100
AcDbEntity
  8
0
  6
ByLayer
 62
  256
370
   -1
100
AcDbCircle
 10
-50.18341979511141
 20
28.32382792945683
 40
6.984999999999996
  0
CIRCLE
  5
39F
100
AcDbEntity
  8
0
  6
ByLayer
 62
  256
370
   -1
100
AcDbCircle
 10
-46.87542201055638
 20
47.08441562433939
 40
6.984999999999994
  0
CIRCLE
  5
3A0
100
AcDbEntity
  8
0
  6
ByLayer
 62
  256
370
   -1
100
AcDbCircle
 10
-43.56742422600136
 20
65.84500331922195
 40
6.984999999999994
  0
CIRCLE
  5
3A1
100
AcDbEntity
  8
0
  6
ByLayer
 62
  256
370
   -1
100
AcDbCircle
 10
-40.25942644144634
 20
84.6055910141045
 40
6.984999999999995
  0
CIRCLE
  5
3A2
100
AcDbEntity
  8
0
  6
ByLayer
 62
  256
370
   -1
100
AcDbCircle
 10
-22.36707963489842
 20
76.37355446448841
 40
6.985000000000011
  0
CIRCLE
  5
3A3
100
AcDbEntity
  8
0
  6
ByLayer
 62
  256
370
   -1
100
AcDbCircle
 10
-25.67507741945347
 20
57.61296676960588
 40
6.984999999999985
  0
CIRCLE
  5
3A4
100
AcDbEntity
  8
0
  6
ByLayer
 62
  256
370
   -1
100
AcDbCircle
 10
-28.98307520400846
 20
38.8523790747233
 40
6.985000000000018
  0
CIRCLE
  5
3A5
100
AcDbEntity
  8
0
  6
ByLayer
 62
  256
370
   -1
100
AcDbCircle
 10
-32.2910729885635
 20
20.09179137984077
 40
6.984999999999993
  0
CIRCLE
  5
3A6
100
AcDbEntity
  8
0
  6
ByLayer
 62
  256
370
   -1
100
AcDbCircle
 10
-11.87648640140342
 20
26.16408744272703
 40
6.984999999999991
  0
CIRCLE
  5
3A7
100
AcDbEntity
  8
0
  6
ByLayer
 62
  256
370
   -1
100
AcDbCircle
 10
-80.91495143809954
 20
73.44580664134419
 40
6.98499999999999
  0
CIRCLE
  5
3A8
100
AcDbEntity
  8
0
  6
ByLayer
 62
  256
370
   -1
100
AcDbCircle
 10
-84.22294922265456
 20
54.68521894646164
 40
6.984999999999991
  0
CIRCLE
  5
3A9
100
AcDbEntity
  8
0
  6
ByLayer
 62
  256
370
   -1
100
AcDbCircle
 10
-87.53094700720959
 20
35.92463125157908
 40
6.98499999999999
  0
CIRCLE
  5
3AA
100
AcDbEntity
  8
0
  6
ByLayer
 62
  256
370
   -1
100
AcDbCircle
 10
11.87648640140338
 20
26.16408744272702
 40
6.984999999999991
  0
CIRCLE
  5
3AB
100
AcDbEntity
  8
0
  6
ByLayer
 62
  256
370
   -1
100
AcDbCircle
 10
28.98307520400843
 20
38.85237907472332
 40
6.984999999999991
  0
CIRCLE
  5
3AC
100
AcDbEntity
  8
0
  6
ByLayer
 62
  256
370
   -1
100
AcDbCircle
 10
32.29107298856345
 20
20.09179137984076
 40
6.984999999999991
  0
CIRCLE
  5
3AD
100
AcDbEntity
  8
0
  6
ByLayer
 62
  256
370
   -1
100
AcDbCircle
 10
25.6750774194534
 20
57.61296676960588
 40
6.984999999999984
  0
CIRCLE
  5
3AE
100
AcDbEntity
  8
0
  6
ByLayer
 62
  256
370
   -1
100
AcDbCircle
 10
22.36707963489839
 20
76.37355446448844
 40
6.984999999999988
  0
CIRCLE
  5
3AF
100
AcDbEntity
  8
0
  6
ByLayer
 62
  256
370
   -1
100
AcDbCircle
 10
40.2594264414463
 20
84.60559101410449
 40
6.984999999999994
  0
CIRCLE
  5
3B0
100
AcDbEntity
  8
0
  6
ByLayer
 62
  256
370
   -1
100
AcDbCircle
 10
43.56742422600132
 20
65.84500331922193
 40
6.984999999999994
  0
CIRCLE
  5
3B1
100
AcDbEntity
  8
0
  6
ByLayer
 62
  256
370
   -1
100
AcDbCircle
 10
46.87542201055634
 20
47.08441562433939
 40
6.984999999999993
  0
CIRCLE
  5
3B2
100
AcDbEntity
  8
0
  6
ByLayer
 62
  256
370
   -1
100
AcDbCircle
 10
50.18341979511138
 20
28.32382792945682
 40
6.984999999999995
  0
CIRCLE
  5
3B3
100
AcDbEntity
  8
0
  6
ByLayer
 62
  256
370
   -1
100
AcDbCircle
 10
67.90211842399236
 20
37.54067223208507
 40
6.985000000000012
  0
CIRCLE
  5
3B4
100
AcDbEntity
  8
0
  6
ByLayer
 62
  256
370
   -1
100
AcDbCircle
 10
64.59412063943735
 20
56.30125992696766
 40
6.985
  0
CIRCLE
  5
3B5
100
AcDbEntity
  8
0
  6
ByLayer
 62
  256
370
   -1
100
AcDbCircle
 10
61.28612285488229
 20
75.06184762185021
 40
6.98499999999999
  0
CIRCLE
  5
3B6
100
AcDbEntity
  8
0
  6
ByLayer
 62
  256
370
   -1
100
AcDbCircle
 10
57.97812507032728
 20
93.82243531673276
 40
6.984999999999989
  0
CIRCLE
  5
3B7
100
AcDbEntity
  8
0
  6
ByLayer
 62
  256
370
   -1
100
AcDbCircle
 10
77.60695365354451
 20
92.20639433622675
 40
6.98499999999999
  0
CIRCLE
  5
3B8
100
AcDbEntity
  8
0
  6
ByLayer
 62
  256
370
   -1
100
AcDbCircle
 10
80.91495143809954
 20
73.44580664134419
 40
6.98499999999999
  0
CIRCLE
  5
3B9
100
AcDbEntity
  8
0
  6
ByLayer
 62
  256
370
   -1
100
AcDbCircle
 10
84.22294922265453
 20
54.68521894646163
 40
6.984999999999991
  0
CIRCLE
  5
3BA
100
AcDbEntity
  8
0
  6
ByLayer
 62
  256
370
   -1
100
AcDbCircle
 10
87.53094700720955
 20
35.92463125157907
 40
6.984999999999991
  0
CIRCLE
  5
3BB
100
AcDbEntity
  8
0
  6
ByLayer
 62
  256
370
   -1
100
AcDbCircle
 10
106.8124792350929
 20
36.27820577709747
 40
6.984999999999984
  0
CIRCLE
  5
3BC
100
AcDbEntity
  8
0
  6
ByLayer
 62
  256
370
   -1
100
AcDbCircle
 10
103.5044814505379
 20
55.03879347198004
 40
6.984999999999995
  0
CIRCLE
  5
3BD
100
AcDbEntity
  8
0
  6
ByLayer
 62
  256
370
   -1
100
AcDbCircle
 10
100.1964836659829
 20
73.79938116686259
 40
6.984999999999986
  0
CIRCLE
  5
3BE
100
AcDbEntity
  8
0
  6
ByLayer
 62
  256
370
   -1
100
AcDbCircle
 10
96.88848588142784
 20
92.55996886174515
 40
6.984999999999992
  0
CIRCLE
  5
3BF
100
AcDbEntity
  8
0
  6
ByLayer
 62
  256
370
   -1
100
AcDbCircle
 10
-103.5044814505379
 20
55.03879347198004
 40
0
  0
CIRCLE
  5
3C0
100
AcDbEntity
  8
0
  6
ByLayer
 62
  256
370
   -1
100
AcDbCircle
 10
-103.5044814505379
 20
55.03879347198004
 40
2
  0
CIRCLE
  5
3C1
100
AcDbEntity
  8
0
  6
ByLayer
 62
  256
370
   -1
100
AcDbCircle
 10
-100.1964836659829
 20
73.79938116686259
 40
2
  0
CIRCLE
  5
3C2
100
AcDbEntity
  8
0
  6
ByLayer
 62
  256
370
   -1
100
AcDbCircle
 10
-106.8128469606292
 20
36.27779445472817
 40
2
  0
CIRCLE
  5
3C3
100
AcDbEntity
  8
0
  6
ByLayer
 62
  256
370
   -1
100
AcDbCircle
 10
-87.53094700720959
 20
35.92463125157908
 40
2
  0
CIRCLE
  5
3C4
100
AcDbEntity
  8
0
  6
ByLayer
 62
  256
370
   -1
100
AcDbCircle
 10
-84.22294922265456
 20
54.68521894646164
 40
2
  0
CIRCLE
  5
3C5
100
AcDbEntity
  8
0
  6
ByLayer
 62
  256
370
   -1
100
AcDbCircle
 10
-80.91495143809954
 20
73.44580664134419
 40
2
  0
CIRCLE
  5
3C6
100
AcDbEntity
  8
0
  6
ByLayer
 62
  256
370
   -1
100
AcDbCircle
 10
-77.60695365354451
 20
92.20639433622675
 40
2
  0
CIRCLE
  5
3C7
100
AcDbEntity
  8
0
  6
ByLayer
 62
  256
370
   -1
100
AcDbCircle
 10
-96.88848588142788
 20
92.55996886174515
 40
2
  0
CIRCLE
  5
3C8
100
AcDbEntity
  8
0
  6
ByLayer
 62
  256
370
   -1
100
AcDbCircle
 10
-67.90211842399239
 20
37.5406722320851
 40
2
  0
CIRCLE
  5
3C9
100
AcDbEntity
  8
0
  6
ByLayer
 62
  256
370
   -1
100
AcDbCircle
 10
-64.59412063943735
 20
56.30125992696766
 40
2
  0
CIRCLE
  5
3CA
100
AcDbEntity
  8
0
  6
ByLayer
 62
  256
370
   -1
100
AcDbCircle
 10
-61.28612285488235
 20
75.06184762185021
 40
2
  0
CIRCLE
  5
3CB
100
AcDbEntity
  8
0
  6
ByLayer
 62
  256
370
   -1
100
AcDbCircle
 10
-57.97812507032733
 20
93.82243531673276
 40
2
  0
CIRCLE
  5
3CC
100
AcDbEntity
  8
0
  6
ByLayer
 62
  256
370
   -1
100
AcDbCircle
 10
-40.25942644144634
 20
84.6055910141045
 40
2
  0
CIRCLE
  5
3CD
100
AcDbEntity
  8
0
  6
ByLayer
 62
  256
370
   -1
100
AcDbCircle
 10
-43.56742422600136
 20
65.84500331922195
 40
2
  0
CIRCLE
  5
3CE
100
AcDbEntity
  8
0
  6
ByLayer
 62
  256
370
   -1
100
AcDbCircle
 10
-46.87542201055638
 20
47.08441562433939
 40
2
  0
CIRCLE
  5
3CF
100
AcDbEntity
  8
0
  6
ByLayer
 62
  256
370
   -1
100
AcDbCircle
 10
-50.18341979511141
 20
28.32382792945683
 40
2
  0
CIRCLE
  5
3D0
100
AcDbEntity
  8
0
  6
ByLayer
 62
  256
370
   -1
100
AcDbCircle
 10
-32.2910729885635
 20
20.09179137984077
 40
2
  0
CIRCLE
  5
3D1
100
AcDbEntity
  8
0
  6
ByLayer
 62
  256
370
   -1
100
AcDbCircle
 10
-28.98307520400846
 20
38.8523790747233
 40
2
  0
CIRCLE
  5
3D2
100
AcDbEntity
  8
0
  6
ByLayer
 62
  256
370
   -1
100
AcDbCircle
 10
-25.67507741945347
 20
57.61296676960588
 40
2
  0
CIRCLE
  5
3D3
100
AcDbEntity
  8
0
  6
ByLayer
 62
  256
370
   -1
100
AcDbCircle
 10
-22.36707963489842
 20
76.37355446448841
 40
2
  0
CIRCLE
  5
3D4
100
AcDbEntity
  8
0
  6
ByLayer
 62
  256
370
   -1
100
AcDbCircle
 10
-11.87648640140342
 20
26.16408744272703
 40
2
  0
CIRCLE
  5
3D5
100
AcDbEntity
  8
0
  6
ByLayer
 62
  256
370
   -1
100
AcDbCircle
 10
11.87648640140338
 20
26.16408744272702
 40
2
  0
CIRCLE
  5
3D6
100
AcDbEntity
  8
0
  6
ByLayer
 62
  256
370
   -1
100
AcDbCircle
 10
32.29107298856345
 20
20.09179137984076
 40
2
  0
CIRCLE
  5
3D7
100
AcDbEntity
  8
0
  6
ByLayer
 62
  256
370
   -1
100
AcDbCircle
 10
28.98307520400843
 20
38.85237907472332
 40
2
  0
CIRCLE
  5
3D8
100
AcDbEntity
  8
0
  6
ByLayer
 62
  256
370
   -1
100
AcDbCircle
 10
25.6750774194534
 20
57.61296676960588
 40
2
  0
CIRCLE
  5
3D9
100
AcDbEntity
  8
0
  6
ByLayer
 62
  256
370
   -1
100
AcDbCircle
 10
22.36707963489839
 20
76.37355446448844
 40
2
  0
CIRCLE
  5
3DA
100
AcDbEntity
  8
0
  6
ByLayer
 62
  256
370
   -1
100
AcDbCircle
 10
40.2594264414463
 20
84.60559101410449
 40
2
  0
CIRCLE
  5
3DB
100
AcDbEntity
  8
0
  6
ByLayer
 62
  256
370
   -1
100
AcDbCircle
 10
43.56742422600132
 20
65.84500331922193
 40
2
  0
CIRCLE
  5
3DC
100
AcDbEntity
  8
0
  6
ByLayer
 62
  256
370
   -1
100
AcDbCircle
 10
61.28612285488229
 20
75.06184762185021
 40
2
  0
CIRCLE
  5
3DD
100
AcDbEntity
  8
0
  6
ByLayer
 62
  256
370
   -1
100
AcDbCircle
 10
57.97812507032728
 20
93.82243531673276
 40
2
  0
CIRCLE
  5
3DE
100
AcDbEntity
  8
0
  6
ByLayer
 62
  256
370
   -1
100
AcDbCircle
 10
64.59412063943735
 20
56.30125992696766
 40
2
  0
CIRCLE
  5
3DF
100
AcDbEntity
  8
0
  6
ByLayer
 62
  256
370
   -1
100
AcDbCircle
 10
46.87542201055634
 20
47.08441562433939
 40
0
  0
CIRCLE
  5
3E0
100
AcDbEntity
  8
0
  6
ByLayer
 62
  256
370
   -1
100
AcDbCircle
 10
46.87542201055634
 20
47.08441562433939
 40
2
  0
CIRCLE
  5
3E1
100
AcDbEntity
  8
0
  6
ByLayer
 62
  256
370
   -1
100
AcDbCircle
 10
50.18341979511138
 20
28.32382792945682
 40
2
  0
CIRCLE
  5
3E2
100
AcDbEntity
  8
0
  6
ByLayer
 62
  256
370
   -1
100
AcDbCircle
 10
67.90211842399236
 20
37.54067223208507
 40
2
  0
CIRCLE
  5
3E3
100
AcDbEntity
  8
0
  6
ByLayer
 62
  256
370
   -1
100
AcDbCircle
 10
87.53094700720955
 20
35.92463125157907
 40
2
  0
CIRCLE
  5
3E4
100
AcDbEntity
  8
0
  6
ByLayer
 62
  256
370
   -1
100
AcDbCircle
 10
84.22294922265453
 20
54.68521894646163
 40
2
  0
CIRCLE
  5
3E5
100
AcDbEntity
  8
0
  6
ByLayer
 62
  256
370
   -1
100
AcDbCircle
 10
80.91495143809954
 20
73.44580664134419
 40
2
  0
CIRCLE
  5
3E6
100
AcDbEntity
  8
0
  6
ByLayer
 62
  256
370
   -1
100
AcDbCircle
 10
77.60695365354451
 20
92.20639433622675
 40
2
  0
CIRCLE
  5
3E7
100
AcDbEntity
  8
0
  6
ByLayer
 62
  256
370
   -1
100
AcDbCircle
 10
96.88848588142784
 20
92.55996886174515
 40
2
  0
CIRCLE
  5
3E8
100
AcDbEntity
  8
0
  6
ByLayer
 62
  256
370
   -1
100
AcDbCircle
 10
100.1964836659829
 20
73.79938116686259
 40
2
  0
CIRCLE
  5
3E9
100
AcDbEntity
  8
0
  6
ByLayer
 62
  256
370
   -1
100
AcDbCircle
 10
103.5044814505379
 20
55.03879347198004
 40
2
  0
CIRCLE
  5
3EA
100
AcDbEntity
  8
0
  6
ByLayer
 62
  256
370
   -1
100
AcDbCircle
 10
106.8124792350929
 20
36.27820577709747
 40
2
  0
POINT
  5
3EB
100
AcDbEntity
  8
0
  6
ByLayer
 62
  256
370
   -1
100
AcDbPoint
 10
-106.8128469606292
 20
36.27779445472817
  0
POINT
  5
3EC
100
AcDbEntity
  8
0
  6
ByLayer
 62
  256
370
   -1
100
AcDbPoint
 10
-100.1964836659829
 20
73.79938116686259
  0
POINT
  5
3ED
100
AcDbEntity
  8
0
  6
ByLayer
 62
  256
370
   -1
100
AcDbPoint
 10
-96.88848588142788
 20
92.55996886174515
  0
POINT
  5
3EE
100
AcDbEntity
  8
0
  6
ByLayer
 62
  256
370
   -1
100
AcDbPoint
 10
-77.60695365354451
 20
92.20639433622675
  0
POINT
  5
3EF
100
AcDbEntity
  8
0
  6
ByLayer
 62
  256
370
   -1
100
AcDbPoint
 10
-80.91495143809954
 20
73.44580664134419
  0
POINT
  5
3F0
100
AcDbEntity
  8
0
  6
ByLayer
 62
  256
370
   -1
100
AcDbPoint
 10
-84.22294922265456
 20
54.68521894646164
  0
POINT
  5
3F1
100
AcDbEntity
  8
0
  6
ByLayer
 62
  256
370
   -1
100
AcDbPoint
 10
-87.53094700720959
 20
35.92463125157908
  0
POINT
  5
3F2
100
AcDbEntity
  8
0
  6
ByLayer
 62
  256
370
   -1
100
AcDbPoint
 10
-57.97812507032733
 20
93.82243531673276
  0
POINT
  5
3F3
100
AcDbEntity
  8
0
  6
ByLayer
 62
  256
370
   -1
100
AcDbPoint
 10
-61.28612285488235
 20
75.06184762185021
  0
POINT
  5
3F4
100
AcDbEntity
  8
0
  6
ByLayer
 62
  256
370
   -1
100
AcDbPoint
 10
-64.59412063943735
 20
56.30125992696766
  0
POINT
  5
3F5
100
AcDbEntity
  8
0
  6
ByLayer
 62
  256
370
   -1
100
AcDbPoint
 10
-67.90211842399239
 20
37.5406722320851
  0
POINT
  5
3F6
100
AcDbEntity
  8
0
  6
ByLayer
 62
  256
370
   -1
100
AcDbPoint
 10
-50.18341979511141
 20
28.32382792945683
  0
POINT
  5
3F7
100
AcDbEntity
  8
0
  6
ByLayer
 62
  256
370
   -1
100
AcDbPoint
 10
-46.87542201055638
 20
47.08441562433939
  0
POINT
  5
3F8
100
AcDbEntity
  8
0
  6
ByLayer
 62
  256
370
   -1
100
AcDbPoint
 10
-43.56742422600136
 20
65.84500331922195
  0
POINT
  5
3F9
100
AcDbEntity
  8
0
  6
ByLayer
 62
  256
370
   -1
100
AcDbPoint
 10
-40.25942644144634
 20
84.6055910141045
  0
POINT
  5
3FA
100
AcDbEntity
  8
0
  6
ByLayer
 62
  256
370
   -1
100
AcDbPoint
 10
-22.36707963489842
 20
76.37355446448841
  0
POINT
  5
3FB
100
AcDbEntity
  8
0
  6
ByLayer
 62
  256
370
   -1
100
AcDbPoint
 10
-25.67507741945347
 20
57.61296676960588
  0
POINT
  5
3FC
100
AcDbEntity
  8
0
  6
ByLayer
 62
  256
370
   -1
100
AcDbPoint
 10
-28.98307520400846
 20
38.8523790747233
  0
POINT
  5
3FD
100
AcDbEntity
  8
0
  6
ByLayer
 62
  256
370
   -1
100
AcDbPoint
 10
-32.2910729885635
 20
20.09179137984077
  0
POINT
  5
3FE
100
AcDbEntity
  8
0
  6
ByLayer
 62
  256
370
   -1
100
AcDbPoint
 10
-11.87648640140342
 20
26.16408744272703
  0
POINT
  5
3FF
100
AcDbEntity
  8
0
  6
ByLayer
 62
  256
370
   -1
100
AcDbPoint
 10
11.87648640140338
 20
26.16408744272702
  0
POINT
  5
400
100
AcDbEntity
  8
0
  6
ByLayer
 62
  256
370
   -1
100
AcDbPoint
 10
28.98307520400843
 20
38.85237907472332
  0
POINT
  5
401
100
AcDbEntity
  8
0
  6
ByLayer
 62
  256
370
   -1
100
AcDbPoint
 10
25.6750774194534
 20
57.61296676960588
  0
POINT
  5
402
100
AcDbEntity
  8
0
  6
ByLayer
 62
  256
370
   -1
100
AcDbPoint
 10
22.36707963489839
 20
76.37355446448844
  0
POINT
  5
403
100
AcDbEntity
  8
0
  6
ByLayer
 62
  256
370
   -1
100
AcDbPoint
 10
32.29107298856345
 20
20.09179137984076
  0
POINT
  5
404
100
AcDbEntity
  8
0
  6
ByLayer
 62
  256
370
   -1
100
AcDbPoint
 10
40.2594264414463
 20
84.60559101410449
  0
POINT
  5
405
100
AcDbEntity
  8
0
  6
ByLayer
 62
  256
370
   -1
100
AcDbPoint
 10
43.56742422600132
 20
65.84500331922193
  0
POINT
  5
406
100
AcDbEntity
  8
0
  6
ByLayer
 62
  256
370
   -1
100
AcDbPoint
 10
46.87542201055634
 20
47.08441562433939
  0
POINT
  5
407
100
AcDbEntity
  8
0
  6
ByLayer
 62
  256
370
   -1
100
AcDbPoint
 10
50.18341979511138
 20
28.32382792945682
  0
POINT
  5
408
100
AcDbEntity
  8
0
  6
ByLayer
 62
  256
370
   -1
100
AcDbPoint
 10
67.90211842399236
 20
37.54067223208507
  0
POINT
  5
409
100
AcDbEntity
  8
0
  6
ByLayer
 62
  256
370
   -1
100
AcDbPoint
 10
64.59412063943735
 20
56.30125992696766
  0
POINT
  5
40A
100
AcDbEntity
  8
0
  6
ByLayer
 62
  256
370
   -1
100
AcDbPoint
 10
61.28612285488229
 20
75.06184762185021
  0
POINT
  5
40B
100
AcDbEntity
  8
0
  6
ByLayer
 62
  256
370
   -1
100
AcDbPoint
 10
57.97812507032728
 20
93.82243531673276
  0
POINT
  5
40C
100
AcDbEntity
  8
0
  6
ByLayer
 62
  256
370
   -1
100
AcDbPoint
 10
77.60695365354451
 20
92.20639433622675
  0
POINT
  5
40D
100
AcDbEntity
  8
0
  6
ByLayer
 62
  256
370
   -1
100
AcDbPoint
 10
80.91495143809954
 20
73.44580664134419
  0
POINT
  5
40E
100
AcDbEntity
  8
0
  6
ByLayer
 62
  256
370
   -1
100
AcDbPoint
 10
84.22294922265453
 20
54.68521894646163
  0
POINT
  5
40F
100
AcDbEntity
  8
0
  6
ByLayer
 62
  256
370
   -1
100
AcDbPoint
 10
87.53094700720955
 20
35.92463125157907
  0
POINT
  5
410
100
AcDbEntity
  8
0
  6
ByLayer
 62
  256
370
   -1
100
AcDbPoint
 10
96.88848588142784
 20
92.55996886174515
  0
POINT
  5
411
100
AcDbEntity
  8
0
  6
ByLayer
 62
  256
370
   -1
100
AcDbPoint
 10
100.1964836659829
 20
73.79938116686259
  0
POINT
  5
412
100
AcDbEntity
  8
0
  6
ByLayer
 62
  256
370
   -1
100
AcDbPoint
 10
103.5044814505379
 20
55.03879347198004
  0
POINT
  5
413
100
AcDbEntity
  8
0
  6
ByLayer
 62
  256
370
   -1
100
AcDbPoint
 10
106.8124792350929
 20
36.27820577709747
  0
DIMENSION
  5
414
100
AcDbEntity
  8
0
  6
ByLayer
 62
  256
370
   -1
100
AcDbDimension
  2
*D1
 10
11.87648640140338
 20
26.16408744272702
 30
0
 11
9.815704175145749
 21
23.33864360751447
 31
0
 70
   36
 71
    5
  3
Standard
 53
0
210
0
220
0
230
1
100
AcDbRadialDimension
 15
8.05631053498991
 25
20.31631168183537
 35
0
 40
0
  0
LINE
  5
415
100
AcDbEntity
  8
0
  6
ByLayer
 62
  256
370
   -1
100
AcDbLine
 10
6.21053676761662
 20
18.07227276693325
 11
17.54243603519018
 21
34.2559021185208
  0
LINE
  5
416
100
AcDbEntity
  8
0
  6
ByLayer
 62
  256
370
   -1
100
AcDbLine
 10
3.784671725609606
 20
31.83003707651378
 11
19.96830107719719
 21
20.49813780894027
  0
LINE
  5
417
100
AcDbEntity
  8
0
  6
ByLayer
 62
  256
370
   -1
100
AcDbLine
 10
26.6251233547767
 20
11.99997670404699
 11
37.95702262235025
 21
28.18360605563454
  0
LINE
  5
418
100
AcDbEntity
  8
0
  6
ByLayer
 62
  256
370
   -1
100
AcDbLine
 10
24.19925831276969
 20
25.75774101362752
 11
40.38288766435727
 21
14.42584174605401
  0
LINE
  5
419
100
AcDbEntity
  8
0
  6
ByLayer
 62
  256
370
   -1
100
AcDbLine
 10
20.89126052821466
 20
44.51832870851007
 11
37.07488987980224
 21
33.18642944093657
  0
LINE
  5
41A
100
AcDbEntity
  8
0
  6
ByLayer
 62
  256
370
   -1
100
AcDbLine
 10
23.31712557022168
 20
30.76056439892955
 11
34.64902483779524
 21
46.94419375051711
  0
LINE
  5
41B
100
AcDbEntity
  8
0
  6
ByLayer
 62
  256
370
   -1
100
AcDbLine
 10
17.58326274365964
 20
63.27891640339262
 11
33.76689209524723
 21
51.94701713581913
  0
LINE
  5
41C
100
AcDbEntity
  8
0
  6
ByLayer
 62
  256
370
   -1
100
AcDbLine
 10
20.00912778566665
 20
49.52115209381211
 11
31.34102705324021
 21
65.70478144539966
  0
LINE
  5
41D
100
AcDbEntity
  8
0
  6
ByLayer
 62
  256
370
   -1
100
AcDbLine
 10
16.70113000111163
 20
68.28173978869467
 11
28.03302926868519
 21
84.46536914028221
  0
LINE
  5
41E
100
AcDbEntity
  8
0
  6
ByLayer
 62
  256
370
   -1
100
AcDbLine
 10
14.27526495910462
 20
82.03950409827519
 11
30.4588943106922
 21
70.70760483070168
  0
LINE
  5
41F
100
AcDbEntity
  8
0
  6
ByLayer
 62
  256
370
   -1
100
AcDbLine
 10
32.16761176565252
 20
90.27154064789124
 11
48.35124111724011
 21
78.93964138031774
  0
LINE
  5
420
100
AcDbEntity
  8
0
  6
ByLayer
 62
  256
370
   -1
100
AcDbLine
 10
34.59347680765954
 20
76.51377633831072
 11
45.9253760752331
 21
92.69740568989828
  0
LINE
  5
421
100
AcDbEntity
  8
0
  6
ByLayer
 62
  256
370
   -1
100
AcDbLine
 10
49.88631039453351
 20
99.48838495051952
 11
66.06993974612109
 21
88.15648568294601
  0
LINE
  5
422
100
AcDbEntity
  8
0
  6
ByLayer
 62
  256
370
   -1
100
AcDbLine
 10
52.31217543654051
 20
85.73062064093899
 11
63.64407470411408
 21
101.9142499925265
  0
LINE
  5
423
100
AcDbEntity
  8
0
  6
ByLayer
 62
  256
370
   -1
100
AcDbLine
 10
53.19430817908852
 20
80.72779725563696
 11
69.37793753067612
 21
69.39589798806345
  0
LINE
  5
424
100
AcDbEntity
  8
0
  6
ByLayer
 62
  256
370
   -1
100
AcDbLine
 10
55.62017322109554
 20
66.97003294605643
 11
66.9520724886691
 21
83.15366229764398
  0
LINE
  5
425
100
AcDbEntity
  8
0
  6
ByLayer
 62
  256
370
   -1
100
AcDbLine
 10
69.51513897775071
 20
97.8723439700135
 11
85.69876832933828
 21
86.54044470244
  0
LINE
  5
426
100
AcDbEntity
  8
0
  6
ByLayer
 62
  256
370
   -1
100
AcDbLine
 10
71.94100401975773
 20
84.11457966043298
 11
83.27290328733127
 21
100.2982090120205
  0
LINE
  5
427
100
AcDbEntity
  8
0
  6
ByLayer
 62
  256
370
   -1
100
AcDbLine
 10
88.79667120563407
 20
98.2259184955319
 11
104.9803005572217
 21
86.8940192279584
  0
LINE
  5
428
100
AcDbEntity
  8
0
  6
ByLayer
 62
  256
370
   -1
100
AcDbLine
 10
91.22253624764109
 20
84.46815418595138
 11
102.5544355152146
 21
100.6517835375389
  0
LINE
  5
429
100
AcDbEntity
  8
0
  6
ByLayer
 62
  256
370
   -1
100
AcDbLine
 10
35.47560955020755
 20
71.5109529530087
 11
51.65923890179513
 21
60.17905368543517
  0
LINE
  5
42A
100
AcDbEntity
  8
0
  6
ByLayer
 62
  256
370
   -1
100
AcDbLine
 10
37.90147459221456
 20
57.75318864342817
 11
49.23337385978812
 21
73.93681799501572
  0
LINE
  5
42B
100
AcDbEntity
  8
0
  6
ByLayer
 62
  256
370
   -1
100
AcDbLine
 10
38.78360733476256
 20
52.75036525812614
 11
54.96723668635016
 21
41.41846599055264
  0
LINE
  5
42C
100
AcDbEntity
  8
0
  6
ByLayer
 62
  256
370
   -1
100
AcDbLine
 10
41.20947237676958
 20
38.99260094854561
 11
52.54137164434314
 21
55.17623030013316
  0
LINE
  5
42D
100
AcDbEntity
  8
0
  6
ByLayer
 62
  256
370
   -1
100
AcDbLine
 10
44.51747016132461
 20
20.23201325366305
 11
55.84936942889817
 21
36.4156426052506
  0
LINE
  5
42E
100
AcDbEntity
  8
0
  6
ByLayer
 62
  256
370
   -1
100
AcDbLine
 10
42.09160511931759
 20
33.98977756324359
 11
58.27523447090518
 21
22.65787829567007
  0
LINE
  5
42F
100
AcDbEntity
  8
0
  6
ByLayer
 62
  256
370
   -1
100
AcDbLine
 10
62.23616879020558
 20
29.44885755629132
 11
73.56806805777914
 21
45.63248690787889
  0
LINE
  5
430
100
AcDbEntity
  8
0
  6
ByLayer
 62
  256
370
   -1
100
AcDbLine
 10
59.81030374819858
 20
43.20662186587184
 11
75.99393309978616
 21
31.87472259829834
  0
LINE
  5
431
100
AcDbEntity
  8
0
  6
ByLayer
 62
  256
370
   -1
100
AcDbLine
 10
58.92817100565057
 20
48.20944525117388
 11
70.26007027322412
 21
64.39307460276144
  0
LINE
  5
432
100
AcDbEntity
  8
0
  6
ByLayer
 62
  256
370
   -1
100
AcDbLine
 10
56.50230596364355
 20
61.96720956075442
 11
72.68593531523113
 21
50.6353102931809
  0
LINE
  5
433
100
AcDbEntity
  8
0
  6
ByLayer
 62
  256
370
   -1
100
AcDbLine
 10
75.24900180431275
 20
65.35399196555043
 11
86.58090107188629
 21
81.53762131713796
  0
LINE
  5
434
100
AcDbEntity
  8
0
  6
ByLayer
 62
  256
370
   -1
100
AcDbLine
 10
72.82313676230574
 20
79.11175627513094
 11
89.00676611389331
 21
67.77985700755742
  0
LINE
  5
435
100
AcDbEntity
  8
0
  6
ByLayer
 62
  256
370
   -1
100
AcDbLine
 10
94.5305340321961
 20
65.70756649106882
 11
105.8624332997697
 21
81.89119584265637
  0
LINE
  5
436
100
AcDbEntity
  8
0
  6
ByLayer
 62
  256
370
   -1
100
AcDbLine
 10
92.1046689901891
 20
79.46533080064934
 11
108.2882983417767
 21
68.13343153307584
  0
LINE
  5
437
100
AcDbEntity
  8
0
  6
ByLayer
 62
  256
370
   -1
100
AcDbLine
 10
78.55699958886778
 20
46.59340427066787
 11
89.88889885644132
 21
62.77703362225541
  0
LINE
  5
438
100
AcDbEntity
  8
0
  6
ByLayer
 62
  256
370
   -1
100
AcDbLine
 10
76.13113454686076
 20
60.35116858024839
 11
92.31476389844833
 21
49.01926931267488
  0
LINE
  5
439
100
AcDbEntity
  8
0
  6
ByLayer
 62
  256
370
   -1
100
AcDbLine
 10
97.83853181675113
 20
46.94697879618627
 11
109.1704310843247
 21
63.13060814777382
  0
LINE
  5
43A
100
AcDbEntity
  8
0
  6
ByLayer
 62
  256
370
   -1
100
AcDbLine
 10
95.41266677474411
 20
60.7047431057668
 11
111.5962961263317
 21
49.37284383819328
  0
LINE
  5
43B
100
AcDbEntity
  8
0
  6
ByLayer
 62
  256
370
   -1
100
AcDbLine
 10
101.1465296013062
 20
28.18639110130371
 11
112.4784288688797
 21
44.37002045289124
  0
LINE
  5
43C
100
AcDbEntity
  8
0
  6
ByLayer
 62
  256
370
   -1
100
AcDbLine
 10
112.4784288688797
 20
44.37002045289124
 11
98.72066455929914
 21
41.94415541088423
  0
LINE
  5
43D
100
AcDbEntity
  8
0
  6
ByLayer
 62
  256
370
   -1
100
AcDbLine
 10
98.72066455929914
 20
41.94415541088423
 11
114.9042939108867
 21
30.61225614331072
  0
LINE
  5
43E
100
AcDbEntity
  8
0
  6
ByLayer
 62
  256
370
   -1
100
AcDbLine
 10
81.8649973734228
 20
27.8328165757853
 11
93.19689664099634
 21
44.01644592737285
  0
LINE
  5
43F
100
AcDbEntity
  8
0
  6
ByLayer
 62
  256
370
   -1
100
AcDbLine
 10
79.43913233141578
 20
41.59058088536583
 11
95.62276168300335
 21
30.25868161779233
  0
LINE
  5
440
100
AcDbEntity
  8
0
  6
ByLayer
 62
  256
370
   -1
100
AcDbLine
 10
-17.54243603519018
 20
34.2559021185208
 11
-6.21053676761662
 21
18.07227276693325
  0
LINE
  5
441
100
AcDbEntity
  8
0
  6
ByLayer
 62
  256
370
   -1
100
AcDbLine
 10
-19.96830107719719
 20
20.49813780894027
 11
-3.784671725609606
 21
31.83003707651378
  0
LINE
  5
442
100
AcDbEntity
  8
0
  6
ByLayer
 62
  256
370
   -1
100
AcDbLine
 10
-37.95702262235025
 20
28.18360605563454
 11
-26.6251233547767
 21
11.99997670404699
  0
LINE
  5
443
100
AcDbEntity
  8
0
  6
ByLayer
 62
  256
370
   -1
100
AcDbLine
 10
-40.38288766435727
 20
14.42584174605401
 11
-24.19925831276969
 21
25.75774101362752
  0
LINE
  5
444
100
AcDbEntity
  8
0
  6
ByLayer
 62
  256
370
   -1
100
AcDbLine
 10
-34.64902483779524
 20
46.94419375051711
 11
-23.31712557022168
 21
30.76056439892955
  0
LINE
  5
445
100
AcDbEntity
  8
0
  6
ByLayer
 62
  256
370
   -1
100
AcDbLine
 10
-37.07488987980224
 20
33.18642944093657
 11
-20.89126052821466
 21
44.51832870851007
  0
LINE
  5
446
100
AcDbEntity
  8
0
  6
ByLayer
 62
  256
370
   -1
100
AcDbLine
 10
-31.34102705324021
 20
65.70478144539966
 11
-20.00912778566665
 21
49.52115209381211
  0
LINE
  5
447
100
AcDbEntity
  8
0
  6
ByLayer
 62
  256
370
   -1
100
AcDbLine
 10
-17.58326274365964
 20
63.27891640339262
 11
-33.76689209524723
 21
51.94701713581913
  0
LINE
  5
448
100
AcDbEntity
  8
0
  6
ByLayer
 62
  256
370
   -1
100
AcDbLine
 10
-28.03302926868519
 20
84.46536914028221
 11
-16.70113000111163
 21
68.28173978869467
  0
LINE
  5
449
100
AcDbEntity
  8
0
  6
ByLayer
 62
  256
370
   -1
100
AcDbLine
 10
-14.27526495910462
 20
82.03950409827519
 11
-30.4588943106922
 21
70.70760483070168
  0
LINE
  5
44A
100
AcDbEntity
  8
0
  6
ByLayer
 62
  256
370
   -1
100
AcDbLine
 10
-45.9253760752331
 20
92.69740568989828
 11
-34.59347680765954
 21
76.51377633831072
  0
LINE
  5
44B
100
AcDbEntity
  8
0
  6
ByLayer
 62
  256
370
   -1
100
AcDbLine
 10
-32.16761176565252
 20
90.27154064789124
 11
-48.35124111724011
 21
78.93964138031774
  0
LINE
  5
44C
100
AcDbEntity
  8
0
  6
ByLayer
 62
  256
370
   -1
100
AcDbLine
 10
-63.64407470411408
 20
101.9142499925265
 11
-52.31217543654051
 21
85.73062064093899
  0
LINE
  5
44D
100
AcDbEntity
  8
0
  6
ByLayer
 62
  256
370
   -1
100
AcDbLine
 10
-49.88631039453351
 20
99.48838495051952
 11
-66.06993974612109
 21
88.15648568294601
  0
LINE
  5
44E
100
AcDbEntity
  8
0
  6
ByLayer
 62
  256
370
   -1
100
AcDbLine
 10
-102.5544355152146
 20
100.6517835375389
 11
-91.22253624764109
 21
84.46815418595138
  0
LINE
  5
44F
100
AcDbEntity
  8
0
  6
ByLayer
 62
  256
370
   -1
100
AcDbLine
 10
-104.9803005572217
 20
86.8940192279584
 11
-88.79667120563407
 21
98.2259184955319
  0
LINE
  5
450
100
AcDbEntity
  8
0
  6
ByLayer
 62
  256
370
   -1
100
AcDbLine
 10
-105.8624332997697
 20
81.89119584265637
 11
-94.5305340321961
 21
65.70756649106882
  0
LINE
  5
451
100
AcDbEntity
  8
0
  6
ByLayer
 62
  256
370
   -1
100
AcDbLine
 10
-108.2882983417767
 20
68.13343153307584
 11
-92.1046689901891
 21
79.46533080064934
  0
LINE
  5
452
100
AcDbEntity
  8
0
  6
ByLayer
 62
  256
370
   -1
100
AcDbLine
 10
-86.58090107188629
 20
81.53762131713796
 11
-75.24900180431275
 21
65.35399196555043
  0
LINE
  5
453
100
AcDbEntity
  8
0
  6
ByLayer
 62
  256
370
   -1
100
AcDbLine
 10
-89.00676611389331
 20
67.77985700755742
 11
-72.82313676230574
 21
79.11175627513094
  0
LINE
  5
454
100
AcDbEntity
  8
0
  6
ByLayer
 62
  256
370
   -1
100
AcDbLine
 10
-89.88889885644132
 20
62.77703362225541
 11
-78.55699958886778
 21
46.59340427066787
  0
LINE
  5
455
100
AcDbEntity
  8
0
  6
ByLayer
 62
  256
370
   -1
100
AcDbLine
 10
-76.13113454686076
 20
60.35116858024839
 11
-92.31476389844833
 21
49.01926931267488
  0
LINE
  5
456
100
AcDbEntity
  8
0
  6
ByLayer
 62
  256
370
   -1
100
AcDbLine
 10
-109.1704310843247
 20
63.13060814777382
 11
-97.83853181675113
 21
46.94697879618627
  0
LINE
  5
457
100
AcDbEntity
  8
0
  6
ByLayer
 62
  256
370
   -1
100
AcDbLine
 10
-95.41266677474411
 20
60.7047431057668
 11
-111.5962961263317
 21
49.37284383819328
  0
LINE
  5
458
100
AcDbEntity
  8
0
  6
ByLayer
 62
  256
370
   -1
100
AcDbLine
 10
-112.4784288688797
 20
44.37002045289124
 11
-101.1465296013062
 21
28.18639110130371
  0
LINE
  5
459
100
AcDbEntity
  8
0
  6
ByLayer
 62
  256
370
   -1
100
AcDbLine
 10
-98.72066455929914
 20
41.94415541088423
 11
-114.9042939108867
 21
30.61225614331072
  0
LINE
  5
45A
100
AcDbEntity
  8
0
  6
ByLayer
 62
  256
370
   -1
100
AcDbLine
 10
-93.19689664099634
 20
44.01644592737285
 11
-81.8649973734228
 21
27.8328165757853
  0
LINE
  5
45B
100
AcDbEntity
  8
0
  6
ByLayer
 62
  256
370
   -1
100
AcDbLine
 10
-95.62276168300335
 20
30.25868161779233
 11
-79.43913233141578
 21
41.59058088536583
  0
LINE
  5
45C
100
AcDbEntity
  8
0
  6
ByLayer
 62
  256
370
   -1
100
AcDbLine
 10
-73.56806805777914
 20
45.63248690787889
 11
-62.23616879020558
 21
29.44885755629132
  0
LINE
  5
45D
100
AcDbEntity
  8
0
  6
ByLayer
 62
  256
370
   -1
100
AcDbLine
 10
-75.99393309978616
 20
31.87472259829834
 11
-59.81030374819858
 21
43.20662186587184
  0
LINE
  5
45E
100
AcDbEntity
  8
0
  6
ByLayer
 62
  256
370
   -1
100
AcDbLine
 10
-70.26007027322412
 20
64.39307460276144
 11
-58.92817100565057
 21
48.20944525117388
  0
LINE
  5
45F
100
AcDbEntity
  8
0
  6
ByLayer
 62
  256
370
   -1
100
AcDbLine
 10
-72.68593531523113
 20
50.6353102931809
 11
-56.50230596364355
 21
61.96720956075442
  0
LINE
  5
460
100
AcDbEntity
  8
0
  6
ByLayer
 62
  256
370
   -1
100
AcDbLine
 10
-66.9520724886691
 20
83.15366229764398
 11
-55.62017322109554
 21
66.97003294605643
  0
LINE
  5
461
100
AcDbEntity
  8
0
  6
ByLayer
 62
  256
370
   -1
100
AcDbLine
 10
-69.37793753067612
 20
69.39589798806345
 11
-53.19430817908852
 21
80.72779725563696
  0
LINE
  5
462
100
AcDbEntity
  8
0
  6
ByLayer
 62
  256
370
   -1
100
AcDbLine
 10
-85.69876832933828
 20
86.54044470244
 11
-69.51513897775071
 21
97.8723439700135
  0
LINE
  5
463
100
AcDbEntity
  8
0
  6
ByLayer
 62
  256
370
   -1
100
AcDbLine
 10
-83.27290328733127
 20
100.2982090120205
 11
-71.94100401975773
 21
84.11457966043298
  0
LINE
  5
464
100
AcDbEntity
  8
0
  6
ByLayer
 62
  256
370
   -1
100
AcDbLine
 10
-49.23337385978812
 20
73.93681799501572
 11
-37.90147459221456
 21
57.75318864342817
  0
LINE
  5
465
100
AcDbEntity
  8
0
  6
ByLayer
 62
  256
370
   -1
100
AcDbLine
 10
-35.47560955020755
 20
71.5109529530087
 11
-51.65923890179513
 21
60.17905368543517
  0
LINE
  5
466
100
AcDbEntity
  8
0
  6
ByLayer
 62
  256
370
   -1
100
AcDbLine
 10
-52.54137164434314
 20
55.17623030013316
 11
-41.20947237676958
 21
38.99260094854561
  0
LINE
  5
467
100
AcDbEntity
  8
0
  6
ByLayer
 62
  256
370
   -1
100
AcDbLine
 10
-38.78360733476256
 20
52.75036525812614
 11
-54.96723668635016
 21
41.41846599055264
  0
LINE
  5
468
100
AcDbEntity
  8
0
  6
ByLayer
 62
  256
370
   -1
100
AcDbLine
 10
-55.84936942889817
 20
36.4156426052506
 11
-44.51747016132461
 21
20.23201325366305
  0
LINE
  5
469
100
AcDbEntity
  8
0
  6
ByLayer
 62
  256
370
   -1
100
AcDbLine
 10
-58.27523447090518
 20
22.65787829567007
 11
-42.09160511931759
 21
33.98977756324359
  0
ENDSEC
  0
SECTION
  2
OBJECTS
  0
DICTIONARY
  5
C
330
0
100
AcDbDictionary
281
    1
  3
ACAD_GROUP
350
D
  0
DICTIONARY
  5
D
330
C
100
AcDbDictionary
281
    1
  0
ENDSEC
  0
EOF
